<svg width="1000" height="700" xmlns="http://www.w3.org/2000/svg" data-name="Layer 1">

 <title>Proso Banners</title>
 <g>
  <title>Layer 1</title>
  <rect id="svg_75" fill="#fff" ry="1.74" rx="1.74" height="19.73" width="6.84" y="855.43165" x="1427.74144" class="cls-21"/>
  <rect id="svg_76" fill="#fff" ry="1.74" rx="1.74" height="19.73" width="6.84" y="855.43165" x="1394.80136" class="cls-21"/>
  <g id="svg_148">
   <path id="svg_44" d="m52.73405,488.23663s50.37,14 20.85,67l9.51,1.8s30.35,-55.79 -22.55,-74l-7.81,5.2z"/>
   <rect id="svg_45" fill="#f4f2f2" ry="20" rx="20" height="490.4" width="716.05" y="91.66663" x="207.58405" class="cls-20"/>
   <rect id="svg_46" fill="#fff" ry="1.94" rx="1.94" height="7.28" width="44.5" y="153.02663" x="255.90405" class="cls-21"/>
   <circle id="svg_47" fill="#fff" r="5.26" cy="125.10663" cx="831.61405" class="cls-21"/>
   <circle id="svg_48" fill="#fff" r="5.26" cy="125.10663" cx="850.22405" class="cls-21"/>
   <circle id="svg_49" fill="#fff" r="5.26" cy="125.10663" cx="868.83405" class="cls-21"/>
   <rect id="svg_50" opacity="0.64" fill="#dddbdb" ry="10" rx="10" height="45.41" width="631.91" y="177.81663" x="253.11405" class="cls-22"/>
   <rect id="svg_51" opacity="0.64" fill="#dddbdb" ry="10" rx="10" height="45.41" width="631.91" y="258.09663" x="253.11405" class="cls-22"/>
   <rect id="svg_52" opacity="0.64" fill="#dddbdb" ry="10" rx="10" height="45.41" width="631.91" y="338.37663" x="253.11405" class="cls-22"/>
   <rect id="svg_53" opacity="0.64" fill="#dddbdb" ry="10" rx="10" height="45.41" width="631.91" y="418.65663" x="253.11405" class="cls-22"/>
   <rect id="svg_54" fill="#e20e3c" ry="20" rx="20" height="367.26" width="384.18" y="251.76663" x="119.33405" class="cls-3"/>
   <path id="svg_55" d="m310.24738,320.32663l307.26,0s61.77,-10.3 54.19,-74.24c0,0 -2.71,-54.19 -57.45,-58l-241.14,0s-53.57,-1.24 -62.82,58.72c0,0.01 0.5,74.06 -0.04,73.52z"/>
   <rect id="svg_56" fill="#fff" ry="1.74" rx="1.74" height="25.48" width="6.84" y="244.87663" x="358.27405" class="cls-21"/>
   <rect id="svg_57" fill="#fff" ry="1.74" rx="1.74" height="19.73" width="6.84" y="250.61663" x="378.66405" class="cls-21"/>
   <rect id="svg_58" fill="#fff" ry="1.74" rx="1.74" height="23.68" width="7.16" y="246.66663" x="389.01405" class="cls-21"/>
   <rect id="svg_59" fill="#fff" ry="1.74" rx="1.74" height="19.86" width="7.28" y="250.48663" x="399.37405" class="cls-21"/>
   <rect id="svg_60" fill="#fff" ry="1.74" rx="1.74" height="15.35" width="7.23" y="254.99663" x="409.41405" class="cls-21"/>
   <rect id="svg_61" fill="#fff" ry="1.74" rx="1.74" height="11.45" width="6.84" y="258.90663" x="420.08405" class="cls-21"/>
   <rect id="svg_62" fill="#fff" ry="1.74" rx="1.74" height="11.45" width="6.84" y="258.90663" x="430.43405" class="cls-21"/>
   <rect id="svg_63" fill="#fff" ry="1.74" rx="1.74" height="15.27" width="6.84" y="255.07663" x="490.94405" class="cls-21"/>
   <rect id="svg_64" fill="#fff" ry="1.74" rx="1.74" height="11.45" width="6.84" y="258.90663" x="440.47405" class="cls-21"/>
   <rect id="svg_65" fill="#fff" ry="1.74" rx="1.74" height="11.45" width="6.84" y="258.90663" x="500.09405" class="cls-21"/>
   <rect id="svg_66" fill="#fff" ry="1.74" rx="1.74" height="11.45" width="6.84" y="258.90663" x="481.26405" class="cls-21"/>
   <rect id="svg_67" fill="#fff" ry="1.74" rx="1.74" height="15.49" width="6.84" y="254.86663" x="450.20405" class="cls-21"/>
   <rect id="svg_68" fill="#fff" ry="1.74" rx="1.74" height="15.49" width="6.84" y="254.86663" x="461.18405" class="cls-21"/>
   <rect id="svg_69" fill="#fff" ry="1.74" rx="1.74" height="18.54" width="7.32" y="251.80663" x="470.91405" class="cls-21"/>
   <rect id="svg_70" fill="#fff" ry="1.74" rx="1.74" height="29.84" width="6.84" y="240.50663" x="368.62405" class="cls-21"/>
   <rect id="svg_71" fill="#fff" ry="1.74" rx="1.74" height="33.83" width="6.84" y="236.51663" x="563.47405" class="cls-21"/>
   <rect id="svg_72" fill="#fff" ry="1.74" rx="1.74" height="33.83" width="6.84" y="236.51663" x="510.76405" class="cls-21"/>
   <rect id="svg_73" fill="#fff" ry="1.74" rx="1.74" height="19.73" width="6.84" y="250.61663" x="583.86405" class="cls-21"/>
   <rect id="svg_74" fill="#fff" ry="1.74" rx="1.74" height="19.73" width="6.84" y="250.61663" x="554.05405" class="cls-21"/>
   <rect id="svg_77" fill="#fff" ry="1.74" rx="1.74" height="25.46" width="6.84" y="244.88663" x="544.33405" class="cls-21"/>
   <rect id="svg_78" fill="#fff" ry="1.74" rx="1.74" height="23.68" width="7.16" y="246.66663" x="594.22405" class="cls-21"/>
   <rect id="svg_79" fill="#fff" ry="1.74" rx="1.74" height="19.86" width="7.28" y="250.48663" x="604.57405" class="cls-21"/>
   <rect id="svg_80" fill="#fff" ry="1.74" rx="1.74" height="15.35" width="7.23" y="254.99663" x="614.61405" class="cls-21"/>
   <rect id="svg_81" fill="#fff" ry="1.74" rx="1.74" height="11.45" width="6.84" y="258.90663" x="625.28405" class="cls-21"/>
   <rect id="svg_82" fill="#fff" ry="1.74" rx="1.74" height="29.84" width="6.84" y="240.50663" x="573.82405" class="cls-21"/>
   <circle id="svg_83" fill="#918e8e" opacity="0.64" r="7.3" cy="201.02663" cx="841.59405" class="cls-23"/>
   <circle id="svg_84" fill="#918e8e" r="7.3" cy="201.02663" cx="799.49405" class="cls-24"/>
   <rect id="svg_85" fill="#cecaca" ry="3.73" rx="3.73" height="7.83" width="45.03" y="199.35663" x="692.69405" class="cls-25"/>
   <rect id="svg_86" fill="#cecaca" ry="3.73" rx="3.73" height="7.83" width="45.03" y="199.35663" x="270.74405" class="cls-25"/>
   <circle id="svg_87" fill="#918e8e" opacity="0.64" r="7.3" cy="241.45663" cx="841.59405" class="cls-23"/>
   <circle id="svg_88" fill="#918e8e" r="7.3" cy="241.45663" cx="799.49405" class="cls-24"/>
   <rect id="svg_89" fill="#cecaca" ry="3.73" rx="3.73" height="7.83" width="45.03" y="239.77663" x="692.69405" class="cls-25"/>
   <circle id="svg_90" fill="#918e8e" opacity="0.64" r="7.3" cy="281.87663" cx="841.59405" class="cls-23"/>
   <circle id="svg_91" fill="#918e8e" r="7.3" cy="281.87663" cx="799.49405" class="cls-24"/>
   <rect id="svg_92" fill="#cecaca" ry="3.73" rx="3.73" height="7.83" width="45.03" y="280.19663" x="692.69405" class="cls-25"/>
   <circle id="svg_93" fill="#918e8e" opacity="0.64" r="7.3" cy="322.29663" cx="841.59405" class="cls-23"/>
   <circle id="svg_94" fill="#918e8e" r="7.3" cy="322.29663" cx="799.49405" class="cls-24"/>
   <rect id="svg_95" fill="#cecaca" ry="3.73" rx="3.73" height="7.83" width="45.03" y="320.62663" x="692.69405" class="cls-25"/>
   <circle id="svg_96" fill="#918e8e" opacity="0.64" r="7.3" cy="362.71663" cx="841.59405" class="cls-23"/>
   <circle id="svg_97" fill="#918e8e" r="7.3" cy="362.71663" cx="799.49405" class="cls-24"/>
   <rect id="svg_98" fill="#cecaca" ry="3.73" rx="3.73" height="7.83" width="45.03" y="361.04663" x="692.69405" class="cls-25"/>
   <circle id="svg_99" fill="#918e8e" opacity="0.64" r="7.3" cy="403.14663" cx="841.59405" class="cls-23"/>
   <circle id="svg_100" fill="#918e8e" r="7.3" cy="403.14663" cx="799.49405" class="cls-24"/>
   <rect id="svg_101" fill="#cecaca" ry="3.73" rx="3.73" height="7.83" width="45.03" y="401.46663" x="692.69405" class="cls-25"/>
   <circle id="svg_102" fill="#918e8e" opacity="0.64" r="7.3" cy="443.56663" cx="841.59405" class="cls-23"/>
   <circle id="svg_103" fill="#918e8e" r="7.3" cy="443.56663" cx="799.49405" class="cls-24"/>
   <circle id="svg_104" fill="#fff" r="7.3" cy="201.02663" cx="775.91405" class="cls-21"/>
   <circle id="svg_105" fill="#fff" r="7.3" cy="241.45663" cx="775.91405" class="cls-21"/>
   <circle id="svg_106" fill="#fff" r="7.3" cy="281.87663" cx="775.91405" class="cls-21"/>
   <circle id="svg_107" fill="#fff" r="7.3" cy="322.29663" cx="775.91405" class="cls-21"/>
   <circle id="svg_108" fill="#fff" r="7.3" cy="362.71663" cx="775.91405" class="cls-21"/>
   <circle id="svg_109" fill="#fff" r="7.3" cy="403.14663" cx="775.91405" class="cls-21"/>
   <circle id="svg_110" fill="#fff" r="7.3" cy="443.56663" cx="775.91405" class="cls-21"/>
   <rect id="svg_111" fill="#cecaca" ry="3.73" rx="3.73" height="7.83" width="45.03" y="441.88663" x="692.69405" class="cls-25"/>
   <circle id="svg_112" fill="#cecaca" r="4.04" cy="362.85663" cx="567.07405" class="cls-25"/>
   <circle id="svg_113" fill="#cecaca" r="4.04" cy="362.85663" cx="584.57405" class="cls-25"/>
   <circle id="svg_114" fill="#cecaca" r="4.04" cy="362.85663" cx="602.07405" class="cls-25"/>
   <circle id="svg_115" fill="#cecaca" r="4.04" cy="362.85663" cx="619.57405" class="cls-25"/>
   <circle id="svg_116" fill="#cecaca" r="4.04" cy="400.05663" cx="567.07405" class="cls-25"/>
   <circle id="svg_117" fill="#cecaca" r="4.04" cy="400.05663" cx="584.57405" class="cls-25"/>
   <circle id="svg_118" fill="#cecaca" r="4.04" cy="400.05663" cx="602.07405" class="cls-25"/>
   <circle id="svg_119" fill="#cecaca" r="4.04" cy="400.05663" cx="619.57405" class="cls-25"/>
   <circle id="svg_120" fill="#cecaca" r="4.04" cy="440.19663" cx="567.07405" class="cls-25"/>
   <circle id="svg_121" fill="#cecaca" r="4.04" cy="440.19663" cx="584.57405" class="cls-25"/>
   <circle id="svg_122" fill="#cecaca" r="4.04" cy="440.19663" cx="602.07405" class="cls-25"/>
   <circle id="svg_123" fill="#cecaca" r="4.04" cy="440.19663" cx="619.57405" class="cls-25"/>
   <polygon id="svg_124" points="201.72404289245605,521.2466354370117 204.68400382995605,619.3166427612305 334.9540843963623,619.3166427612305 334.9540843963623,536.0466232299805 308.3340892791748,459.5866012573242 246.0340404510498,469.77660369873047 226.7740306854248,488.4766159057617 201.72404289245605,521.2466354370117 "/>
   <path id="svg_125" fill="#e8e6e6" d="m335.73405,431.87663a631.24,631.24 0 0 1 55.88,92.28l96.86,4s6.23,0 8.5,-7.36l9.06,-10.76a27.73,27.73 0 0 1 17,-4.53l5.1,2.83s5.66,4 -4,8.5l-10.19,1.13s-6.23,7.36 9.06,6.8l11.33,-0.57l10.2,-11.33s11.32,-10.19 10.76,2.27l-14.68,36.77l-7.93,17s-11.33,6.79 -32.28,5.66l-95.16,21s-54.33,17.24 -72.46,-19.58l2.95,-144.11z" class="cls-26"/>
   <path id="svg_126" fill="#fff" d="m73.61405,555.23663l116.49,18.44s24.27,5.82 22.33,9.71l-5.82,7.75s0,11.65 11.65,9.71l42.72,-34s8.73,-10.67 -12.62,-19.41l-107.75,-46.58l41.75,-35l16.5,50.48l2.91,4.86s4.85,12.61 20.38,3.89c12.71,-7.15 18.26,-21.51 29.6,-30.11s28,-12.9 41.89,-9.56c11.06,2.65 18.63,11.8 24,21.25c2,3.48 9.57,27.36 12.22,28.12l6.8,1.94l0,-110.62s-13.59,-35.87 -58.25,-38.87c0,0 2.91,49.51 -56.3,-1.94l-17.5,0s-7.76,-3.88 -24.27,10.68l-125.21,91.26s-37.86,39.83 18.48,68z" class="cls-21"/>
   <path id="svg_127" d="m155.05405,414.95663s24.91,44.5 -1,90.28l3.9,2.25s32.2,-9.81 2.34,-98.39l-5.24,5.86z"/>
   <path id="svg_128" d="m327.22405,411.43663s7,70.54 5.27,167.75l3.48,1.25l0.69,-154.33s-1.24,-12.87 -9.44,-14.67z"/>
   <polygon id="svg_129" points="87.27406120300293,503.9565963745117 135.1440258026123,500.7666549682617 88.87406730651855,515.916618347168 87.27406120300293,503.9565963745117 "/>
   <rect id="svg_130" fill="#23355c" height="6.38" width="24.73" y="434.54663" x="205.34405" class="cls-27"/>
   <rect id="svg_131" fill="#23355c" height="6.38" width="24.73" y="444.12663" x="205.34405" class="cls-27"/>
   <path id="svg_132" d="m523.00405,524.72663l-12,51.39s20.09,-2.8 21.67,-7.21l24.38,-53.59s1.34,-8.94 -7.6,-5.81c0,0 -14.07,7.4 -15.08,14.65l-11.37,0.57z"/>
   <path id="svg_133" fill="#23355c" d="m472.07405,527.38663s-7.15,32.63 6.26,52.3l8,-2.23s-11.18,-25 -5.82,-50.07l-8.44,0z" class="cls-27"/>
   <path id="svg_134" d="m378.61405,503.23663s-13,17.88 2.24,31.29c0,0 20.56,14.75 34,-9.83l-23.24,-0.54l-11.62,-22.7l-1.38,1.78z"/>
   <path id="svg_135" fill="#b72133" d="m352.70405,595.33663s6.71,-15.2 27.72,-15.2c0,0 19.23,2.24 23.25,15.65c0,0 -21.01,11.62 -50.97,-0.45z" class="cls-28"/>
   <path id="svg_136" d="m343.32405,589.52663s5.36,-24.59 50.51,-18.78c0,0 17.89,9.39 21.91,22.8l-11.62,4s-21.46,-35.31 -51.42,-2.21l-9.38,-5.81z"/>
   <polygon id="svg_137" points="385.7940502166748,534.0866012573242 378.6341381072998,574.3266525268555 388.4739818572998,574.7766036987305 393.8340892791748,536.3266525268555 385.7940502166748,534.0866012573242 "/>
   <path id="svg_138" d="m492.30405,527.47663s17.89,4 23.85,-4c0,0 -7.15,-3.58 1.59,-6.36c0,0 10.74,4.37 13.52,-8.35c0,0 -5.57,-6.76 -13.52,-4.77l-10.73,2.78s-11.13,11.15 -14.71,20.7z"/>
   <path id="svg_139" d="m221.33405,384.60663l18.11,0.79l6.29,-14.16s8.37,11.57 24.11,-0.24l-6.79,15.24l19.71,1.38s5.48,34.82 -41,20.66c0.04,-0.04 -16.49,-6.35 -20.43,-23.67z"/>
   <ellipse id="svg_140" fill="#fff" ry="29.82" rx="20.9" cy="348.03663" cx="256.93405" class="cls-21"/>
   <ellipse id="svg_141" fill="#fff" ry="5.4" rx="2.82" cy="350.84663" cx="234.62405" class="cls-21"/>
   <ellipse id="svg_142" fill="#fff" ry="5.4" rx="2.82" cy="350.84663" cx="277.83405" class="cls-21"/>
   <ellipse id="svg_143" fill="#d2212f" ry="4.1" rx="2.52" cy="345.20663" cx="249.21405" class="cls-3"/>
   <ellipse id="svg_144" fill="#d2212f" ry="4.1" rx="2.52" cy="345.20663" cx="263.60405" class="cls-3"/>
   <path id="svg_145" d="m235.85405,355.32663l3.05,-0.38s7.45,24.44 22.15,20.24c0,0 8.22,-1.34 14.52,-19.48l2.26,0.54s-4.94,23.14 -25.56,23.71c0,0 -11.08,-3.05 -16.42,-24.63z"/>
   <path id="svg_146" fill="#e20e3c" d="m52.87405,487.66663c-34.91,51.48 20.74,67.57 20.74,67.57c31.58,-48.4 -18.45,-68 -18.45,-68" class="cls-3"/>
  </g>
 </g>
</svg>