<svg width="717.9999999999999" height="728" xmlns="http://www.w3.org/2000/svg" xmlns:xlink="http://www.w3.org/1999/xlink">
 <defs>
  <linearGradient y2="0.70153" x2="0.26294" y1="0.04746" x1="0.97788" id="linear-gradient">
   <stop stop-color="#fff" offset="0"/>
   <stop stop-color="#ebeff2" offset="1"/>
  </linearGradient>
  <linearGradient xlink:href="#linear-gradient" y2="612.26" x2="760.03" y1="612.26" x1="594.82" id="linear-gradient-2"/>
  <linearGradient xlink:href="#linear-gradient" y2="635.1" x2="760.03" y1="635.1" x1="594.82" id="linear-gradient-3"/>
  <linearGradient xlink:href="#linear-gradient" y2="657.94" x2="760.03" y1="657.94" x1="594.82" id="linear-gradient-4"/>
  <linearGradient xlink:href="#linear-gradient" y2="278.03" x2="677.92" y1="278.03" x1="594.82" id="linear-gradient-5"/>
  <linearGradient xlink:href="#linear-gradient" y2="289.42" x2="677.92" y1="289.42" x1="594.82" id="linear-gradient-6"/>
  <linearGradient xlink:href="#linear-gradient" y2="300.82" x2="677.92" y1="300.82" x1="594.82" id="linear-gradient-7"/>
  <linearGradient y2="0.60451" x2="0.49308" y1="1.20962" x1="0.45315" id="linear-gradient-8">
   <stop stop-color="#26264f" offset="0"/>
   <stop stop-color="#444b8c" offset="1"/>
  </linearGradient>
  <linearGradient xlink:href="#linear-gradient-8" y2="448.33" x2="550.8" y1="471.24" x1="538.07" id="linear-gradient-9"/>
  <linearGradient xlink:href="#linear-gradient-8" y2="460.39" x2="565.92" y1="460.39" x1="523.68" id="linear-gradient-10"/>
  <linearGradient xlink:href="#linear-gradient-8" y2="440.8" x2="551.85" y1="464.98" x1="539.28" id="linear-gradient-11"/>
  <linearGradient xlink:href="#linear-gradient-8" y2="453.27" x2="567.79" y1="453.27" x1="521.78" id="linear-gradient-12"/>
  <linearGradient xlink:href="#linear-gradient-8" y2="444.95" x2="568.5" y1="444.95" x1="521.1" id="linear-gradient-13"/>
  <linearGradient xlink:href="#linear-gradient-8" y2="419.53" x2="548.29" y1="441.38" x1="543.62" id="linear-gradient-14"/>
  <linearGradient xlink:href="#linear-gradient" y2="601.98" x2="501.06" y1="601.98" x1="446.76" id="linear-gradient-15"/>
  <linearGradient xlink:href="#linear-gradient" y2="671.88" x2="563.16" y1="671.88" x1="474.13" id="linear-gradient-16"/>
  <linearGradient xlink:href="#linear-gradient" y2="655.28" x2="487.27" y1="655.28" x1="441.57" id="linear-gradient-17"/>
  <linearGradient xlink:href="#linear-gradient" y2="596.04" x2="586.28" y1="596.04" x1="507.23" id="linear-gradient-18"/>
  <linearGradient xlink:href="#linear-gradient" y2="667.41" x2="739.74" y1="350.81" x1="933.22" id="linear-gradient-19"/>
  <linearGradient y2="0.49937" x2="1.005" y1="0.49997" x1="-0.06956" id="linear-gradient-20">
   <stop stop-color="#444b8c" offset="0"/>
   <stop stop-color="#3e4177" offset="1"/>
  </linearGradient>
  <linearGradient xlink:href="#linear-gradient" y2="577.1" x2="863.62" y1="577.1" x1="827.74" id="linear-gradient-21"/>
  <linearGradient y2="0.9578" x2="0.84947" y1="-0.1188" x1="0.09693" id="linear-gradient-22">
   <stop stop-color="#ffc444" offset="0"/>
   <stop stop-color="#f36f56" offset="1"/>
  </linearGradient>
 </defs>
 <title>Proso Banners</title>
 <g>
  <title>Layer 1</title>
  <path stroke="null" id="svg_41" fill="#f4f2f2" d="m172.58165,43.73957c-24.11,35.17 4.21,92.17 -31.62,118.57c-34.83,25.73 -77.61,-16.45 -110.43,5.7c-48.69,32.86 -39.8,183.21 31.39,276.62c21.41,28.1 39.29,39 47.22,70.8c17,68.22 -42.78,108.81 -31.4,142.55c25.62,76 419.6,139.72 577.68,-88.61c73.83,-106.63 84.88,-260.62 18.91,-377.57c-119.2,-211.34 -447.65,-226.89 -501.75,-148.06z" class="cls-23"/>
  <path stroke="null" id="svg_42" fill="#e20e3c" d="m482.17165,40.81957l-251.38,-8.51a10,10 0 0 0 -10.42,9.95l0,456.65a9.68,9.68 0 0 0 10.42,9.75l251.41,-14.3a10.26,10.26 0 0 0 9.4,-10.3l0,-433.15a10,10 0 0 0 -9.43,-10.09z" class="cls-7"/>
  <g stroke="null" id="svg_43" mix-blend-mode="multiply" opacity="0.3" class="cls-24">
   <path stroke="null" id="svg_44" fill="#d8dee8" d="m379.01165,376.72626c-4.22,-52.22 27.78,-73.78 15.57,-121.09c-15.12,-58.48 -73.27,-61 -93.08,-118.33c-7.59,-22 -10.58,-55.19 11.14,-103.56l-81.85,-2.77a10,10 0 0 0 -10.42,9.95l0,456.65a9.68,9.68 0 0 0 10.42,9.75l224.14,-12.75c-57.04,-44.16 -73.29,-85.76 -75.92,-117.85z" class="cls-25"/>
  </g>
  <path stroke="null" id="svg_45" fill="url(#linear-gradient)" d="m482.17165,46.58957l-251.38,-8.22a4.09,4.09 0 0 0 -4.28,4.09l0,456.16a4,4 0 0 0 4.28,4l251.41,-14a4.23,4.23 0 0 0 3.87,-4.24l0,-433.65a4.11,4.11 0 0 0 -3.9,-4.14z" class="cls-26"/>
  <path stroke="null" id="svg_46" fill="url(#linear-gradient-2)" opacity="0.6" d="m434.68165,391.90957l-152.55,5.5a6.81,6.81 0 0 0 -6.52,6.75l0,0a6.23,6.23 0 0 0 6.52,6.26l152.55,-5.88a6.52,6.52 0 0 0 6.11,-6.53l0,0a6,6 0 0 0 -6.11,-6.1z" class="cls-27"/>
  <path stroke="null" id="svg_47" fill="url(#linear-gradient-3)" opacity="0.6" d="m434.68165,414.41957l-152.55,6.17a6.86,6.86 0 0 0 -6.52,6.78l0,0a6.2,6.2 0 0 0 6.52,6.24l152.55,-6.56a6.56,6.56 0 0 0 6.14,-6.57l0,0a5.93,5.93 0 0 0 -6.14,-6.06z" class="cls-28"/>
  <path stroke="null" id="svg_48" fill="url(#linear-gradient-4)" opacity="0.6" d="m434.68165,436.90957l-152.55,6.85a6.89,6.89 0 0 0 -6.52,6.81l0,0a6.16,6.16 0 0 0 6.52,6.21l152.55,-7.24a6.6,6.6 0 0 0 6.11,-6.63l0,0a5.9,5.9 0 0 0 -6.11,-6z" class="cls-29"/>
  <path stroke="null" id="svg_49" fill="url(#linear-gradient-5)" opacity="0.6" d="m355.58165,64.84957l-76.74,-2.17a3.12,3.12 0 0 0 -3.23,3.13l0,0a3.34,3.34 0 0 0 3.23,3.31l76.74,2.08a3.05,3.05 0 0 0 3.13,-3.09l0,0a3.26,3.26 0 0 0 -3.13,-3.26z" class="cls-30"/>
  <path stroke="null" id="svg_50" fill="url(#linear-gradient-6)" opacity="0.6" d="m355.58165,76.15957l-76.74,-2a3.13,3.13 0 0 0 -3.23,3.14l0,0a3.32,3.32 0 0 0 3.23,3.3l76.74,1.91a3.06,3.06 0 0 0 3.13,-3.09l0,0a3.26,3.26 0 0 0 -3.13,-3.26z" class="cls-31"/>
  <path stroke="null" id="svg_51" fill="url(#linear-gradient-7)" opacity="0.6" d="m355.58165,87.46957l-76.74,-1.83a3.13,3.13 0 0 0 -3.23,3.14l0,0a3.32,3.32 0 0 0 3.23,3.3l76.74,1.74a3.07,3.07 0 0 0 3.13,-3.1l0,0a3.25,3.25 0 0 0 -3.13,-3.25z" class="cls-32"/>
  <path stroke="null" id="svg_52" opacity="0.75" fill="#f4f7fa" d="m297.26165,122.56957c0,-37.69 -32.09,-68.25 -71.67,-68.25s-71.67,30.59 -71.67,68.25c0,22.87 11.82,43.12 30,55.5a28.16,28.16 0 0 1 12.36,23.23l0,5.22a20.55,20.55 0 0 0 20.51,20.55l17.6,0a20.55,20.55 0 0 0 20.55,-20.55l0,-5.22a28.16,28.16 0 0 1 12.36,-23.23c18.14,-12.38 29.96,-32.63 29.96,-55.5z" class="cls-33"/>
  <ellipse stroke="null" id="svg_53" fill="url(#linear-gradient-8)" ry="8.42" rx="15.9" cy="257.48957" cx="225.59165" class="cls-34"/>
  <path stroke="null" id="svg_54" fill="url(#linear-gradient-9)" d="m204.47165,242.45957l0,8.59a7.56,7.56 0 0 0 4.32,6.86c3.64,1.73 9.7,3.64 18.5,3.42c7.15,-0.19 11.81,-1.35 14.77,-2.58a7.67,7.67 0 0 0 4.69,-7.11l0,-4.73l-42.28,-4.45z" class="cls-35"/>
  <path stroke="null" id="svg_55" fill="url(#linear-gradient-10)" mix-blend-mode="multiply" opacity="0.3" d="m204.47165,249.98957a8.5,8.5 0 0 0 2.22,1.55c4.09,1.95 30.87,6.31 37.33,3.88a8.73,8.73 0 0 0 2.25,-1.24a7.67,7.67 0 0 0 0.44,-2.57l0,-4.7l-42.24,-4.4l0,7.48z" class="cls-36"/>
  <path stroke="null" id="svg_56" fill="url(#linear-gradient-11)" d="m206.34165,236.60957a4,4 0 0 0 -4.45,4l0,0.3a8.49,8.49 0 0 0 4.8,7.66c4.09,1.95 30.87,6.3 37.33,3.88a7.81,7.81 0 0 0 5.27,-7.54l0,-0.2a4,4 0 0 0 -3.62,-4l-39.33,-4.1z" class="cls-37"/>
  <path stroke="null" id="svg_57" fill="url(#linear-gradient-12)" mix-blend-mode="multiply" opacity="0.3" d="m245.67165,240.69957l-39.33,-4.09a4,4 0 0 0 -3.77,1.77a8.42,8.42 0 0 0 4.12,4.32c4.09,1.95 32,6.88 37.33,4.37a9.2,9.2 0 0 0 4.56,-4.62a4,4 0 0 0 -2.91,-1.75z" class="cls-38"/>
  <path stroke="null" id="svg_58" fill="url(#linear-gradient-13)" d="m204.79165,222.67957a2.91,2.91 0 0 0 -2.91,2.91l0,6.73a8.47,8.47 0 0 0 4.8,7.66c4.09,1.95 32,6.88 37.33,4.37a8.89,8.89 0 0 0 5.27,-8l0,-10.76a2.91,2.91 0 0 0 -2.91,-2.91l-41.58,0z" class="cls-39"/>
  <ellipse stroke="null" id="svg_59" fill="url(#linear-gradient-14)" ry="5.46" rx="23.11" cy="224.77957" cx="225.59165" class="cls-40"/>
  <path stroke="null" id="svg_60" fill="#fff" d="m297.26165,122.56957c0,-37.69 -32.09,-68.25 -71.67,-68.25s-71.67,30.59 -71.67,68.25c0,22.87 11.82,43.12 30,55.5a28.16,28.16 0 0 1 12.36,23.23l0,5.22a20.55,20.55 0 0 0 20.51,20.55l17.6,0a20.55,20.55 0 0 0 20.55,-20.55l0,-5.22a28.16,28.16 0 0 1 12.36,-23.23c18.14,-12.38 29.96,-32.63 29.96,-55.5z" class="cls-41"/>
  <ellipse stroke="null" id="svg_61" mix-blend-mode="soft-light" opacity="0.5" fill="#f4f7fa" ry="4" rx="16.91" cy="220.46957" cx="225.59165" class="cls-42"/>
  <path stroke="null" id="svg_62" d="m221.18165,222.90957a1,1 0 0 1 -1,-0.85l-12.39,-96.75a1,1 0 1 1 1.94,-0.25l12.44,96.75a1,1 0 0 1 -0.84,1.09l-0.15,0.01z"/>
  <path stroke="null" id="svg_63" d="m228.91165,222.90957l-0.12,0a1,1 0 0 1 -0.84,-1.09l12.44,-96.75a1,1 0 1 1 1.94,0.25l-12.44,96.75a1,1 0 0 1 -0.98,0.84z"/>
  <path stroke="null" id="svg_64" d="m239.04165,125.22957a1,1 0 0 1 -0.82,-0.44l-3.43,-5.21a0.17,0.17 0 0 0 -0.14,-0.08a0.15,0.15 0 0 0 -0.13,0.08l-2.27,3.8a2.11,2.11 0 0 1 -3.57,0.09l-3.12,-4.67a0.16,0.16 0 0 0 -0.13,-0.08c-0.07,0 -0.1,0 -0.13,0.07l-2.74,4a2.1,2.1 0 0 1 -1.73,0.91l0,0a2.13,2.13 0 0 1 -1.74,-0.91l-3.94,-5.65a0.21,0.21 0 0 0 -0.14,-0.07a0.14,0.14 0 0 0 -0.13,0.08l-3.6,6.22a1,1 0 0 1 -1.69,-1l3.6,-6.22a2.11,2.11 0 0 1 3.56,-0.14l3.94,5.64a0.17,0.17 0 0 0 0.14,0.08l0,0a0.19,0.19 0 0 0 0.13,-0.07l2.73,-4a2.11,2.11 0 0 1 3.5,0l3.11,4.66c0,0.06 0.09,0.1 0.14,0.08a0.13,0.13 0 0 0 0.13,-0.08l2.27,-3.8a2.11,2.11 0 0 1 3.58,-0.08l3.44,5.21a1,1 0 0 1 -0.28,1.36a1,1 0 0 1 -0.54,0.22z"/>
  <path stroke="null" id="svg_65" fill="#eae9e8" mix-blend-mode="multiply" opacity="0.3" d="m226.89165,176.39957c1.54,-26.31 45.88,-32.46 45.69,-55.95c-0.12,-14.47 -17.74,-25.22 -21.5,-27.37c-27.73,-15.86 -61.85,2.46 -68.9,-10.5c-1.76,-3.23 -0.93,-6.74 -0.47,-8.74a18.84,18.84 0 0 1 4.69,-8.42c-19.56,12.19 -32.48,33.23 -32.48,57.15c0,22.87 11.82,43.12 30,55.5a28.16,28.16 0 0 1 12.36,23.23l0,5.22a20.55,20.55 0 0 0 20.51,20.55l17.6,0a20.55,20.55 0 0 0 20.55,-20.55l0,-4.18a13.44,13.44 0 0 1 -8.26,3.13c-10.59,-0.09 -20.55,-15.98 -19.79,-29.07z" class="cls-43"/>
  <ellipse stroke="null" id="svg_66" opacity="0.64" fill="#dddbdb" ry="59.48" rx="61.67" cy="125.22957" cx="226.74165" class="cls-44"/>
  <path stroke="null" id="svg_67" fill="#d2212f" d="m282.79165,285.23957l-195,-6.6a7.73,7.73 0 0 0 -8.09,7.72l0,354.32a7.52,7.52 0 0 0 8.09,7.54l195,-11.1a8,8 0 0 0 7.3,-8l0,-336.05a7.75,7.75 0 0 0 -7.3,-7.83z" class="cls-7"/>
  <g stroke="null" id="svg_68" mix-blend-mode="multiply" opacity="0.3" class="cls-24">
   <path stroke="null" id="svg_69" fill="#d8dee8" d="m202.79165,546.90957c-3.32,-40.52 21.57,-57.24 12.08,-94c-11.73,-45.37 -56.85,-47.32 -72.22,-91.81c-5.88,-17.05 -8.21,-42.82 8.64,-80.34l-63.5,-2.12a7.73,7.73 0 0 0 -8.09,7.72l0,354.32a7.52,7.52 0 0 0 8.09,7.54l173.92,-9.89c-44.26,-34.27 -56.87,-66.54 -58.92,-91.42z" class="cls-25"/>
  </g>
  <path stroke="null" id="svg_70" fill="#e20e3c" d="m282.79165,289.70957l-195,-6.37a3.18,3.18 0 0 0 -3.32,3.17l0,353.91a3.1,3.1 0 0 0 3.32,3.1l195,-10.87a3.28,3.28 0 0 0 3,-3.28l0,-336.46a3.2,3.2 0 0 0 -3,-3.2z" class="cls-7"/>
  <path stroke="null" id="svg_71" fill="#d8dee8" d="m245.99165,557.63957l-118.35,4.27a5.28,5.28 0 0 0 -5.07,5.23l0,0a4.83,4.83 0 0 0 5.07,4.86l118.35,-4.56a5.06,5.06 0 0 0 4.76,-5.08l0,0a4.63,4.63 0 0 0 -4.76,-4.72z" class="cls-25"/>
  <path stroke="null" id="svg_72" fill="#d8dee8" d="m245.99165,575.09957l-118.35,4.81a5.32,5.32 0 0 0 -5.07,5.26l0,0a4.81,4.81 0 0 0 5.07,4.84l118.35,-5.1a5.09,5.09 0 0 0 4.76,-5.1l0,0a4.6,4.6 0 0 0 -4.76,-4.71z" class="cls-25"/>
  <path stroke="null" id="svg_73" fill="#d8dee8" d="m245.99165,592.54957l-118.35,5.36a5.35,5.35 0 0 0 -5.07,5.29l0,0a4.78,4.78 0 0 0 5.07,4.81l118.35,-5.62a5.11,5.11 0 0 0 4.76,-5.12l0,0a4.58,4.58 0 0 0 -4.76,-4.72z" class="cls-25"/>
  <path stroke="null" id="svg_74" fill="#d8dee8" d="m184.62165,303.90957l-59.54,-1.68a2.43,2.43 0 0 0 -2.51,2.43l0,0a2.6,2.6 0 0 0 2.51,2.57l59.54,1.61a2.37,2.37 0 0 0 2.43,-2.4l0,0a2.53,2.53 0 0 0 -2.43,-2.53z" class="cls-25"/>
  <path stroke="null" id="svg_75" fill="#d8dee8" d="m184.62165,312.65957l-59.54,-1.56a2.44,2.44 0 0 0 -2.51,2.44l0,0a2.58,2.58 0 0 0 2.51,2.56l59.54,1.49a2.38,2.38 0 0 0 2.43,-2.41l0,0a2.52,2.52 0 0 0 -2.43,-2.52z" class="cls-25"/>
  <path stroke="null" id="svg_76" fill="#d8dee8" d="m184.62165,321.42957l-59.54,-1.42a2.44,2.44 0 0 0 -2.51,2.44l0,0a2.58,2.58 0 0 0 2.51,2.56l59.54,1.35a2.38,2.38 0 0 0 2.43,-2.41l0,0a2.52,2.52 0 0 0 -2.43,-2.52z" class="cls-25"/>
  <path stroke="null" id="svg_77" fill="url(#linear-gradient-15)" d="m161.68165,415.68957a25.45,25.45 0 0 1 19.58,-13.47l0.59,-36.14a61.14,61.14 0 0 0 -54.3,36.88l34.13,12.73z" class="cls-45"/>
  <path stroke="null" id="svg_78" fill="url(#linear-gradient-16)" d="m209.07165,432.11957a25.59,25.59 0 0 1 -24.85,21.34a25,25 0 0 1 -10.37,-2.14l-18.93,31.13a59.94,59.94 0 0 0 29.3,7c31.42,-0.58 56.86,-25.16 59.73,-56l-34.88,-1.33z" class="cls-46"/>
  <path stroke="null" id="svg_79" fill="url(#linear-gradient-17)" d="m149.07165,478.90957l19,-31.16a25.67,25.67 0 0 1 -9.38,-19.92a26.41,26.41 0 0 1 0.62,-5.67l-34.17,-12.68a62.46,62.46 0 0 0 -2.78,18.43a61.64,61.64 0 0 0 26.71,51z" class="cls-47"/>
  <path stroke="null" id="svg_80" fill="url(#linear-gradient-18)" d="m188.02165,402.34957a25.51,25.51 0 0 1 21.32,23l57.73,2.28l0,-0.08c0,-44.74 -34.17,-81.92 -78.07,-85.22l-0.98,60.02z" class="cls-48"/>
  <path stroke="null" id="svg_81" fill="#f4f2f2" d="m138.02165,381.17957l-94.41,-0.94a3.86,3.86 0 0 1 -3.86,-3.8l0,-35.9a3.7,3.7 0 0 1 3.86,-3.67l82.19,2a3.76,3.76 0 0 1 3.65,3.74l0,30.86l8.57,7.71z" class="cls-23"/>
  <polygon stroke="null" id="svg_82" opacity="0.67" fill="#fff" points="116.19166564941406,351.7994842529297 53.68165588378906,350.5795135498047 53.68165588378906,346.2795867919922 116.19166564941406,347.5795135498047 116.19166564941406,351.7994842529297 " class="cls-49"/>
  <polygon stroke="null" id="svg_83" opacity="0.67" fill="#fff" points="116.19166564941406,360.2396697998047 53.68165588378906,359.1896209716797 53.68165588378906,354.8895721435547 116.19166564941406,356.0194549560547 116.19166564941406,360.2396697998047 " class="cls-49"/>
  <polygon stroke="null" id="svg_84" opacity="0.67" fill="#fff" points="116.19166564941406,368.6796112060547 53.68165588378906,367.7994842529297 53.68165588378906,363.4996795654297 116.19166564941406,364.4596405029297 116.19166564941406,368.6796112060547 " class="cls-49"/>
  <path stroke="null" id="svg_85" fill="#d8dee8" d="m184.85165,502.01957l84.34,-1.81a3.93,3.93 0 0 1 4,4l0,39.27a4.22,4.22 0 0 1 -4,4.25l-88.9,3a4,4 0 0 1 -4.16,-4.08l0,-51.31l8.72,6.68z" class="cls-25"/>
  <polygon stroke="null" id="svg_86" opacity="0.67" fill="#fff" points="191.14161682128906,535.2695770263672 258.7616729736328,533.2396697998047 258.7616729736328,537.9896697998047 191.14161682128906,540.0894012451172 191.14161682128906,535.2695770263672 " class="cls-49"/>
  <polygon stroke="null" id="svg_87" opacity="0.67" fill="#fff" points="191.14161682128906,525.6095428466797 258.7616729736328,523.7494354248047 258.7616729736328,528.4996795654297 191.14161682128906,530.4396209716797 191.14161682128906,525.6095428466797 " class="cls-49"/>
  <polygon stroke="null" id="svg_88" opacity="0.67" fill="#fff" points="191.14161682128906,515.9493865966797 258.7616729736328,514.2594451904297 258.7616729736328,518.9996795654297 191.14161682128906,520.7794647216797 191.14161682128906,515.9493865966797 " class="cls-49"/>
  <path stroke="null" id="svg_89" d="m615.93165,119.29957l-262.14,-8.87a10.38,10.38 0 0 0 -10.86,10.37l0,476.16a10.1,10.1 0 0 0 10.86,10.12l262.13,-14.9a10.72,10.72 0 0 0 9.87,-10.75l0,-451.61a10.42,10.42 0 0 0 -9.86,-10.52z"/>
  <g stroke="null" id="svg_90" mix-blend-mode="multiply" opacity="0.3" class="cls-24">
   <path stroke="null" id="svg_91" fill="#d8dee8" d="m508.38165,470.90957c-4.46,-54.45 29,-76.92 16.23,-126.25c-15.76,-61 -76.4,-63.58 -97.05,-123.37c-7.91,-22.91 -11,-57.55 11.61,-108l-85.38,-2.86a10.38,10.38 0 0 0 -10.86,10.37l0,476.16a10.1,10.1 0 0 0 10.86,10.12l233.73,-13.29c-59.46,-46.04 -76.4,-89.42 -79.14,-122.88z" class="cls-25"/>
  </g>
  <path stroke="null" id="svg_92" fill="url(#linear-gradient-19)" d="m615.93165,125.30957l-262.14,-8.57a4.27,4.27 0 0 0 -4.46,4.26l0,475.61a4.16,4.16 0 0 0 4.46,4.16l262.13,-14.61a4.4,4.4 0 0 0 4,-4.41l0,-452.12a4.29,4.29 0 0 0 -3.99,-4.32z" class="cls-50"/>
  <g stroke="null" id="svg_93" opacity="0.64" class="cls-51">
   <path stroke="null" id="svg_94" fill="#dddbdb" d="m566.42165,485.35957l-159,5.73a7.1,7.1 0 0 0 -6.8,7l0,0a6.48,6.48 0 0 0 6.8,6.53l159,-6.13a6.79,6.79 0 0 0 6.4,-6.82l0,0a6.22,6.22 0 0 0 -6.4,-6.31z" class="cls-52"/>
   <path stroke="null" id="svg_95" fill="#dddbdb" d="m566.42165,508.81957l-159,6.44a7.14,7.14 0 0 0 -6.8,7.07l0,0a6.45,6.45 0 0 0 6.8,6.5l159,-6.84a6.83,6.83 0 0 0 6.4,-6.85l0,0a6.19,6.19 0 0 0 -6.4,-6.32z" class="cls-52"/>
   <path stroke="null" id="svg_96" fill="#dddbdb" d="m566.42165,532.27957l-159,7.15a7.18,7.18 0 0 0 -6.8,7.1l0,0a6.42,6.42 0 0 0 6.8,6.47l159,-7.55a6.87,6.87 0 0 0 6.4,-6.88l0,0a6.15,6.15 0 0 0 -6.4,-6.29z" class="cls-52"/>
  </g>
  <path stroke="null" id="svg_97" fill="#d8dee8" d="m483.94165,144.34957l-80,-2.26a3.26,3.26 0 0 0 -3.37,3.27l0,0a3.48,3.48 0 0 0 3.37,3.45l80,2.17a3.19,3.19 0 0 0 3.27,-3.22l0,0a3.41,3.41 0 0 0 -3.27,-3.41z" class="cls-25"/>
  <path stroke="null" id="svg_98" fill="#d8dee8" d="m483.94165,156.14957l-80,-2.09a3.26,3.26 0 0 0 -3.37,3.27l0,0a3.47,3.47 0 0 0 3.37,3.45l80,2a3.19,3.19 0 0 0 3.27,-3.23l0,0a3.38,3.38 0 0 0 -3.27,-3.4z" class="cls-25"/>
  <path stroke="null" id="svg_99" fill="#d8dee8" d="m483.94165,167.90957l-80,-1.91a3.26,3.26 0 0 0 -3.37,3.28l0,0a3.47,3.47 0 0 0 3.37,3.44l80,1.81a3.2,3.2 0 0 0 3.27,-3.23l0,0a3.38,3.38 0 0 0 -3.27,-3.39z" class="cls-25"/>
  <path stroke="null" id="svg_100" d="m453.12165,294.60957a34.22,34.22 0 0 1 26.3,-18.11l0.8,-48.56c-32.47,0.85 -60.44,20.87 -73,49.56l45.9,17.11z"/>
  <path stroke="null" id="svg_101" d="m516.79165,316.68957a34.38,34.38 0 0 1 -33.39,28.67a33.44,33.44 0 0 1 -13.93,-2.87l-25.45,41.83a80.5,80.5 0 0 0 39.38,9.4c42.23,-0.81 76.39,-33.81 80.27,-75.26l-46.88,-1.77z"/>
  <path stroke="null" id="svg_102" d="m436.17165,379.55957l25.52,-41.87a34.86,34.86 0 0 1 -11.77,-34.39l-45.92,-17a83.84,83.84 0 0 0 -3.72,24.79a82.8,82.8 0 0 0 35.89,68.47z"/>
  <path stroke="null" id="svg_103" fill="#e20e3c" d="m488.52165,276.67957a34.27,34.27 0 0 1 28.64,30.86l77.63,3.07l0,-0.11c0,-60.12 -46,-110.08 -105,-114.52l-1.27,80.7z" class="cls-7"/>
  <g stroke="null" id="svg_104" opacity="0.64" class="cls-51">
   <path stroke="null" id="svg_105" fill="#dddbdb" mix-blend-mode="multiply" opacity="0.3" d="m484.25165,410.61957l113.34,-2.44a5.3,5.3 0 0 1 5.34,5.41l0,52.78a5.66,5.66 0 0 1 -5.34,5.7l-119.46,4a5.42,5.42 0 0 1 -5.6,-5.48l0,-69l11.72,9.03z" class="cls-53"/>
   <polygon stroke="null" id="svg_106" opacity="0.67" fill="#dddbdb" points="492.71168518066406,455.2895965576172 583.5816192626953,452.5795135498047 583.5816192626953,458.9493865966797 492.71168518066406,461.7794647216797 492.71168518066406,455.2895965576172 " class="cls-54"/>
   <polygon stroke="null" id="svg_107" opacity="0.67" fill="#dddbdb" points="492.71168518066406,442.3195037841797 583.5816192626953,439.8193817138672 583.5816192626953,446.1993865966797 492.71168518066406,448.7994842529297 492.71168518066406,442.3195037841797 " class="cls-54"/>
   <polygon stroke="null" id="svg_108" opacity="0.67" fill="#dddbdb" points="492.71168518066406,429.3395233154297 583.5816192626953,427.0594940185547 583.5816192626953,433.4396209716797 492.71168518066406,435.8295135498047 492.71168518066406,429.3395233154297 " class="cls-54"/>
  </g>
  <path stroke="null" id="svg_109" fill="#d2212f" d="m445.79165,113.81957a6.31,6.31 0 0 0 5.69,-11.22a4.43,4.43 0 0 0 -0.45,-0.2a37.12,37.12 0 0 0 1.2,-5.17l0.5,0a6.59,6.59 0 0 0 5.79,-6.7a5.58,5.58 0 0 0 -6,-5.65l-0.5,0.07a32.74,32.74 0 0 0 -1.4,-4.93a4.17,4.17 0 0 0 0.44,-0.29a6.57,6.57 0 0 0 2,-8.62a5.57,5.57 0 0 0 -8.12,-1.54l-0.41,0.32a30.5,30.5 0 0 0 -3.62,-3.38c0.09,-0.16 0.18,-0.31 0.26,-0.47c1.57,-3.1 3.63,-6.48 0.74,-7.89c-6.67,-3.26 -9.53,-0.47 -11.1,2.63c-0.08,0.16 -0.15,0.32 -0.22,0.49a29.25,29.25 0 0 0 -4.87,-0.93c0,-0.17 0,-0.35 0,-0.52c-0.07,-3.41 0.94,-5.26 -2.34,-5.32c-7.14,-0.14 -9.55,3 -9.49,6.37c0,0.18 0,0.36 0,0.53a32.33,32.33 0 0 0 -4.81,1.78a4.92,4.92 0 0 0 -0.24,-0.45a5.59,5.59 0 0 0 -8.12,-1.54a6.58,6.58 0 0 0 -2,8.63c0.08,0.14 0.18,0.28 0.27,0.41a37.3,37.3 0 0 0 -3.46,4l-0.43,-0.25a6.31,6.31 0 0 0 -5.7,11.22a3.76,3.76 0 0 0 0.46,0.2a35.79,35.79 0 0 0 -1.21,5.17l-0.49,0a6.58,6.58 0 0 0 -5.79,6.7a5.58,5.58 0 0 0 6,5.65l0.5,-0.07a32.74,32.74 0 0 0 1.4,4.93c-0.15,0.09 -0.3,0.18 -0.45,0.29a6.58,6.58 0 0 0 -2,8.62c1.69,2.81 7.29,4.11 10.08,2.16c0.15,-0.1 -1.68,-0.83 -1.55,-0.94a29,29 0 0 0 3.62,3.38c-0.09,0.16 -0.18,0.31 -0.26,0.47a5.83,5.83 0 1 0 10.36,5.26c0.08,-0.16 0.15,-0.32 0.22,-0.49a29.05,29.05 0 0 0 4.87,0.93c0,0.17 0,0.35 0,0.52a5.58,5.58 0 0 0 6,5.65a6.58,6.58 0 0 0 5.78,-6.7c0,-0.18 0,-0.36 0,-0.53a33.18,33.18 0 0 0 4.81,-1.78a4.92,4.92 0 0 0 0.24,0.45a5.58,5.58 0 0 0 8.12,1.54a6.59,6.59 0 0 0 2,-8.63a3.71,3.71 0 0 0 -0.28,-0.41a36.29,36.29 0 0 0 3.47,-4l0.49,0.25zm-35.67,0.45c-10.39,-5.28 -14.18,-18.67 -8.47,-29.92s18.76,-16.09 29.15,-10.82s14.18,18.67 8.47,29.92s-18.76,16.09 -29.15,10.82z" class="cls-7"/>
  <path stroke="null" id="svg_110" fill="#d2212f" d="m452.73165,97.20957a6.59,6.59 0 0 0 5.79,-6.7a5.58,5.58 0 0 0 -6,-5.65l-0.5,0.07a32.74,32.74 0 0 0 -1.4,-4.93a4.17,4.17 0 0 0 0.44,-0.29c2.8,-1.95 6.25,-6.68 4.28,-9.3c-3.74,-5 -7.61,-2.82 -10.4,-0.86l-0.41,0.32a30.5,30.5 0 0 0 -3.62,-3.38c0.09,-0.16 0.18,-0.31 0.26,-0.47a6.49,6.49 0 0 0 0.37,-5.12q-4.05,7.11 -8,14.31c8.29,6.07 10.93,18 5.75,28.24c-4.39,8.65 -13.12,13.5 -21.64,12.89c-0.38,1 -0.75,2 -1.16,3c-1.1,2.65 -2.36,5.24 -3.61,7.83c0.79,0.15 1.58,0.27 2.38,0.35c0,0.17 0,0.35 0,0.52c0.07,3.41 2.14,6.31 8.06,6c3.27,-0.17 3.83,-3.63 3.76,-7c0,-0.18 0,-0.36 0,-0.53a33.18,33.18 0 0 0 4.81,-1.78a4.92,4.92 0 0 0 0.24,0.45c1.69,2.8 7.56,4 10.35,2s1.45,-6.32 -0.24,-9.13a3.71,3.71 0 0 0 -0.28,-0.41a36.29,36.29 0 0 0 3.47,-4l0.43,0.25a6.31,6.31 0 0 0 5.69,-11.22a4.43,4.43 0 0 0 -0.45,-0.2a37.12,37.12 0 0 0 1.2,-5.17l0.43,-0.09z" class="cls-7"/>
  <path stroke="null" id="svg_111" fill="#e20e3c" d="m448.86165,114.16957a6.31,6.31 0 0 0 5.7,-11.22a4.43,4.43 0 0 0 -0.45,-0.2a37.12,37.12 0 0 0 1.2,-5.17l0.5,0a6.58,6.58 0 0 0 5.78,-6.7a5.58,5.58 0 0 0 -6,-5.65l-0.51,0.07a32.71,32.71 0 0 0 -1.39,-4.93a4.17,4.17 0 0 0 0.44,-0.29a6.58,6.58 0 0 0 2,-8.62a5.57,5.57 0 0 0 -8.12,-1.54a4.47,4.47 0 0 0 -0.41,0.32a29.83,29.83 0 0 0 -3.63,-3.38c0.1,-0.16 0.19,-0.31 0.27,-0.47a5.83,5.83 0 1 0 -10.36,-5.26a3.06,3.06 0 0 0 -0.22,0.49a29.44,29.44 0 0 0 -4.87,-0.93a4.51,4.51 0 0 0 0,-0.52a5.57,5.57 0 0 0 -6,-5.65a6.58,6.58 0 0 0 -5.79,6.7c0,0.18 0,0.35 0,0.53a32.33,32.33 0 0 0 -4.81,1.78c-0.08,-0.15 -0.15,-0.3 -0.24,-0.45a5.59,5.59 0 0 0 -8.12,-1.54a6.58,6.58 0 0 0 -2,8.63c0.09,0.14 0.18,0.28 0.28,0.41a36.21,36.21 0 0 0 -3.46,4l-0.43,-0.25a6.31,6.31 0 0 0 -5.7,11.22a4.43,4.43 0 0 0 0.45,0.2a37.12,37.12 0 0 0 -1.18,5.16l-0.49,0a6.58,6.58 0 0 0 -5.79,6.7a5.58,5.58 0 0 0 6,5.65l0.51,-0.07a32.74,32.74 0 0 0 1.4,4.93c-0.15,0.09 -0.3,0.18 -0.45,0.29a6.57,6.57 0 0 0 -2,8.62a5.57,5.57 0 0 0 8.12,1.54l0.41,-0.32a29,29 0 0 0 3.62,3.38c-0.09,0.15 -0.18,0.31 -0.26,0.47a5.83,5.83 0 1 0 10.36,5.26c0.08,-0.16 0.15,-0.32 0.22,-0.49a29.13,29.13 0 0 0 4.86,0.93c0,0.17 0,0.35 0,0.52a5.58,5.58 0 0 0 6,5.65a6.58,6.58 0 0 0 5.79,-6.7a4.55,4.55 0 0 0 0,-0.53a32.87,32.87 0 0 0 4.82,-1.78a4.92,4.92 0 0 0 0.24,0.45a5.57,5.57 0 0 0 8.11,1.54a6.58,6.58 0 0 0 2,-8.63c-0.09,-0.14 -0.18,-0.28 -0.28,-0.41a36.29,36.29 0 0 0 3.47,-4l0.41,0.26zm-35.67,0.45c-10.38,-5.28 -14.18,-18.67 -8.46,-29.92s18.76,-16.09 29.15,-10.79s14.18,18.67 8.47,29.92s-18.77,16.08 -29.16,10.79z" class="cls-7"/>
  <path stroke="null" id="svg_112" d="m484.61165,704.02957s-18.56,8.49 -18.82,9.88s11.95,-0.48 16.95,-0.3s9.11,-1.3 8.66,-3.42s-2.23,-7.44 -2.23,-7.44l-4.56,1.28z"/>
  <path stroke="null" id="svg_113" fill="#fff" d="m483.91165,697.17957l1.15,8.36s3,1 4.92,-0.2l0.82,-9.18l-6.89,1.02z" class="cls-41"/>
  <path stroke="null" id="svg_114" d="m571.42165,697.16957l2.17,3.46a4.13,4.13 0 0 1 0.5,3.25c-0.75,2.88 -2.24,8.51 -2.9,10c-0.89,2 -12.91,3.21 -12.91,3.21s-1.08,-1.5 1.42,-3.33s4.09,-2.12 5,-4.81s1.44,-10.3 1.44,-10.3l5.28,-1.48z"/>
  <path stroke="null" id="svg_115" fill="#fff" d="m562.40165,688.36957c0.79,0.63 4.68,12.34 4.68,12.34s1.26,1.6 3.63,-0.76l1.08,-1.04l-0.47,-11.52l-8.92,0.98z" class="cls-41"/>
  <path stroke="null" id="svg_116" d="m473.29165,529.12957c-0.92,24.95 -0.9,52.07 0.61,81c1.69,32.61 5,62.75 9.17,90.07c1.53,0 3.12,0 4.8,0c1.12,0 2.22,-0.1 3.27,-0.17a207.89,207.89 0 0 0 6.84,-22a212.49,212.49 0 0 0 4.74,-25.79c3.51,-28.27 -0.69,-30.73 2.16,-51.69c2.53,-18.55 6.19,-19.29 10.42,-45.64c4.59,-28.59 1.11,-32.87 -0.58,-34.41c-7.2,-6.59 -24.05,-2.06 -41.43,8.63z"/>
  <path stroke="null" id="svg_117" fill="url(#linear-gradient-20)" mix-blend-mode="multiply" opacity="0.3" d="m514.72165,520.48957c-6.86,-6.28 -22.51,-2.43 -39,7.21c19.08,20.51 21.18,33.84 18.92,42.5c-2.55,9.79 -10.38,12.62 -10.33,23.31c0.07,13.15 11.94,16.6 11.72,30.5c-0.14,9.2 -5.36,9.12 -6.56,20.48c-1.42,13.44 5.4,18 3.22,28c-0.94,4.28 -3.64,9.88 -11.34,15.65c0.57,4.08 1.15,8.12 1.75,12.09c1.52,0 3.12,0 4.8,0c1.12,0 2.22,-0.1 3.27,-0.17a207.89,207.89 0 0 0 6.84,-22a212.49,212.49 0 0 0 4.74,-25.79c3.51,-28.27 -0.69,-30.73 2.16,-51.69c2.53,-18.55 6.19,-19.29 10.42,-45.64c4.56,-28.63 1.08,-32.91 -0.61,-34.45z" class="cls-55"/>
  <path stroke="null" id="svg_118" d="m485.07165,528.67957a560.78,560.78 0 0 1 77.22,164.23a10.05,10.05 0 0 0 5.48,0.83a10.18,10.18 0 0 0 6.21,-3.37a161.43,161.43 0 0 0 1.33,-39.79a137.2,137.2 0 0 0 -5.67,-29.9c-4.56,-14.58 -7.67,-15.39 -13.61,-30.81c-6.16,-16 -4.69,-20 -10.6,-40a264.43,264.43 0 0 0 -13.18,-35.12l-47.18,13.93z"/>
  <path stroke="null" id="svg_119" fill="#e20e3c" d="m418.29165,494.90957c0.15,5.82 9.72,11 17.43,12.53c18,3.67 38.91,-9.42 48.82,-23.9c2,-2.85 4.11,-6.29 4.64,-6c1.18,0.61 -9.66,18.4 -14.35,38.65c-2.41,10.35 -1.78,15.2 -6.27,22.1c-1,1.56 -2.27,3.19 -1.83,5c1.1,4.63 11.68,5.83 19,6.67a170,170 0 0 0 22.12,0.69c11.44,-0.17 12.34,-0.76 14.95,0.52c8,3.9 7.41,13.26 13.4,14.5c5,1 10.13,-4.56 11.74,-6.34c8.41,-9.26 8,-20.41 9.45,-31.66c3.47,-26.16 17.68,-54.82 31.58,-73c4.22,-5.5 7.15,-8.4 7.33,-13.51c0.54,-15 -23.24,-31.58 -43,-33.49c-5.43,-0.52 -15.15,-0.35 -24.26,0.5c-3.64,0.35 -7.52,0.85 -11.68,1.58c-10.11,1.77 -17.14,3 -24.31,6.28c-28.91,13.23 -22.6,42.67 -53.89,63c-10.77,7.07 -21.04,9.78 -20.87,15.88z" class="cls-7"/>
  <path stroke="null" id="svg_120" d="m535.79165,372.59957s2.17,12.09 7.15,20.69c4.51,7.78 24.17,17.88 28,19.23s-6.89,0.8 -17.24,3.25s-40.64,4 -46.57,0.79s3.85,-4.25 11,-8s9.5,-19 7.3,-25.44s10.36,-10.52 10.36,-10.52z"/>
  <path stroke="null" id="svg_121" fill="url(#linear-gradient-21)" d="m516.07165,369.09957c-7.51,-5.36 -9.59,-19.88 -5.42,-23.14c1.19,-0.94 2.33,-0.51 19.28,6.29c8.42,3.38 12.57,5.18 13.93,8.9a11.81,11.81 0 0 1 -0.22,7.75a30.47,30.47 0 0 1 -3.45,5.75c-1.82,2.62 -1.7,2.53 -2.26,3.29a41.29,41.29 0 0 1 -8.67,8.48a28.48,28.48 0 0 0 -1.38,-4.8a24.86,24.86 0 0 0 -3.09,-5.71c-2.93,-3.94 -6.28,-5.06 -8.72,-6.81z" class="cls-56"/>
  <path stroke="null" id="svg_122" d="m535.32165,382.90957s-4.91,7.33 -14,6.33c-8.15,-0.89 -8.54,-19.27 -3.15,-22.94c1.8,-1.22 5.31,-1.6 8.11,-0.68c1.66,0.54 2.19,1.26 4.91,2.09c2.51,0.77 3.24,0.52 4,1.2c0.93,0.85 1.54,2.86 -0.29,8.15c1.62,-1.51 3.52,-2 4.82,-1.35a2.73,2.73 0 0 1 1,1.11c1.07,2.14 -0.93,4.73 -5.4,6.09z"/>
  <path stroke="null" id="svg_123" fill="#b72133" d="m443.56165,494.01957c13.07,-3 18.27,-2.85 24.73,-8.06c10.76,-8.66 12.37,-21.86 18.63,-21.69c3,0.07 5.35,3.09 7.06,6l-4.72,7.4c0,-0.1 0,-0.17 -0.08,-0.2c-0.53,-0.26 -2.69,3.18 -4.64,6c-9.91,14.48 -30.8,27.57 -48.82,23.9c-5.17,-1.06 -11.16,-3.72 -14.6,-7.1a221.2,221.2 0 0 1 22.44,-6.25z" class="cls-57"/>
  <path stroke="null" id="svg_124" fill="url(#linear-gradient-22)" d="m422.28165,505.24957s-7.37,-0.73 -11.76,-2.61s-7.23,0.82 -6.83,2.68s7.63,4.47 10.52,4.57s8.07,-4.64 8.07,-4.64z" class="cls-58"/>
  <path stroke="null" id="svg_125" fill="#d2212f" d="m581.05165,544.23957c7.92,0.71 25.74,1 38.34,-10.63c21,-19.4 10.57,-56.35 3.27,-72.23c-8.38,-18.22 -21.7,-28.41 -29.8,-34.61c-10.05,-7.69 -16.18,-12.38 -23.55,-11.33c-19.08,2.72 -32.3,41.82 -21.82,53c3.42,3.66 6.82,1.59 16.74,4.75c3.24,1 27.36,8.71 31.55,26.48c2.94,12.43 -4.54,27 -17.86,36.77c1.05,2.61 2.09,5.21 3.13,7.8z" class="cls-7"/>
  <path stroke="null" id="svg_126" fill="#b72133" d="m492.34165,537.79957c9,-5.66 10.28,-11.4 20.32,-15.28c13,-5 19.3,1.36 25.76,-3.8c7.69,-6.15 0.88,-16.87 6.64,-35.46c1,-3.15 8.4,-27.12 25.42,-30.17c7.94,-1.43 18.42,1.62 22.47,8.34c3.16,5.27 0.21,9.19 4.06,15s8.43,4.38 13.33,9.23c7.78,7.69 9,23.91 2,33.09c-3.28,4.28 -7.53,6 -15.54,9.15a74.35,74.35 0 0 1 -13.35,3.92c9.8,-9.41 14.89,-21.54 12.38,-32.14c-2.61,-11.08 -13,-18.23 -21.18,-22.3c-8.22,15.47 -14.94,33.39 -17.18,50.28c-1.49,11.25 -1,22.4 -9.45,31.66c-1.61,1.78 -6.71,7.39 -11.74,6.34c-6,-1.24 -5.45,-10.6 -13.4,-14.5c-2.61,-1.28 -3.51,-0.69 -14.95,-0.52a170,170 0 0 1 -22.12,-0.69c-6.53,-0.75 -15.61,-1.78 -18.32,-5.26c11.74,-0.31 19.6,-3.58 24.85,-6.89z" class="cls-57"/>
  <path stroke="null" id="svg_127" fill="#d2212f" d="m575.86165,550.45957l0.92,-2.71a8,8 0 0 0 -5.4,-10.29l-174.42,-53.13l-5.31,18l173.54,53.46a8.61,8.61 0 0 0 10.67,-5.33z" class="cls-7"/>
  <path stroke="null" id="svg_128" fill="#be1e2d" d="m223.64165,435.51957c13.34,-52.68 65.59,-84.43 117.28,-69.55c52.63,15.15 82.76,72.17 66.77,125.93c-15.62,52.49 -69.17,80.81 -119.14,64.61c-49.1,-15.91 -77.94,-69.5 -64.91,-120.99zm168.87,51.73c13.21,-45 -12,-92.63 -56,-105.42c-43.29,-12.59 -87.27,13.84 -98.61,58.07c-11.11,43.39 13.22,88.62 54.69,101.94c42.07,13.52 86.96,-10.49 99.92,-54.59z" class="cls-59"/>
  <path stroke="null" id="svg_129" fill="#d8dee8" mix-blend-mode="multiply" opacity="0.3" d="m396.96165,484.32957l22.24,6.77c1.53,7.09 4.5,11.16 7.48,13.63c11.24,9.32 26.24,-0.84 47.16,10.08c10.5,5.48 8.51,9 18.35,12.79c16.27,6.32 23.72,-2.44 38.13,3.32c14.56,5.81 16,18.39 24.26,17.94c3.53,-0.19 8.08,-2.76 13.16,-12.51l3.64,1.11a8,8 0 0 1 5.4,10.29l-0.92,2.71a8.61,8.61 0 0 1 -10.67,5.33l-173.54,-53.45l5.31,-18.01z" class="cls-60"/>
  <path stroke="null" id="svg_130" opacity="0.56" fill="#fff" d="m288.47165,549.04957c43.52,14 90,-10.8 103.43,-56.43c13.71,-46.59 -12.4,-95.94 -57.93,-109.17c-44.81,-13 -90.31,14.39 -102,60.17c-11.51,44.87 13.63,91.63 56.5,105.43z" class="cls-61"/>
  <path stroke="null" id="svg_131" fill="#d2212f" d="m220.26165,440.03957c13.34,-52.68 65.6,-84.44 117.28,-69.55c52.63,15.15 82.76,72.17 66.77,125.93c-15.62,52.49 -69.17,80.81 -119.14,64.61c-49.1,-15.91 -77.94,-69.5 -64.91,-120.99zm168.87,51.73c13.21,-45 -12,-92.64 -56,-105.42c-43.29,-12.59 -87.26,13.84 -98.61,58.07c-11.08,43.39 13.27,88.61 54.69,101.94c42.07,13.55 86.96,-10.45 99.92,-54.59z" class="cls-7"/>
  <path stroke="null" id="svg_132" fill="#e20e3c" d="m225.31165,441.58957c12.64,-49.7 62,-79.56 110.68,-65.48c49.55,14.32 77.94,68 62.94,118.66c-14.67,49.52 -65.15,76.33 -112.33,61.08c-46.41,-14.94 -73.65,-65.63 -61.29,-114.26zm163.82,50.18c13.21,-45 -12,-92.64 -56,-105.42c-43.29,-12.59 -87.26,13.84 -98.61,58.07c-11.08,43.39 13.27,88.61 54.69,101.94c42.07,13.55 86.96,-10.45 99.92,-54.59z" class="cls-7"/>
  <path stroke="null" id="svg_133" fill="#e8e6e6" d="m580.38165,542.56957l-1.76,-4.38a9,9 0 0 1 -5.24,-1.52a6.85,6.85 0 0 0 -4.23,-1c-0.67,0.18 -3.17,0.07 -0.32,1.44s2.84,2.37 1.65,3.49s-5.72,3.53 -7.35,3.64s1.31,2.64 3,3a10.18,10.18 0 0 0 7.68,-1.23c1.17,-0.77 6.57,-3.44 6.57,-3.44z" class="cls-62"/>
 </g>
</svg>