<svg width="926" height="962" xmlns="http://www.w3.org/2000/svg" data-name="Layer 1">

 <title>Proso Banners</title>
 <g>
  <title>Layer 1</title>
  <rect transform="rotate(-66.43 -339.32 472.731)" id="svg_93" fill="#eaeaea" height="4.81" width="248.06" y="1409.55127" x="0" class="cls-25"/>
  <g id="svg_163">
   <circle id="svg_45" opacity="0.42" fill="#b5b1b1" r="38.07" cy="235.81071" cx="724.18563" class="cls-23"/>
   <path id="svg_96" fill="#dedee0" d="m629.70563,281.20071l89,-28.93a47.59,47.59 0 0 0 1.54,-5.56l-92.74,30.14l2.2,4.35z" class="cls-26"/>
   <path id="svg_106" d="m706.59563,228.71071l-76.33,14.73l89,-9.22a12.16,12.16 0 0 0 -12.67,-5.51z"/>
   <path id="svg_122" d="m627.11563,243.61071a17.55,17.55 0 0 0 -23.74,4.14a17.81,17.81 0 0 1 20.09,-1.09c1.11,-0.91 2.42,-2.02 3.65,-3.05z"/>
   <path id="svg_127" d="m303.28563,222.76071l0,0a4.17,4.17 0 0 1 -4.17,-4.17l0,-14.09a4.17,4.17 0 0 1 4.17,-4.17l0,0a4.17,4.17 0 0 1 4.17,4.17l0,14.09a4.17,4.17 0 0 1 -4.17,4.17z"/>
   <path id="svg_128" d="m323.20563,222.76071l0,0a4.17,4.17 0 0 1 -4.17,-4.17l0,-14.09a4.17,4.17 0 0 1 4.17,-4.17l0,0a4.17,4.17 0 0 1 4.17,4.17l0,14.09a4.17,4.17 0 0 1 -4.17,4.17z"/>
   <path id="svg_129" d="m343.12563,222.76071l0,0a4.18,4.18 0 0 1 -4.18,-4.17l0,-14.09a4.18,4.18 0 0 1 4.18,-4.17l0,0a4.17,4.17 0 0 1 4.17,4.17l0,14.09a4.17,4.17 0 0 1 -4.17,4.17z"/>
   <path id="svg_130" d="m363.04563,222.76071l0,0a4.18,4.18 0 0 1 -4.18,-4.17l0,-14.09a4.18,4.18 0 0 1 4.18,-4.17l0,0a4.17,4.17 0 0 1 4.17,4.17l0,14.09a4.17,4.17 0 0 1 -4.17,4.17z"/>
   <path id="svg_135" d="m374.16563,233.89071l0,0a4.18,4.18 0 0 1 4.18,-4.18l14.08,0a4.17,4.17 0 0 1 4.17,4.18l0,0a4.17,4.17 0 0 1 -4.17,4.17l-14.08,0a4.18,4.18 0 0 1 -4.18,-4.17z"/>
   <path id="svg_136" d="m374.16563,253.80071l0,0a4.18,4.18 0 0 1 4.18,-4.17l14.08,0a4.17,4.17 0 0 1 4.17,4.17l0,0a4.17,4.17 0 0 1 -4.17,4.18l-14.08,0a4.18,4.18 0 0 1 -4.18,-4.18z"/>
   <path id="svg_137" d="m374.16563,273.72071l0,0a4.18,4.18 0 0 1 4.18,-4.17l14.08,0a4.17,4.17 0 0 1 4.17,4.17l0,0a4.17,4.17 0 0 1 -4.17,4.18l-14.08,0a4.18,4.18 0 0 1 -4.18,-4.18z"/>
   <path id="svg_139" d="m269.70563,233.89071l0,0a4.18,4.18 0 0 1 4.18,-4.18l14.08,0a4.18,4.18 0 0 1 4.17,4.18l0,0a4.17,4.17 0 0 1 -4.17,4.17l-14.06,0a4.18,4.18 0 0 1 -4.2,-4.17z"/>
   <path id="svg_140" d="m269.70563,253.80071l0,0a4.18,4.18 0 0 1 4.18,-4.17l14.08,0a4.17,4.17 0 0 1 4.17,4.17l0,0a4.18,4.18 0 0 1 -4.17,4.18l-14.06,0a4.18,4.18 0 0 1 -4.2,-4.18z"/>
   <path id="svg_141" d="m269.70563,273.72071l0,0a4.18,4.18 0 0 1 4.18,-4.17l14.08,0a4.17,4.17 0 0 1 4.17,4.17l0,0a4.18,4.18 0 0 1 -4.17,4.18l-14.06,0a4.18,4.18 0 0 1 -4.2,-4.18z"/>
   <g id="svg_162">
    <path id="svg_42" fill="#e20e3c" d="m815.00563,531.65789c-7.8,-41.9 -68.08,-62.2 -61.48,-106.19c6.43,-42.82 66.51,-43.25 74.06,-82.12c11.19,-57.66 -101.41,-157.69 -217.8,-173.41c-35,-4.72 -55.38,0.2 -83.45,-16.67c-60.27,-36.21 -46.69,-107.18 -78.59,-123c-71.84,-35.6 -395.51,197.9 -345.84,471.14c23.2,127.61 124.28,244.31 253.62,280.36c233.72,65.16 476.99,-156.08 459.48,-250.11z" class="cls-21"/>
    <circle id="svg_43" fill="#f4f2f2" r="74.19" cy="235.81071" cx="724.18563" class="cls-21"/>
    <circle id="svg_44" fill="#e5e1e1" r="56.13" cy="235.81071" cx="724.18563" class="cls-22"/>
    <circle id="svg_46" fill="#e20e3c" r="36.02" cy="429.53071" cx="382.31563" class="cls-4"/>
    <circle stroke="null" id="svg_47" fill="#e20e3c" r="17.58" cy="704.43137" cx="219.23554" class="cls-4"/>
    <circle id="svg_48" fill="#e20e3c" r="17.58" cy="742.74746" cx="185.2001" class="cls-4"/>
    <path id="svg_49" fill="#e20e3c" d="m683.89563,526.26071a15.63,15.63 0 1 1 -15.63,-15.62a15.63,15.63 0 0 1 15.63,15.62z" class="cls-4"/>
    <path id="svg_50" d="m675.24563,516.69071l-3.65,23s-27.25,-11.63 -28.28,-13.63s0.18,-20.85 0.18,-20.85l31.75,11.48z"/>
    <polygon id="svg_51" fill="#4300aa" points="628.1355934143066,415.0607373714447 643.3156471252441,434.28076910972595 624.0956764221191,447.52075934410095 628.1355934143066,415.0607373714447 " class="cls-24"/>
    <polygon id="svg_52" fill="#e20e3c" points="602.0956764221191,256.0107190608978 627.8556861877441,245.95072150230408 642.9356422424316,295.38074469566345 626.1956520080566,302.64075446128845 602.0956764221191,256.0107190608978 " class="cls-4"/>
    <polygon id="svg_53" fill="#e20e3c" points="486.58566665649414,322.6307752132416 508.0056495666504,307.9407422542572 546.8156471252441,355.9107129573822 527.6356544494629,371.15076422691345 486.58566665649414,322.6307752132416 " class="cls-4"/>
    <polygon id="svg_54" points="316.37558364868164,715.7107312679291 320.2256202697754,713.4906995296478 221.4656105041504,605.6706922054291 206.5056037902832,627.9707410335541 316.37558364868164,715.7107312679291 "/>
    <path id="svg_55" fill="#eaeaea" d="m578.94563,610.68071s-39.68,31.27 -48.9,34.68s-12.43,-13.43 -2.41,-31.07s22.58,-34.85 22.58,-34.85l-98.34,-48.5l80.17,-109.75l94.21,134.2l-47.31,55.29z" class="cls-25"/>
    <path id="svg_56" d="m575.34563,605.67071l-45.3,39.69c8,-3 39.15,-27.06 47.06,-33.23l-1.76,-6.46z"/>
    <polygon id="svg_57" points="511.60568618774414,452.63074469566345 533.8556861877441,442.3107373714447 519.1556739807129,385.9507520198822 511.60568618774414,452.63074469566345 "/>
    <path id="svg_58" fill="#dedee0" d="m641.70563,516.69071l23.43,9l8,17.44s-76.57,72 -92.2,76.77s-15,-40.09 -7.52,-56.12s68.29,-47.09 68.29,-47.09z" class="cls-26"/>
    <polygon id="svg_59" fill="#dedee0" points="646.0556373596191,433.89075446128845 679.1756324768066,514.0707471370697 668.3456764221191,521.2906873226166 641.4856910705566,510.0607373714447 615.0256080627441,438.3007276058197 646.0556373596191,433.89075446128845 " class="cls-26"/>
    <polygon id="svg_60" points="649.4356422424316,445.5907666683197 675.2356910705566,516.6907117366791 679.1756324768066,514.0707471370697 650.7956275939941,445.5907666683197 649.4356422424316,445.5907666683197 "/>
    <circle id="svg_61" fill="#e20e3c" r="23.88" cy="438.94071" cx="627.85563" class="cls-4"/>
    <path id="svg_62" d="m649.43563,445.59071a33.66,33.66 0 0 1 -0.3,4.16a23.86,23.86 0 0 0 -21.28,-34.69c-0.24,0 -0.48,0 -0.73,0a32,32 0 0 1 22.31,30.53z"/>
    <polygon id="svg_63" points="652.6456031799316,493.62073493003845 645.4056129455566,513.1207349300385 620.7356910705566,492.02075934410095 627.8556861877441,477.5907666683197 652.6456031799316,493.62073493003845 "/>
    <path id="svg_64" fill="#eaeaea" d="m620.64563,487.81071l22.85,17.44s4,14.43 2,13.63s-57.33,38.08 -68.55,47.7s-21.92,-16.82 -14.37,-36.47s58.07,-42.3 58.07,-42.3z" class="cls-25"/>
    <polygon id="svg_65" fill="#b5b1b1" points="523.6256446838379,487.8107068538666 535.2556495666504,480.5907666683197 564.4256324768066,537.5907361507416 548.5456886291504,546.7507092952728 523.6256446838379,487.8107068538666 " class="cls-27"/>
    <polygon id="svg_66" fill="#eaeaea" points="617.4356422424316,453.9407422542572 633.1155738830566,442.3107373714447 650.3456764221191,452.26074957847595 659.1255836486816,487.8107068538666 645.4955787658691,500.0407178401947 620.6456031799316,487.8107068538666 617.4356422424316,453.9407422542572 " class="cls-25"/>
    <polygon id="svg_67" fill="#eaeaea" points="517.0156593322754,371.15076422691345 627.8556861877441,411.4407117366791 629.8655738830566,437.10071539878845 594.9856910705566,471.1807324886322 527.6356544494629,444.4307324886322 517.0156593322754,371.15076422691345 " class="cls-25"/>
    <polygon id="svg_68" points="519.1556739807129,385.9507520198822 620.7356910705566,419.2906873226166 629.8655738830566,437.10071539878845 627.8556861877441,411.4407117366791 517.0156593322754,371.15076422691345 519.1556739807129,385.9507520198822 "/>
    <polygon id="svg_69" fill="#dedee0" points="523.9956398010254,419.2906873226166 610.2156715393066,457.14075446128845 594.9856910705566,471.1807324886322 527.6356544494629,444.4307324886322 523.9956398010254,419.2906873226166 " class="cls-26"/>
    <polygon id="svg_70" fill="#eaeaea" points="519.4156837463379,376.4307324886322 519.1556739807129,449.3207471370697 467.70566177368164,532.3107068538666 436.4356117248535,543.1307141780853 414.18564224243164,474.5807569026947 519.4156837463379,376.4307324886322 " class="cls-25"/>
    <polygon id="svg_71" fill="#dedee0" points="519.2356910705566,415.0607373714447 431.45566177368164,527.7906873226166 436.4356117248535,543.1307141780853 467.70566177368164,532.3107068538666 519.1556739807129,449.3207471370697 519.2356910705566,415.0607373714447 " class="cls-26"/>
    <polygon id="svg_72" fill="#e20e3c" points="376.30563735961914,421.0607373714447 394.94565200805664,395.8107068538666 439.0456886291504,465.5607068538666 435.1356544494629,469.9407422542572 376.30563735961914,421.0607373714447 " class="cls-4"/>
    <polygon id="svg_73" fill="#fff" points="35.7556037902832,873.6606824398041 200.9156379699707,623.5107190608978 316.37558364868164,715.7107312679291 259.4455909729004,955.4407117366791 35.7556037902832,873.6606824398041 " class="cls-28"/>
    <path id="svg_74" fill="#fff" d="m320.22563,713.49071l-103.27,-86.77l-3,-28.27s93,-113 102.43,-125.07s10.62,-28.86 16,-34.88c2.91,-3.22 15.32,-8 26.21,-11.75c9.42,-3.23 34.59,8.35 34.59,8.35l48.24,40.08l4.81,47.31l40.33,78.32s-5,29.92 -26.7,52.37s-139.64,60.31 -139.64,60.31z" class="cls-28"/>
    <path id="svg_75" fill="#eaeaea" d="m486.58563,600.81071l-2.24,-4.37l-51.32,21.64s-51.31,-25.86 -68,-11s-37.87,6.82 -47.09,-7.13s-18.95,0 -18.95,0c-10.93,67 32.18,102.14 38.48,107.79l0,0c33.6,-11.45 105.9,-37.47 122.38,-54.55c21.69,-22.46 26.74,-52.38 26.74,-52.38z" class="cls-25"/>
    <path id="svg_76" fill="#eaeaea" d="m302.16563,511.05071s-2.87,12 -17.66,28.88s-28.08,22.51 -28.08,22.51s21.66,-3.46 33.89,-19.51s11.85,-31.88 11.85,-31.88z" class="cls-25"/>
    <polygon id="svg_77" points="436.6256446838379,471.1807324886322 439.0456886291504,481.8006970882416 440.7656593322754,518.7807385921478 445.97568130493164,519.7107312679291 441.4456214904785,475.1807324886322 436.6256446838379,471.1807324886322 "/>
    <path id="svg_78" d="m399.35563,680.03071c-31.27,11.63 -70.56,18.79 -70.56,18.79l8.71,8.91c33.6,-11.45 105.9,-37.47 122.38,-54.55a609.87,609.87 0 0 1 -60.53,26.85z"/>
    <path id="svg_79" d="m240.14563,566.58071l8.68,0l50.2,-60.43l0,-11.38c-16.32,19.97 -40.46,49.4 -58.88,71.81z"/>
    <path id="svg_80" fill="#eaeaea" d="m462.54563,650.27071c19.4,-22 24,-49.46 24,-49.46l-9.78,-19l-81.86,71s34.8,4.9 67.64,-2.54z" class="cls-25"/>
    <polygon id="svg_81" fill="#fff" points="400.1556739807129,428.28076910972595 394.94565200805664,395.8107068538666 481.83566665649414,323.0507276058197 499.92563247680664,321.46070075035095 527.6356544494629,357.3207471370697 527.6356544494629,376.4307324886322 448.26562881469727,465.5607068538666 439.0456886291504,465.5607068538666 400.1556739807129,428.28076910972595 " class="cls-28"/>
    <polygon id="svg_82" fill="#fff" points="550.4856910705566,356.5206983089447 533.6556739807129,353.7207715511322 505.18564224243164,318.4407117366791 509.59567642211914,302.00073981285095 597.3857154846191,254.70072150230408 611.8256568908691,258.71070075035095 627.8556861877441,287.9707715511322 625.8556861877441,305.6107861995697 550.4856910705566,356.5206983089447 " class="cls-28"/>
    <path id="svg_83" fill="#fff" d="m617.43563,256.70071l12.83,-13.26l76.33,-14.76a12.21,12.21 0 0 1 14.44,13.45l0,0a48.42,48.42 0 0 1 -32.77,40.11l-43.56,14.55l-12,-9.62l-15.27,-30.47z" class="cls-28"/>
    <path id="svg_84" fill="#fff" d="m382.31563,559.37071l136.5,-71.56l8.82,0l25.46,49.31s-2.06,13.32 -2.06,12.71s-120,95.53 -120,95.53l-48.72,-85.99z" class="cls-28"/>
    <path id="svg_85" fill="#fff" d="m535.25563,487.81071l0,-10.62s69.35,-39.69 87.79,-27.26s8,36.08 -3.21,48.1s-51.71,41.7 -51.71,41.7l-11.1,-6.41l-21.77,-45.51z" class="cls-28"/>
    <path id="svg_86" fill="#eaeaea" d="m431.02563,645.36071s120,-96.13 120,-95.53s2.06,-12.71 2.06,-12.71l-0.41,-0.79a24.84,24.84 0 0 0 5.09,-2.58l10.35,6s40.49,-29.67 51.71,-41.7c6.94,-7.43 13.56,-19.3 13.26,-30.22c-4.35,8.48 -12.91,22 -27.09,32.23c-22.24,16 -32.57,21.24 -32.57,21.24l-5.12,-13.13l-37.47,25.95l10.42,9l-85.39,62.54a192,192 0 0 0 -9.26,-19.71c-2.18,-3.81 -18.25,11.54 -32.43,29.66l16.85,29.75z" class="cls-25"/>
    <polygon id="svg_87" points="551.8855934143066,544.8207166194916 551.0356178283691,549.8307263851166 431.0256690979004,645.3606946468353 428.6156349182129,638.7406995296478 551.8855934143066,544.8207166194916 "/>
    <circle id="svg_88" fill="#e20e3c" r="47.84" cy="603.17071" cx="403.02563" class="cls-4"/>
    <circle id="svg_89" fill="#e20e3c" r="24.79" cy="513.12071" cx="544.02563" class="cls-4"/>
    <path id="svg_90" d="m542.37563,493.97071a22.23,22.23 0 0 1 20.43,31a22.23,22.23 0 1 0 -39.21,-20.65a22.21,22.21 0 0 1 18.78,-10.35z"/>
    <path id="svg_91" d="m400.08563,569.75071a41.45,41.45 0 0 1 38.09,57.82a41.44,41.44 0 1 0 -73.11,-38.49a41.41,41.41 0 0 1 35.02,-19.33z"/>
    <path id="svg_92" fill="#eaeaea" d="m300.02563,623.51071a107.56,107.56 0 0 1 146.59,-100.32l-0.36,-0.7l-0.48,-4.78a112.4,112.4 0 0 0 -111.31,191.06l5.3,-1.81a107.48,107.48 0 0 1 -39.74,-83.45z" class="cls-25"/>
    <rect id="svg_94" fill="#dedee0" height="4.81" width="141.82" y="698.9664" x="461.94921" class="cls-26"/>
    <rect id="svg_95" fill="#dedee0" height="4.81" width="117.12" y="726.431" x="457.60689" class="cls-26"/>
    <polygon id="svg_97" fill="#eaeaea" points="295.2156410217285,698.8207166194916 213.94560623168945,938.8107068538666 264.25558853149414,943.1007459163666 316.37558364868164,715.7107312679291 295.2156410217285,698.8207166194916 " class="cls-25"/>
    <path id="svg_98" fill="#eaeaea" d="m673.15563,543.13071l-8,-17.44l-80.32,92.41c21.52,-12.19 88.32,-74.97 88.32,-74.97z" class="cls-25"/>
    <path id="svg_99" fill="#dedee0" d="m642.70563,520.15071l-80.8,36.83c2.92,9.32 8.9,14.87 15,9.6c9.94,-8.48 54.16,-39.74 65.8,-46.43z" class="cls-26"/>
    <polygon id="svg_100" points="633.1155738830566,442.3107373714447 644.7956275939941,454.74073004722595 652.6456031799316,482.7007215023041 645.4955787658691,500.0407178401947 659.1255836486816,487.8107068538666 650.3456764221191,452.26074957847595 633.1155738830566,442.3107373714447 "/>
    <polygon id="svg_101" fill="#dedee0" points="550.4856910705566,356.5206983089447 625.8556861877441,305.6107861995697 627.8556861877441,287.9707715511322 533.6556739807129,353.7207715511322 550.4856910705566,356.5206983089447 " class="cls-26"/>
    <polygon id="svg_102" fill="#dedee0" points="527.6356544494629,376.4307324886322 527.6356544494629,357.3207471370697 439.0456886291504,465.5607068538666 448.26562881469727,465.5607068538666 527.6356544494629,376.4307324886322 " class="cls-26"/>
    <path id="svg_103" fill="#dedee0" d="m683.89563,271.94071c-18.35,6.61 -51.19,15.23 -51.19,15.23l12,9.62l43.57,-14.52a48.37,48.37 0 0 0 27.85,-24a313.07,313.07 0 0 1 -32.23,13.67z" class="cls-26"/>
    <path id="svg_104" d="m673.15563,543.13071l-1.56,-3.4l0,0l-50.81,50.54c25.25,-21.65 52.37,-47.14 52.37,-47.14z"/>
    <path id="svg_105" d="m683.89563,526.26071a15.54,15.54 0 0 0 -3.88,-10.28l-1.9,1.08a19,19 0 0 1 3.92,11.53a19.18,19.18 0 0 1 -1.41,7.21a15.54,15.54 0 0 0 3.27,-9.54z"/>
    <polygon id="svg_107" points="505.18564224243164,318.4407117366791 512.2156715393066,305.6107861995697 594.5856666564941,262.6307141780853 611.8256568908691,258.71070075035095 597.3857154846191,254.70072150230408 509.59567642211914,302.00073981285095 505.18564224243164,318.4407117366791 "/>
    <polygon id="svg_108" points="400.1556739807129,428.28076910972595 403.3656349182129,399.02075934410095 482.93564224243164,330.0607373714447 499.92563247680664,321.46070075035095 481.83566665649414,323.0507276058197 394.94565200805664,395.8107068538666 400.1556739807129,428.28076910972595 "/>
    <path id="svg_109" d="m358.61563,426.75071c-10.89,3.75 -23.3,8.53 -26.21,11.75c-5.41,6 -6.61,22.85 -16,34.88c-1.71,2.18 -6.16,7.67 -12.3,15.2l3.84,12.76l6.15,-13.53s19.14,-17 21.15,-28s5.21,-14.26 18,-22.68s40,-2 40,-2s-25.21,-11.61 -34.63,-8.38z"/>
    <path id="svg_110" d="m307.91563,500.04071a69.83,69.83 0 0 0 -1.49,-14.34c-1.25,1.54 -2.59,3.19 -4,4.92a65,65 0 0 1 -61,74.37l-4,4.88l0.62,0a69.94,69.94 0 0 0 69.87,-69.83z"/>
    <polygon id="svg_111" points="316.37558364868164,715.7107312679291 309.4255714416504,710.1706922054291 288.2056007385254,834.3506848812103 316.37558364868164,715.7107312679291 "/>
    <polygon id="svg_112" points="330.3055763244629,710.1706922054291 320.2256202697754,703.3907239437103 313.37558364868164,707.7306897640228 320.2256202697754,713.4906995296478 330.3055763244629,710.1706922054291 "/>
    <path id="svg_113" d="m382.98563,399.77071l1.41,-6.17c-0.69,0 -1.38,-0.09 -2.08,-0.09a36,36 0 0 0 -35.32,29a38.8,38.8 0 0 1 35.32,-22.79c0.23,0.02 0.45,0.04 0.67,0.05z"/>
    <polygon id="svg_114" points="234.74557876586914,573.1606824398041 241.8055763244629,573.1606824398041 220.15564346313477,601.4607312679291 216.9556007385254,626.7207410335541 213.94560623168945,598.4507215023041 234.74557876586914,573.1606824398041 "/>
    <polygon id="svg_115" points="213.94560623168945,633.9206922054291 35.7556037902832,873.6606824398041 200.9156379699707,623.5107190608978 213.94560623168945,633.9206922054291 "/>
    <path id="svg_116" d="m623.04563,449.93071c-18.44,-12.43 -87.79,27.26 -87.79,27.26l0,10.62s2.8,-7.42 3.81,-8.71s29.06,-11.93 50.71,-21.56s36.48,-5.1 36.48,-5.1a27.16,27.16 0 0 0 -3.21,-2.51z"/>
    <path id="svg_117" d="m529.22563,490.89071l0,0l-1.59,-3.08l-8.82,0l-136.5,71.56c11.83,0.4 135.77,-68.48 135.77,-68.48l11.14,0z"/>
    <path id="svg_118" fill="#eaeaea" d="m550.48563,356.52071l75.37,-50.91l0.67,-5.92l-0.67,0.21l-79,56l3.63,0.62z" class="cls-25"/>
    <polygon id="svg_119" fill="#eaeaea" points="527.6356544494629,368.6807324886322 527.5356788635254,368.75073981285095 444.2556495666504,465.5607068538666 448.26562881469727,465.5607068538666 527.6356544494629,376.4307324886322 527.6356544494629,368.6807324886322 " class="cls-25"/>
    <path id="svg_120" fill="#eaeaea" d="m688.26563,282.27071a48.31,48.31 0 0 0 22.68,-15.94a205.42,205.42 0 0 1 -23.46,12.47c-9.23,4.28 -30.34,11.25 -45.28,16l2.49,2l43.57,-14.53z" class="cls-25"/>
    <path id="svg_121" d="m506.70563,302.28071a17.53,17.53 0 0 0 -23.74,15.33a17.54,17.54 0 0 1 22.5,-12l1.24,-3.33z"/>
    <path id="svg_123" d="m619.83563,498.03071a52.65,52.65 0 0 0 12.25,-21.75l0,0s-11,18.17 -24.27,29s-43.39,32.34 -43.39,32.34l3.7,2.14s40.49,-29.7 51.71,-41.73z"/>
    <path id="svg_124" d="m645.40563,513.12071s-50.34,35.67 -57.8,45.17l0,0c19.85,-14.81 56.26,-40.06 57.88,-39.41c0.94,0.37 0.57,-2.54 -0.08,-5.76z"/>
    <rect id="svg_125" fill="#d2212f" ry="2.56" rx="2.56" height="98.91" width="98.91" y="214.31071" x="283.70563" class="cls-4"/>
    <rect id="svg_126" fill="#fff" ry="1.52" rx="1.52" height="68.05" width="68.05" y="229.74071" x="297.60718" class="cls-28"/>
    <path id="svg_131" d="m303.28563,327.20071l0,0a4.17,4.17 0 0 1 -4.17,-4.17l0,-14.09a4.17,4.17 0 0 1 4.17,-4.17l0,0a4.17,4.17 0 0 1 4.17,4.17l0,14.09a4.17,4.17 0 0 1 -4.17,4.17z"/>
    <path id="svg_132" d="m323.20563,327.20071l0,0a4.17,4.17 0 0 1 -4.17,-4.17l0,-14.09a4.17,4.17 0 0 1 4.17,-4.17l0,0a4.17,4.17 0 0 1 4.17,4.17l0,14.09a4.17,4.17 0 0 1 -4.17,4.17z"/>
    <path id="svg_133" d="m343.12563,327.20071l0,0a4.18,4.18 0 0 1 -4.18,-4.17l0,-14.09a4.18,4.18 0 0 1 4.18,-4.17l0,0a4.17,4.17 0 0 1 4.17,4.17l0,14.09a4.17,4.17 0 0 1 -4.17,4.17z"/>
    <path id="svg_134" d="m363.04563,327.20071l0,0a4.18,4.18 0 0 1 -4.18,-4.17l0,-14.09a4.18,4.18 0 0 1 4.18,-4.17l0,0a4.17,4.17 0 0 1 4.17,4.17l0,14.09a4.17,4.17 0 0 1 -4.17,4.17z"/>
    <path id="svg_138" d="m374.16563,293.64071l0,0a4.18,4.18 0 0 1 4.18,-4.17l14.08,0a4.17,4.17 0 0 1 4.17,4.17l0,0a4.17,4.17 0 0 1 -4.17,4.18l-14.08,0a4.18,4.18 0 0 1 -4.18,-4.18z"/>
    <path id="svg_142" d="m269.70563,293.64071l0,0a4.18,4.18 0 0 1 4.2,-4.2l14.08,0a4.17,4.17 0 0 1 4.17,4.17l0,0a4.18,4.18 0 0 1 -4.17,4.18l-14.08,0a4.18,4.18 0 0 1 -4.2,-4.15z"/>
    <rect id="svg_143" fill="#e20e3c" ry="2.56" rx="2.56" height="76.84" width="76.84" y="499.99071" x="761.35563" class="cls-4"/>
    <rect id="svg_144" fill="#fff" ry="1.52" rx="1.52" height="52.86" width="52.86" y="511.98071" x="773.34563" class="cls-28"/>
    <path id="svg_145" d="m776.56563,506.56071l0,0a3.24,3.24 0 0 1 -3.24,-3.24l0,-10.94a3.25,3.25 0 0 1 3.24,-3.25l0,0a3.26,3.26 0 0 1 3.25,3.25l0,10.94a3.25,3.25 0 0 1 -3.25,3.24z"/>
    <path id="svg_146" d="m792.04563,506.56071l0,0a3.24,3.24 0 0 1 -3.24,-3.24l0,-10.94a3.25,3.25 0 0 1 3.24,-3.25l0,0a3.25,3.25 0 0 1 3.24,3.25l0,10.94a3.24,3.24 0 0 1 -3.24,3.24z"/>
    <path id="svg_147" d="m807.51563,506.56071l0,0a3.24,3.24 0 0 1 -3.24,-3.24l0,-10.94a3.25,3.25 0 0 1 3.24,-3.25l0,0a3.25,3.25 0 0 1 3.24,3.25l0,10.94a3.24,3.24 0 0 1 -3.24,3.24z"/>
    <path id="svg_148" d="m822.99563,506.56071l0,0a3.25,3.25 0 0 1 -3.25,-3.24l0,-10.94a3.26,3.26 0 0 1 3.25,-3.25l0,0a3.25,3.25 0 0 1 3.24,3.25l0,10.94a3.24,3.24 0 0 1 -3.24,3.24z"/>
    <path id="svg_149" d="m776.56563,587.70071l0,0a3.25,3.25 0 0 1 -3.24,-3.25l0,-10.94a3.24,3.24 0 0 1 3.24,-3.24l0,0a3.25,3.25 0 0 1 3.25,3.24l0,10.93a3.26,3.26 0 0 1 -3.25,3.26z"/>
    <path id="svg_150" d="m792.04563,587.70071l0,0a3.25,3.25 0 0 1 -3.24,-3.25l0,-10.94a3.24,3.24 0 0 1 3.24,-3.24l0,0a3.24,3.24 0 0 1 3.24,3.24l0,10.93a3.25,3.25 0 0 1 -3.24,3.26z"/>
    <path id="svg_151" d="m807.51563,587.70071l0,0a3.25,3.25 0 0 1 -3.24,-3.25l0,-10.94a3.24,3.24 0 0 1 3.24,-3.24l0,0a3.24,3.24 0 0 1 3.24,3.24l0,10.93a3.25,3.25 0 0 1 -3.24,3.26z"/>
    <path id="svg_152" d="m822.99563,587.70071l0,0a3.26,3.26 0 0 1 -3.29,-3.26l0,-10.93a3.25,3.25 0 0 1 3.25,-3.24l0,0a3.24,3.24 0 0 1 3.24,3.24l0,10.93a3.25,3.25 0 0 1 -3.2,3.26z"/>
    <path id="svg_153" d="m831.63563,515.20071l0,0a3.24,3.24 0 0 1 3.24,-3.24l10.94,0a3.25,3.25 0 0 1 3.25,3.24l0,0a3.26,3.26 0 0 1 -3.25,3.25l-10.94,0a3.25,3.25 0 0 1 -3.24,-3.25z"/>
    <path id="svg_154" d="m831.63563,530.68071l0,0a3.24,3.24 0 0 1 3.24,-3.24l10.94,0a3.25,3.25 0 0 1 3.25,3.24l0,0a3.25,3.25 0 0 1 -3.25,3.24l-10.94,0a3.24,3.24 0 0 1 -3.24,-3.24z"/>
    <path id="svg_155" d="m831.63563,546.15071l0,0a3.24,3.24 0 0 1 3.24,-3.24l10.94,0a3.25,3.25 0 0 1 3.25,3.24l0,0a3.25,3.25 0 0 1 -3.25,3.24l-10.94,0a3.24,3.24 0 0 1 -3.24,-3.24z"/>
    <path id="svg_156" d="m831.63563,561.63071l0,0a3.25,3.25 0 0 1 3.24,-3.25l10.94,0a3.26,3.26 0 0 1 3.25,3.25l0,0a3.25,3.25 0 0 1 -3.25,3.24l-10.94,0a3.24,3.24 0 0 1 -3.24,-3.24z"/>
    <path id="svg_157" d="m750.49563,515.20071l0,0a3.24,3.24 0 0 1 3.25,-3.24l10.96,0a3.24,3.24 0 0 1 3.24,3.24l0,0a3.25,3.25 0 0 1 -3.24,3.24l-11,0a3.25,3.25 0 0 1 -3.21,-3.24z"/>
    <path id="svg_158" d="m750.49563,530.68071l0,0a3.24,3.24 0 0 1 3.21,-3.24l11,0a3.24,3.24 0 0 1 3.24,3.24l0,0a3.24,3.24 0 0 1 -3.24,3.24l-11,0a3.24,3.24 0 0 1 -3.21,-3.24z"/>
    <path id="svg_159" d="m750.49563,546.15071l0,0a3.24,3.24 0 0 1 3.25,-3.24l10.96,0a3.24,3.24 0 0 1 3.24,3.24l0,0a3.24,3.24 0 0 1 -3.24,3.29l-11,0a3.24,3.24 0 0 1 -3.21,-3.29z"/>
    <path id="svg_160" d="m750.49563,561.63071l0,0a3.25,3.25 0 0 1 3.25,-3.25l10.96,0a3.25,3.25 0 0 1 3.24,3.25l0,0a3.24,3.24 0 0 1 -3.24,3.24l-11,0a3.24,3.24 0 0 1 -3.21,-3.24z"/>
   </g>
  </g>
 </g>
</svg>