<?xml version="1.0" encoding="utf-8"?>
<!-- Generator: Adobe Illustrator 27.5.0, SVG Export Plug-In . SVG Version: 6.00 Build 0)  -->
<svg version="1.1" id="Layer_1" xmlns="http://www.w3.org/2000/svg" xmlns:xlink="http://www.w3.org/1999/xlink" x="0px" y="0px"
	 viewBox="0 0 3000 3000" style="enable-background:new 0 0 3000 3000;" xml:space="preserve">
<path style="fill:#FFFFFF;" d="M1790.13,1783.4c-128.89,42.85,86.04,245.76,86.04,245.76S1918.83,1740.56,1790.13,1783.4z"/>
<path style="fill:#494752;" d="M1876.17,2033.64c-1.14-0.03-2.22-0.47-3.05-1.25c-24.84-24.02-48.07-49.65-69.55-76.72
	c-45.35-57.72-64.71-103.07-57.72-134.8c4.3-19.72,18.64-33.7,42.84-41.59l1.44,4.12l-1.44-4.12c24.2-8.07,44.46-5.56,60.23,7.71
	c25.28,21.15,38.18,68.65,38.54,141.07c-0.08,33.99-2.36,67.94-6.81,101.64c-0.16,0.81-0.53,1.56-1.06,2.19
	c-0.53,0.63-1.22,1.11-1.99,1.4L1876.17,2033.64z M1814.5,1783.58c-7.87,0.17-15.67,1.56-23.12,4.13
	c-21.15,6.99-33.16,18.46-36.75,35.13c-6.27,28.5,13.09,72.42,55.93,127.27c19.4,24.4,40.23,47.62,62.38,69.55
	c4.48-37.64,18.82-184.99-29.75-225.86C1835.17,1787.05,1824.98,1783.43,1814.5,1783.58z"/>
<path style="fill:#FFFFFF;" d="M2008.82,1717.62c-185.71-71.88-132.29,358.51-132.29,358.51S2194.71,1789.68,2008.82,1717.62z"/>
<path style="fill:#494752;" d="M1876.53,2080.61l-1.44-0.36c-0.76-0.26-1.44-0.74-1.95-1.38c-0.51-0.63-0.82-1.4-0.91-2.2
	c-5.71-50.28-8.05-100.89-7-151.48c2.69-107.01,22.95-176.02,59.88-204.88c22.76-17.75,51.44-20.08,85.32-6.82
	c33.88,13.27,54.5,34.6,59.69,63.64c8.61,46.79-20.97,112.03-87.83,193.78c-31.74,38.44-66.05,74.67-102.72,108.45
	c-0.37,0.42-0.85,0.76-1.37,0.97C1877.67,2080.55,1877.1,2080.65,1876.53,2080.61z M1970.1,1714.03
	c-14.27-0.19-28.18,4.49-39.44,13.27c-75.28,58.79-55.57,291.11-50.55,339.51c34.96-32.99,198.8-192.88,181.23-288.07
	c-4.66-25.63-22.94-44.81-54.13-57C1993.94,1716.72,1981.57,1714.03,1970.1,1714.03z"/>
<path style="fill:#494752;" d="M1876.53,2080.61l-1.44-0.36c-0.57-0.18-1.09-0.47-1.54-0.86c-0.45-0.39-0.81-0.87-1.06-1.41
	s-0.39-1.13-0.41-1.72c-0.01-0.6,0.1-1.19,0.32-1.74l132.29-358.51c0.44-1.09,1.29-1.96,2.36-2.43c1.07-0.47,2.29-0.5,3.38-0.08
	c0.57,0.17,1.09,0.47,1.54,0.86c0.45,0.39,0.81,0.87,1.06,1.41c0.26,0.54,0.39,1.13,0.41,1.72c0.01,0.6-0.1,1.19-0.32,1.74
	l-132.29,358.33c-0.31,0.9-0.88,1.68-1.66,2.23C1878.4,2080.34,1877.47,2080.62,1876.53,2080.61z"/>
<path style="fill:#87BF2E;" d="M1823.47,2016.98l9.32,85.32l5.38,48.22h112.93l5.37-48.22l9.51-85.32H1823.47z"/>
<path style="fill:#87BF2E;" d="M1955.22,2155h-121l-15.77-142.51h152.54L1955.22,2155z M1842.29,2146.04h104.86l13.81-124.58
	h-132.47L1842.29,2146.04z"/>
<path style="fill:#FFFFFF;" d="M1166.85,2095.31h-49.65v-46.07h-112.75v46.07h-49.659c-14.041,0-27.51,5.57-37.455,15.48
	c-9.946,9.91-15.557,23.36-15.605,37.4v2.33h318.179v-2.33c0-6.96-1.37-13.85-4.04-20.28c-2.67-6.42-6.58-12.26-11.51-17.17
	c-4.93-4.92-10.78-8.81-17.22-11.46C1180.71,2096.64,1173.81,2095.29,1166.85,2095.31z"/>
<path style="fill:#F56C49;" d="M1224.39,2155H897.25v-6.81c0.047-15.23,6.131-29.82,16.917-40.57s25.394-16.79,40.624-16.79h45.173
	v-46.07h121.716v46.07h45.17c15.23,0,29.84,6.04,40.63,16.79c10.78,10.75,16.86,25.34,16.91,40.57V2155z M906.213,2146.04h309.217
	c-0.64-12.46-6.04-24.2-15.07-32.8c-9.04-8.61-21.03-13.42-33.51-13.45h-54.13v-46.07h-103.79v46.07h-54.139
	c-12.477,0.03-24.468,4.84-33.505,13.45C912.25,2121.84,906.855,2133.58,906.213,2146.04z"/>
<path style="fill:#F56C49;" d="M1525.72,1939.36v13.26c0,27.96-11.1,54.77-30.87,74.53c-19.77,19.77-46.58,30.87-74.53,30.87
	H701.324c-27.954,0-54.764-11.1-74.53-30.87c-19.767-19.76-30.872-46.57-30.872-74.53v-13.26H1525.72z"/>
<path style="fill:#F56C49;" d="M1420.32,2062.51H701.324c-29.128-0.05-57.05-11.64-77.647-32.24
	c-20.597-20.6-32.189-48.52-32.237-77.65v-17.74h938.76v17.74c-0.04,29.13-11.64,57.05-32.23,77.65
	C1477.37,2050.87,1449.45,2062.46,1420.32,2062.51z M600.403,1943.84v8.78c0.048,26.75,10.696,52.39,29.612,71.31
	c18.916,18.92,44.558,29.57,71.309,29.61h718.996c26.75-0.04,52.39-10.69,71.31-29.61c18.92-18.92,29.56-44.56,29.61-71.31v-8.78
	H600.403z"/>
<path style="fill:#FFFFFF;" d="M1525.72,1527.43v411.93H595.922v-411.93c0-27.96,11.105-54.77,30.872-74.53
	c19.766-19.77,46.576-30.87,74.53-30.87h718.996c27.95,0,54.76,11.1,74.53,30.87C1514.62,1472.66,1525.72,1499.47,1525.72,1527.43z"
	/>
<path style="fill:#F56C49;" d="M1530.2,1943.84H591.44v-416.41c0.048-29.13,11.64-57.05,32.237-77.65s48.519-32.19,77.647-32.24
	h718.996c29.13,0.05,57.05,11.64,77.65,32.24c20.59,20.6,32.19,48.52,32.23,77.65V1943.84z M600.403,1934.88h920.837v-407.45
	c-0.05-26.75-10.69-52.4-29.61-71.31c-18.92-18.92-44.56-29.57-71.31-29.61H701.324c-26.751,0.04-52.393,10.69-71.309,29.61
	c-18.916,18.91-29.564,44.56-29.612,71.31V1934.88z"/>
<path style="fill:#494752;" d="M1497.94,1528.14v384.33H623.706v-384.33c-0.023-10.6,2.047-21.1,6.092-30.89
	c4.046-9.8,9.987-18.7,17.482-26.2c7.495-7.49,16.397-13.43,26.194-17.48c9.798-4.04,20.298-6.11,30.897-6.09h712.899
	c10.6-0.02,21.1,2.05,30.9,6.09c9.8,4.05,18.7,9.99,26.19,17.48c7.5,7.5,13.44,16.4,17.49,26.2
	C1495.89,1507.04,1497.96,1517.54,1497.94,1528.14z"/>
<path style="fill:#494752;" d="M1497.94,1916.95H623.706c-1.189,0-2.328-0.47-3.169-1.31c-0.84-0.84-1.312-1.98-1.312-3.17v-384.33
	c0-22.58,8.97-44.24,24.938-60.21c15.969-15.96,37.626-24.93,60.208-24.93h712.899c22.58,0,44.24,8.97,60.21,24.93
	c15.97,15.97,24.94,37.63,24.94,60.21v384.33c0,1.19-0.47,2.33-1.31,3.17S1499.13,1916.95,1497.94,1916.95z M628.187,1907.99
	h865.273v-379.85c0-20.2-8.03-39.58-22.32-53.87c-14.28-14.28-33.66-22.31-53.87-22.31H704.371
	c-20.19,0.05-39.541,8.09-53.818,22.36c-14.277,14.28-22.318,33.63-22.366,53.82V1907.99z"/>
<path style="fill:#FFFFFF;" d="M2052.56,2150.52H458.073v36.98H2052.56V2150.52z"/>
<path style="fill:#494752;" d="M2052.56,2191.93H458.073c-1.188,0-2.328-0.47-3.169-1.31c-0.84-0.84-1.312-1.98-1.312-3.17v-36.93
	c0-1.19,0.472-2.33,1.312-3.17c0.841-0.84,1.981-1.31,3.169-1.31H2052.56c1.18,0,2.32,0.47,3.16,1.31c0.84,0.84,1.32,1.98,1.32,3.17
	v36.93c0,1.19-0.48,2.33-1.32,3.17C2054.88,2191.46,2053.74,2191.93,2052.56,2191.93z M462.555,2182.97H2048.07V2155H462.555
	V2182.97z"/>
<path style="fill:#FFFFFF;" d="M1845.87,2368.14v-179.97h37.83v179.97H1845.87z"/>
<path style="fill:#494752;" d="M1888.18,2368.14h-8.96v-175.49h-28.86v175.49h-8.97v-184.46h46.79V2368.14z"/>
<path style="fill:#FFFFFF;" d="M644.141,2368.14v-179.97h38.002v179.97H644.141z"/>
<path style="fill:#494752;" d="M686.624,2368.14h-8.963v-175.49h-29.039v175.49h-8.963v-184.46h46.965V2368.14z"/>
<path style="fill:#FFFFFF;" d="M1060.91,2029.7c15.74,0,28.5-12.76,28.5-28.5s-12.76-28.5-28.5-28.5s-28.5,12.76-28.5,28.5
	S1045.17,2029.7,1060.91,2029.7z"/>
<path style="fill:#F56C49;" d="M380.267,1520l-153.312-45.42l-45.403,153.28l153.312,45.41L380.267,1520z"/>
<path style="fill:#F56C49;" d="M339.047,1678.72L177,1630.86l47.861-161.87l162.048,47.86L339.047,1678.72z M188.293,1624.76
	l144.66,42.84l42.663-144.83l-144.66-42.67L188.293,1624.76z"/>
<path style="fill:#87BF2E;" d="M331.154,1456.19l-28.875-8.55l-23.989,80.99l28.875,8.55L331.154,1456.19z"/>
<path style="fill:#87BF2E;" d="M311.262,1542.66l-37.464-11.11l26.53-89.63l37.464,11.12L311.262,1542.66z M284.912,1525.46
	l20.256,5.91l21.51-72.42l-20.256-5.91L284.912,1525.46z"/>
<path style="fill:#87BF2E;" d="M401.361,1855.47l-153.501,44.77l44.761,153.47l153.501-44.77L401.361,1855.47z"/>
<path style="fill:#87BF2E;" d="M294.414,2056.05l-47.683-161.87l162.048-47.68l47.682,161.87L294.414,2056.05z M257.845,1900.1
	l42.663,144.84l144.839-42.66l-42.663-144.66L257.845,1900.1z"/>
<path style="fill:#F56C49;" d="M329.879,1825.01l-28.89,8.5l23.848,81.03l28.89-8.5L329.879,1825.01z"/>
<path style="fill:#F56C49;" d="M321.838,1920.18l-26.351-89.63l37.465-11.12l26.35,89.63L321.838,1920.18z M306.601,1836.64
	l21.332,72.42l20.256-6.09l-21.332-72.42L306.601,1836.64z"/>
<path style="fill:#F56C49;" d="M297.46,2054.98h-1.434c-1.122-0.41-2.044-1.23-2.578-2.3c-0.533-1.07-0.637-2.3-0.29-3.44
	l23.661-68.3c0.368-1.03,1.099-1.89,2.056-2.41c0.958-0.53,2.076-0.69,3.143-0.45l73.674,17.92l23.483-84.43
	c0.145-0.58,0.406-1.12,0.766-1.6c0.36-0.48,0.812-0.88,1.33-1.18c0.519-0.31,1.092-0.5,1.686-0.57
	c0.594-0.08,1.198-0.04,1.774,0.13c1.141,0.33,2.104,1.1,2.675,2.14c0.571,1.05,0.706,2.27,0.373,3.41l-24.558,88.73
	c-0.334,1.12-1.071,2.06-2.065,2.66c-0.995,0.59-2.176,0.8-3.313,0.57l-74.033-18.1l-22.048,64.35c-0.333,0.86-0.926,1.6-1.696,2.12
	C299.296,2054.74,298.385,2055,297.46,2054.98z"/>
<path style="fill:#F56C49;" d="M297.461,1953.7c7.92,0,14.34-6.42,14.34-14.34s-6.42-14.34-14.34-14.34s-14.341,6.42-14.341,14.34
	S289.541,1953.7,297.461,1953.7z"/>
<path style="fill:#494752;" d="M317.357,1614.37h-1.254l-100.563-29.76c-0.565-0.16-1.092-0.44-1.551-0.81
	c-0.459-0.36-0.841-0.82-1.123-1.34c-0.283-0.51-0.462-1.08-0.526-1.66c-0.064-0.59-0.012-1.18,0.153-1.75
	c0.164-0.56,0.439-1.09,0.807-1.55c0.369-0.46,0.824-0.84,1.34-1.12s1.083-0.46,1.668-0.53c0.585-0.06,1.177-0.01,1.742,0.16
	l100.562,29.75c1.141,0.34,2.103,1.11,2.675,2.15c0.571,1.04,0.705,2.27,0.373,3.41c-0.303,0.9-0.883,1.68-1.656,2.22
	C319.231,1614.09,318.305,1614.38,317.357,1614.37z"/>
<path style="fill:#494752;" d="M279.713,1630.32h-1.255l-70.269-20.79c-1.141-0.34-2.103-1.11-2.674-2.15
	c-0.572-1.04-0.706-2.27-0.373-3.41c0.333-1.14,1.105-2.1,2.147-2.68c1.043-0.57,2.269-0.7,3.41-0.37l70.268,20.8
	c0.565,0.16,1.092,0.43,1.551,0.8c0.459,0.37,0.841,0.83,1.124,1.34c0.283,0.52,0.462,1.09,0.525,1.67
	c0.064,0.59,0.013,1.18-0.152,1.74c-0.303,0.9-0.883,1.68-1.656,2.23C281.586,1630.04,280.66,1630.33,279.713,1630.32z"/>
<path style="fill:#FFFFFF;" d="M1348.62,954.167l46.96-91.242c0.88-2.392,2.22-4.587,3.95-6.46c1.73-1.872,3.81-3.384,6.13-4.45
	c2.31-1.066,4.82-1.664,7.36-1.761c2.55-0.096,5.09,0.311,7.48,1.199l6.45,2.33c4.85,1.813,8.78,5.472,10.93,10.177
	c2.15,4.704,2.34,10.069,0.54,14.919l-39.07,107.554L1348.62,954.167z"/>
<path style="fill:#494752;" d="M1399.35,990.913l-1.44-0.358c-1.11-0.405-2.03-1.236-2.53-2.312c-0.5-1.075-0.56-2.307-0.16-3.424
	l39.08-107.375c1.4-3.732,1.26-7.865-0.39-11.494c-1.65-3.629-4.66-6.457-8.39-7.865l-6.46-2.51c-3.75-1.269-7.85-1.077-11.47,0.538
	c-1.82,0.79-3.46,1.946-4.81,3.395c-1.36,1.449-2.41,3.161-3.08,5.03c0,0.179-0.17,0.179-0.17,0.358l-46.97,91.242
	c-0.54,1.032-1.45,1.815-2.56,2.183c-1.1,0.368-2.31,0.292-3.35-0.211c-0.54-0.266-1.01-0.636-1.4-1.088
	c-0.39-0.452-0.69-0.977-0.87-1.545c-0.19-0.568-0.25-1.166-0.2-1.761c0.05-0.594,0.22-1.173,0.49-1.701l46.79-90.883
	c1.09-2.916,2.74-5.588,4.86-7.865c2.12-2.276,4.68-4.111,7.51-5.4c5.78-2.584,12.35-2.777,18.28-0.538l6.46,2.331
	c5.93,2.256,10.74,6.751,13.38,12.518c2.65,5.767,2.93,12.344,0.78,18.314l-39.08,107.374c-0.33,0.883-0.91,1.647-1.68,2.191
	C1401.2,990.6,1400.29,990.899,1399.35,990.913z"/>
<path style="fill:#87BF2E;" d="M1359.19,1062.62c-51.26,11.11-79.41,3.94-88.73-5.92c0,0,63.28,327.68,115.44,440.08
	c52.17,112.39,285.74,412.28,419.46,332.69c174.78-104.14,76.72-164.73,76.72-164.73s-320.33-266.91-329.65-293.98
	c-9.32-27.07-99.66-299.72-113.47-347.76C1422.83,1041.11,1410.64,1051.5,1359.19,1062.62z"/>
<path style="fill:#87BF2E;" d="M1755.71,1847.22c-14.3-0.18-28.5-2.48-42.13-6.81c-40.51-12.55-108.09-49.12-199.51-152.37
	c-63.99-72.24-112.57-147.17-132.11-189.3c-51.98-111.67-115.26-437.92-115.98-441.14l-2.87-15.24l10.58,11.29
	c8.25,8.79,35.31,15.24,84.61,4.66c49.29-10.57,62.2-21.33,77.26-38.36l5.38-6.09l2.33,7.88c13.8,48.22,103.61,319.8,113.46,347.58
	c6.46,19,199.7,184.82,328.04,291.65c3.23,2.15,29.4,20.08,29.22,52.52c-0.36,37.65-36.21,77.98-106.3,119.75
	C1791.98,1842.59,1773.99,1847.42,1755.71,1847.22z M1276.92,1066.38c11.29,57,66.86,329.11,113.11,428.42
	c19.36,41.77,67.22,115.62,130.67,187.32c49.84,56.11,124.05,127.63,195.39,149.68c33.52,10.22,62.74,8.25,86.94-6.27
	c66.33-39.44,101.64-78.34,102-112.04c0.18-28.86-25.1-44.81-25.28-44.99l-0.53-0.36c-32.81-27.42-321.41-268.52-331.09-295.77
	s-91.96-276.41-111.32-340.59c-15.23,15.96-31.01,25.46-76.54,35.32S1289.11,1072.12,1276.92,1066.38z"/>
<path style="fill:#FFFFFF;" d="M1257.73,815.601c12.55-2.33,18.83,10.397,21.52,19.539l17.38,86.043l54.5-20.256l-11.83-84.788
	c-0.78-2.994-0.35-6.171,1.2-8.851c1.54-2.68,4.07-4.65,7.04-5.489l5.56-1.614c4.35-1.284,9.03-0.8,13.02,1.348
	c4,2.149,6.98,5.787,8.31,10.125c0,0,24.02,102.893,27.61,122.432c2.68,13.623,6.09,33.162,8.6,58.437
	c0.97,6.592,2.35,13.113,4.12,19.543c2.15,8.24,4.84,18.1,8.07,29.04c-14.52,8.24-37.29,16.31-63.64,21.51
	c-26.35,5.19-47.86,6.63-64.17,5.02l-6.81-30.12l-44.1-197.898C1242.5,833.348,1245.19,817.932,1257.73,815.601z"/>
<path style="fill:#494752;" d="M1308.11,1072.65c-4.84,0-9.33-0.17-13.63-0.53c-0.96-0.07-1.88-0.46-2.59-1.11
	c-0.72-0.65-1.19-1.52-1.35-2.48l-50.91-228.012c-1.22-7.088,0.25-14.375,4.12-20.435c1.48-2.324,3.42-4.319,5.7-5.861
	c2.28-1.542,4.86-2.598,7.57-3.102c11.83-2.151,21.51,6.095,26.53,22.765v0.359l16.31,81.023l46.07-17.208l-11.3-81.203
	c-0.93-4.083-0.27-8.371,1.87-11.975c2.13-3.604,5.57-6.248,9.61-7.385l5.55-1.613c2.72-0.825,5.58-1.104,8.41-0.82
	c2.82,0.284,5.56,1.125,8.06,2.475c2.5,1.35,4.71,3.182,6.5,5.39s3.12,4.749,3.92,7.475v0.358
	c1.08,4.123,24.02,103.072,27.79,122.432c2.69,14.341,6.09,34.059,8.6,58.796c0.89,6.414,2.21,12.761,3.95,19.001
	c2.15,7.89,4.84,17.75,8.06,29.04c0.25,0.96,0.17,1.97-0.22,2.87c-0.39,0.91-1.07,1.67-1.93,2.15
	c-15.42,8.78-39.08,16.85-64.89,22.05C1342.85,1070.55,1325.51,1072.41,1308.11,1072.65z M1298.6,1063.33
	c16.14,1.26,37.83-0.71,59.7-5.02c21.87-4.3,44.63-11.65,59.15-19.36c-2.69-9.85-5.2-18.46-6.99-25.81
	c-1.87-6.65-3.3-13.418-4.3-20.255c-2.33-24.558-5.74-43.917-8.43-57.899c-3.58-19.001-26.53-117.772-27.6-122.074
	c-1-3.196-3.21-5.873-6.16-7.45c-2.95-1.577-6.41-1.927-9.62-0.975l-5.55,1.614c-1.85,0.544-3.42,1.777-4.39,3.445
	c-0.97,1.667-1.26,3.642-0.81,5.517v0.359l12.01,84.967c0.11,1.009-0.11,2.028-0.62,2.902c-0.52,0.873-1.31,1.554-2.25,1.938
	l-54.49,20.256c-0.62,0.207-1.28,0.282-1.92,0.22c-0.65-0.062-1.28-0.259-1.85-0.578c-0.6-0.281-1.13-0.706-1.54-1.237
	c-0.41-0.53-0.68-1.152-0.79-1.811l-17.21-85.863c-2.15-6.991-6.99-18.105-16.31-16.313c-1.5,0.285-2.93,0.878-4.2,1.742
	c-1.26,0.864-2.34,1.98-3.15,3.278c-2.56,4.047-3.58,8.885-2.87,13.623L1298.6,1063.33z"/>
<path style="fill:#FFFFFF;" d="M1414.76,1012.06c2.15,8.25,4.84,18.11,8.07,29.04c11.11-6.27,17.21-12.72,16.13-18.1
	C1437.89,1017.62,1428.74,1013.5,1414.76,1012.06z"/>
<path style="fill:#494752;" d="M1422.83,1045.59h-1.79c-0.63-0.27-1.19-0.69-1.63-1.22c-0.43-0.53-0.74-1.16-0.88-1.83
	c-3.23-11.29-5.92-21.15-8.07-29.22c-0.17-0.68-0.18-1.39-0.02-2.08c0.15-0.68,0.47-1.32,0.92-1.86c0.49-0.55,1.1-0.99,1.78-1.27
	c0.69-0.28,1.42-0.39,2.16-0.35c17.09,1.8,26.41,6.64,27.96,14.52c1.62,7.53-4.66,15.24-18.28,22.95
	C1424.3,1045.51,1423.56,1045.63,1422.83,1045.59z M1420.86,1017.44c1.25,5.02,2.87,10.76,4.66,16.85
	c7.53-5.19,9.32-8.96,8.96-10.39C1434.12,1022.46,1430.9,1019.24,1420.86,1017.44z"/>
<path style="fill:#FFFFFF;" d="M1270.46,1056.7c1.08,5.92,10.4,9.5,24.56,10.94l-6.81-30.12
	C1276.02,1044.15,1269.21,1050.97,1270.46,1056.7z"/>
<path style="fill:#494752;" d="M1295.02,1072.12h-0.54c-17.21-1.62-26.89-6.63-28.5-14.52c-1.43-7.89,5.2-15.96,20.08-24.02
	c0.61-0.32,1.28-0.48,1.97-0.48c0.68,0,1.36,0.16,1.97,0.48c0.67,0.23,1.28,0.63,1.75,1.17c0.47,0.53,0.79,1.18,0.94,1.88
	l6.63,29.93c0.18,0.7,0.18,1.42-0.01,2.12c-0.19,0.69-0.56,1.32-1.06,1.82c-0.36,0.52-0.85,0.94-1.41,1.22
	C1296.28,1072.01,1295.65,1072.14,1295.02,1072.12z M1274.76,1055.81c0.36,1.79,3.95,4.84,14.34,6.63l-3.94-17.93
	C1276.56,1050.07,1274.41,1054.19,1274.76,1055.81z"/>
<path style="fill:#FFFFFF;" d="M1320.65,928.711l-13.08-120.281c-0.73-2.992-0.28-6.147,1.26-8.816
	c1.53-2.669,4.03-4.646,6.98-5.524l5.56-1.614c4.37-1.29,9.08-0.811,13.1,1.335c4.03,2.146,7.05,5.787,8.41,10.138l21.51,119.026
	L1320.65,928.711z"/>
<path style="fill:#494752;" d="M1320.65,933.193c-1.11,0.051-2.2-0.332-3.03-1.068c-0.84-0.735-1.36-1.766-1.45-2.875
	l-13.08-120.102c-0.85-4.076-0.15-8.324,1.97-11.907c2.13-3.583,5.51-6.242,9.5-7.452l5.56-1.614c2.73-0.828,5.59-1.109,8.43-0.827
	c2.84,0.282,5.6,1.122,8.11,2.47c2.52,1.349,4.74,3.181,6.55,5.391c1.8,2.209,3.15,4.753,3.97,7.486v0.538l21.51,119.026
	c0.21,1.164-0.05,2.364-0.72,3.338c-0.67,0.974-1.7,1.642-2.86,1.86c-1.16,0.164-2.34-0.114-3.3-0.778
	c-0.96-0.664-1.64-1.666-1.9-2.807l-21.51-118.847c-0.99-3.15-3.18-5.782-6.1-7.326c-2.92-1.543-6.33-1.874-9.5-0.919l-5.73,1.613
	c-1.85,0.544-3.42,1.777-4.39,3.445c-0.96,1.667-1.26,3.642-0.81,5.518c0.06,0.073,0.11,0.158,0.15,0.25
	c0.03,0.093,0.04,0.19,0.03,0.288l13.09,120.28c0.1,1.182-0.25,2.358-0.98,3.291c-0.74,0.933-1.8,1.551-2.97,1.728H1320.65z"/>
<path style="fill:#FFFFFF;" d="M1299.32,943.052c0,0-11.47-62.381-11.47-62.74c0-0.358-7.53-37.643-9.14-55.569
	c-2.51-14.878-2.87-20.794,10.39-24.2c13.27-3.405,17.75,11.294,20.44,20.257l24.02,114.903L1299.32,943.052z"/>
<path style="fill:#494752;" d="M1299.32,947.533c-0.98-0.039-1.93-0.39-2.7-1.002c-0.78-0.612-1.33-1.454-1.6-2.404
	c0-0.179,0-0.179-1.97-10.934c-3.05-16.133-9.14-49.654-9.68-51.805s-7.53-38.361-9.14-55.928c-2.15-13.982-3.95-24.737,13.8-29.219
	c17.75-4.481,23.48,15.058,25.81,23.303c0.18,0.18,0.18,0.18,0.18,0.359l24.02,114.903c0.13,0.589,0.14,1.199,0.03,1.792
	c-0.11,0.594-0.34,1.158-0.67,1.66c-0.34,0.503-0.77,0.932-1.28,1.263c-0.5,0.331-1.07,0.556-1.66,0.663
	c-1.17,0.209-2.37-0.05-3.34-0.722c-0.97-0.671-1.64-1.701-1.86-2.863l-24.02-114.724c-4.84-16.133-9.32-18.464-15.06-17.03
	c-8.96,2.331-9.5,3.765-6.99,19.181v0.358c1.61,17.747,8.25,52.343,8.96,54.673c0.72,2.331,0.18,0.538,9.68,52.522
	c1.08,6.095,1.97,10.218,1.97,10.577c0.22,1.138-0.02,2.316-0.65,3.285c-0.64,0.969-1.62,1.655-2.75,1.913L1299.32,947.533z"/>
<path style="fill:#87BF2E;" d="M2247.59,1901.71c-0.54,4.84-1.26,9.86-2.15,14.88l-28.86,475.03h-727.96l180.51-575.77l0.72-2.33
	c7.78-43.52,27.44-84.03,56.79-117.09c29.35-33.05,67.27-57.36,109.55-70.23c32.18-9.91,66.09-12.84,99.49-8.61
	c4.3,0.54,8.61,1.08,12.91,1.97l102.89,18.47c12.92,2.31,25.63,5.66,38,10.03c26.97,9.54,51.99,23.88,73.86,42.31
	c30.44,25.5,54.07,58.16,68.78,95.05C2246.82,1822.3,2252.14,1862.26,2247.59,1901.71z"/>
<path style="fill:#87BF2E;" d="M2220.7,2396.1h-738.18l183.02-583.65c11.08-61.54,45.31-116.49,95.65-153.56
	c50.35-37.08,112.98-53.46,175.03-45.78l13.08,1.97l102.9,18.47c61.23,10.91,116,44.76,153.14,94.65
	c37.14,49.9,53.85,112.08,46.73,173.87c-0.48,5.02-1.2,10.04-2.15,15.06L2220.7,2396.1z M1494.71,2387.14h717.56l28.68-471.08
	c0.9-4.84,1.62-9.86,2.15-14.7c6.05-52.94-6.01-106.36-34.19-151.57c-28.19-45.21-70.85-79.55-121.04-97.42
	c-12.14-4.29-24.61-7.59-37.29-9.86l-102.89-18.46l-12.55-1.8c-32.79-4.22-66.11-1.35-97.69,8.43
	c-41.52,12.56-78.74,36.38-107.53,68.81c-28.8,32.44-48.04,72.22-55.59,114.93v0.71l-0.72,2.33L1494.71,2387.14z"/>
<path style="fill:#FFFFFF;" d="M1977.45,1360.54c36.57-85.87,122.43-131.58,191.8-102c69.37,29.58,96.08,122.97,59.51,208.83
	c-25.63,60.59-76,101.28-127.8,109.53l-11.48,71.16c-25.45,23.49-119.38,9.32-155.95-32.8l51.27-90.7
	C1957.01,1481.71,1952.53,1419.33,1977.45,1360.54z"/>
<path style="fill:#494752;" d="M2047.36,1663.84l-8.79-0.36c-50.01-2.69-90.52-24.74-108.27-45.17c-0.65-0.69-1.05-1.57-1.15-2.51
	c-0.09-0.94,0.12-1.88,0.61-2.69l49.84-88.37c-28.15-45.53-30.66-108.81-6.28-165.99c37.47-88.02,126.2-134.8,197.72-104.33
	c71.53,30.47,99.31,126.73,61.85,214.75c-25.1,59.15-74.04,101.64-128.17,111.5l-10.94,68.11c-0.16,0.95-0.59,1.82-1.25,2.51
	C2083.57,1659.54,2067.79,1663.84,2047.36,1663.84z M1939.09,1614.72c23.66,24.92,67.93,38.19,100.02,39.8
	c20.97,1.25,37.64-1.97,46.07-8.78l11.29-69.56c0.15-0.94,0.59-1.82,1.27-2.5c0.67-0.67,1.55-1.12,2.5-1.26
	c52.34-8.25,100.02-49.3,124.4-106.66c35.67-83.53,9.86-174.59-57-203.09c-66.87-28.51-150.58,16.13-186.07,99.48
	c-23.48,55.39-20.97,116.7,6.99,159.9c0.42,0.7,0.66,1.49,0.69,2.31c0.03,0.81-0.15,1.62-0.51,2.35L1939.09,1614.72z"/>
<path style="fill:#494752;" d="M1998.96,1537.82c-7.35,0-13.27-5.37-17.57-10.21c-0.77-0.89-1.17-2.04-1.1-3.21
	c0.06-1.18,0.59-2.28,1.46-3.07c0.43-0.41,0.93-0.72,1.48-0.92c0.56-0.21,1.15-0.29,1.73-0.26c0.59,0.03,1.17,0.19,1.69,0.45
	c0.53,0.27,1,0.64,1.37,1.09c4.49,4.84,8.07,7.17,10.94,7.17c1.2,0.05,2.34,0.56,3.18,1.43c0.83,0.87,1.3,2.03,1.3,3.23
	c-0.05,1.16-0.54,2.25-1.37,3.05C2001.23,1537.38,2000.12,1537.82,1998.96,1537.82z"/>
<path style="fill:#FFFFFF;" d="M2195.06,1438.52c15.24-14.7,35.86-19,48.76-8.79c12.91,10.22,13.63,36.57-1.97,56.29
	c-15.59,19.72-39.79,26.71-54.31,15.24c-3.02-2.53-5.48-5.64-7.24-9.16c-1.75-3.51-2.77-7.35-2.98-11.28L2195.06,1438.52z"/>
<path style="fill:#494752;" d="M2204.21,1511.11c-6.98,0.15-13.8-2.06-19.36-6.27c-6.99-5.38-11.12-13.8-12.01-23.66
	c-0.1-1.19,0.28-2.37,1.06-3.28c0.77-0.9,1.87-1.47,3.06-1.56c1.19-0.1,2.37,0.28,3.27,1.06c0.91,0.77,1.48,1.87,1.57,3.06
	c0.72,7.35,3.59,13.44,8.6,17.21c12.37,9.86,34.06,3.41,48.05-14.34c6.57-8.19,10.45-18.2,11.11-28.68
	c0.36-9.32-2.69-16.85-8.61-21.51c-10.75-8.43-28.86-4.84-42.84,8.6c-0.41,0.4-0.9,0.72-1.43,0.93c-0.53,0.21-1.1,0.32-1.68,0.31
	c-0.57-0.01-1.14-0.13-1.67-0.36c-0.52-0.23-1-0.56-1.4-0.97c-0.4-0.41-0.72-0.9-0.93-1.43s-0.32-1.1-0.31-1.68
	c0.01-0.57,0.13-1.14,0.36-1.67s0.56-1,0.97-1.4c17.21-16.67,40.15-20.62,54.49-9.32c8.25,6.45,12.37,16.67,12.01,28.68
	c-0.67,12.44-5.25,24.36-13.08,34.06C2234.14,1503.23,2218.37,1511.11,2204.21,1511.11z"/>
<path style="fill:#494752;" d="M2007.2,1280.77c-3.25-4.92-4.89-10.73-4.68-16.62c0.2-5.9,2.25-11.58,5.84-16.26
	c3.59-4.68,8.55-8.12,14.2-9.84c5.64-1.72,11.68-1.64,17.27,0.24c0.36-3.64,1.27-7.21,2.69-10.58c1.86-4.38,4.56-8.35,7.95-11.68
	c3.4-3.34,7.41-5.97,11.82-7.75c4.42-1.78,9.14-2.68,13.89-2.63c4.76,0.04,9.46,1.02,13.84,2.88c4.88,2.05,9.23,5.18,12.73,9.14
	c6.4-10.1,15.83-17.93,26.94-22.37c11.11-4.43,23.33-5.25,34.93-2.33c11.61,2.92,21.99,9.43,29.68,18.6
	c7.68,9.16,12.28,20.52,13.13,32.45c8.48-3.89,17.89-5.27,27.13-3.97c9.23,1.3,17.9,5.22,24.98,11.29
	c7.08,6.08,12.26,14.06,14.94,22.99c2.68,8.93,2.74,18.45,0.17,27.42c5.85,4.08,10.11,10.05,12.07,16.91
	c1.96,6.85,1.5,14.17-1.31,20.73c-1.53,3.7-3.78,7.05-6.63,9.86c4.86,4.97,8.22,11.22,9.69,18.02c1.46,6.8,0.98,13.88-1.4,20.42
	c-2.38,6.54-6.56,12.27-12.05,16.54c-5.5,4.26-12.08,6.89-19.01,7.58c5.17,3.58,8.96,8.83,10.72,14.86
	c1.76,6.04,1.39,12.5-1.04,18.3c-5.91,13.62-6.63,26.35-20.25,20.79c-54.5,74.57-87.3,136.24-160.08,105.41
	c-78.87-33.7-65.79-104.15-43.92-179.8c-5.91-9.86-61.66-78.51-56.82-89.8c2.05-4.89,5.13-9.27,9.03-12.86
	C1997.54,1285.12,2002.17,1282.42,2007.2,1280.77z"/>
<path style="fill:#494752;" d="M2121.21,1583.71c-11.47,0-23.84-2.69-37.64-8.42c-37.47-15.96-57.9-41.41-62.38-77.8
	c-3.59-29.76,3.4-63.81,15.41-105.4c-2.15-3.05-6.09-8.43-10.75-14.52c-42.31-56.65-48.4-70.63-45.35-77.8
	c4.02-9.33,11.28-16.91,20.43-21.33c-1.89-4.1-2.88-8.55-2.91-13.07c-0.03-4.51,0.9-8.98,2.73-13.1c2.9-6.74,7.97-12.32,14.39-15.86
	c6.43-3.54,13.86-4.84,21.1-3.68c0.56-2.32,1.28-4.6,2.16-6.81c2.07-4.94,5.1-9.42,8.91-13.18c3.82-3.76,8.34-6.72,13.31-8.72
	c4.96-2,10.28-3,15.63-2.93c5.36,0.07,10.65,1.19,15.56,3.32c3.72,1.63,7.22,3.74,10.4,6.27c7.27-9.44,17.13-16.55,28.38-20.47
	c11.25-3.92,23.4-4.48,34.96-1.61s22.03,9.05,30.14,17.78c8.11,8.73,13.5,19.63,15.51,31.37c8.94-2.9,18.48-3.38,27.67-1.41
	c9.19,1.97,17.69,6.33,24.66,12.64c6.96,6.31,12.14,14.34,15,23.29c2.87,8.95,3.33,18.5,1.32,27.68c5.74,4.99,9.76,11.65,11.5,19.05
	s1.1,15.16-1.82,22.18c-1.22,2.96-2.85,5.73-4.84,8.24c4.66,5.79,7.66,12.73,8.67,20.09s0,14.86-2.93,21.68
	c-2.33,5.4-5.77,10.25-10.09,14.23c-4.32,3.98-9.44,7.01-15.01,8.9c3.6,4.47,5.91,9.83,6.7,15.51c0.79,5.68,0.02,11.47-2.22,16.75
	c-1.07,2.69-1.97,5.2-2.86,7.71c-2.69,7.35-5.02,13.62-10.76,16.31c-2.92,1.09-6.11,1.28-9.14,0.54
	c-5.02,6.81-9.86,13.62-14.52,20.26C2196.5,1541.77,2166.74,1583.71,2121.21,1583.71z M1988.74,1303.18
	c-1.07,8.42,31.91,52.34,44.28,69.01c6.27,8.25,10.75,14.16,12.37,16.85c0.57,1.1,0.7,2.39,0.35,3.59
	c-12.01,41.4-19.18,74.92-15.59,103.78c4.12,33.35,22.23,55.75,57,70.63c28.68,12.19,51.81,10.22,74.75-6.45
	c22.95-16.67,40.87-43.02,63.28-74.39l16.67-23.13c0.57-0.79,1.4-1.37,2.35-1.63c0.94-0.26,1.95-0.19,2.85,0.2
	c1.79,0.72,4.12,1.43,5.56,0.72c1.43-0.72,3.94-5.92,5.91-11.12c0.9-2.51,1.79-5.38,3.05-8.06c2-4.84,2.29-10.21,0.83-15.23
	c-1.47-5.02-4.61-9.39-8.9-12.38c-0.81-0.6-1.41-1.45-1.7-2.42c-0.3-0.97-0.26-2.01,0.09-2.96c0.31-0.77,0.83-1.44,1.49-1.94
	c0.66-0.51,1.45-0.83,2.27-0.93c5.76-0.62,11.24-2.76,15.9-6.19c4.66-3.43,8.33-8.04,10.63-13.34c2.48-5.89,3.17-12.38,1.99-18.66
	c-1.18-6.27-4.18-12.07-8.62-16.66c-0.43-0.4-0.77-0.89-1-1.43c-0.24-0.54-0.36-1.12-0.36-1.7c0-0.59,0.12-1.17,0.36-1.71
	c0.23-0.54,0.57-1.03,1-1.43c2.45-2.41,4.4-5.27,5.74-8.43c2.37-5.64,2.75-11.92,1.09-17.82c-1.66-5.89-5.27-11.04-10.24-14.62
	c-0.78-0.51-1.37-1.25-1.7-2.12c-0.32-0.88-0.35-1.83-0.09-2.72c2.33-8.15,2.26-16.79-0.18-24.91c-2.44-8.11-7.16-15.35-13.6-20.86
	c-6.43-5.51-14.32-9.06-22.71-10.23c-8.39-1.16-16.94,0.11-24.63,3.66c-0.67,0.29-1.39,0.41-2.11,0.34c-0.72-0.06-1.42-0.3-2.02-0.7
	c-0.6-0.36-1.1-0.86-1.48-1.45c-0.37-0.59-0.6-1.26-0.67-1.96c-0.81-10.95-5.05-21.37-12.11-29.78
	c-7.06-8.41-16.59-14.39-27.24-17.08c-10.64-2.7-21.87-1.98-32.08,2.06c-10.21,4.03-18.9,11.18-24.83,20.42
	c-0.41,0.6-0.94,1.1-1.56,1.47c-0.62,0.37-1.31,0.6-2.02,0.68c-1.33-0.01-2.61-0.53-3.59-1.43c-4.32-4.9-10.06-8.33-16.43-9.81
	c-6.36-1.47-13.02-0.93-19.06,1.56c-3.89,1.53-7.44,3.83-10.42,6.75c-2.99,2.93-5.36,6.42-6.97,10.28c-1.21,2.92-2,6-2.33,9.14
	c-0.07,0.7-0.3,1.37-0.67,1.96s-0.88,1.09-1.48,1.45c-0.55,0.35-1.18,0.58-1.83,0.67c-0.64,0.09-1.3,0.05-1.93-0.13
	c-5.68-1.87-11.84-1.55-17.29,0.91c-5.44,2.45-9.76,6.86-12.11,12.35c-1.59,3.6-2.24,7.54-1.9,11.46c0.35,3.92,1.68,7.69,3.87,10.95
	c0.34,0.59,0.57,1.24,0.66,1.92c0.09,0.68,0.05,1.36-0.12,2.02c-0.26,0.66-0.64,1.25-1.13,1.74c-0.5,0.49-1.09,0.88-1.74,1.13
	c-4.41,1.43-8.47,3.79-11.9,6.91C1993.31,1295.1,1990.58,1298.92,1988.74,1303.18z"/>
<path style="fill:#FFFFFF;" d="M2653.42,1062.62l-49.47-89.81c-1.99-4.769-5.78-8.559-10.55-10.541s-10.13-1.994-14.91-0.035
	l-6.27,2.51c-2.38,0.965-4.54,2.389-6.37,4.19c-1.83,1.802-3.28,3.946-4.28,6.309c-1,2.364-1.52,4.901-1.54,7.467
	c-0.02,2.566,0.47,5.111,1.43,7.488l42.13,106.122L2653.42,1062.62z"/>
<path style="fill:#494752;" d="M2603.59,1100.8c-0.88,0-1.73-0.25-2.47-0.73c-0.73-0.48-1.3-1.16-1.65-1.96l-42.13-106.301
	c-1.21-2.9-1.82-6.017-1.79-9.161s0.7-6.248,1.97-9.123c1.17-2.91,2.92-5.552,5.14-7.77c2.21-2.218,4.86-3.965,7.77-5.137
	l6.45-2.689c5.85-2.366,12.4-2.317,18.21,0.136c5.81,2.453,10.41,7.109,12.8,12.95l49.48,89.445c0.28,0.52,0.46,1.09,0.52,1.68
	c0.06,0.58,0.01,1.18-0.16,1.74c-0.17,0.57-0.44,1.1-0.81,1.56c-0.37,0.45-0.83,0.84-1.35,1.12c-0.52,0.28-1.08,0.46-1.67,0.52
	c-0.59,0.06-1.18,0.01-1.75-0.16c-0.56-0.16-1.09-0.44-1.55-0.81c-0.46-0.37-0.84-0.83-1.12-1.34L2600,975.138
	c-0.06-0.073-0.11-0.158-0.14-0.251c-0.03-0.092-0.04-0.19-0.04-0.287c-1.55-3.668-4.43-6.614-8.06-8.246
	c-1.82-0.759-3.77-1.15-5.74-1.15s-3.92,0.391-5.74,1.15l-6.45,2.51c-3.62,1.558-6.51,4.445-8.06,8.066
	c-1.58,3.651-1.64,7.775-0.18,11.473l42.3,106.297c0.38,1.12,0.33,2.35-0.13,3.44s-1.31,1.97-2.38,2.48L2603.59,1100.8z"/>
<path style="fill:#87BF2E;" d="M2646.07,1171.43c51.63,9.68,79.59,1.61,88.55-8.43c0,0-43.2,274.26-92.13,388.27
	c-48.94,114.01-285.56,385.04-441.15,388.45c-155.6,3.4-77.62-216.72-77.62-216.72s338.26-237.88,346.86-265.12
	c8.6-27.25,82.28-275.16,94.65-323.74C2581.9,1151.89,2594.45,1161.93,2646.07,1171.43z"/>
<path style="fill:#87BF2E;" d="M2197.93,1944.2c-35.31,0-61.48-11.47-77.97-34.42c-18.83-25.99-24.56-65.79-17.21-117.95
	c3.52-23.92,9.1-47.49,16.67-70.45l0.54-1.25l1.25-0.9c0.72-0.54,85.51-60.05,170.12-122.25
	c153.44-112.57,173.52-135.7,174.95-140.36c7.89-24.74,82.1-274.98,94.65-323.56l1.97-7.88l5.56,5.91
	c15.59,16.67,26.88,26.53,78.33,36.03s76.54,1.8,84.43-7.17l10.22-11.47l-2.33,15.24c-0.54,2.69-43.74,276.05-92.5,389.16
	c-26.35,61.31-100.92,158.82-181.59,237.16c-46.06,44.99-91.06,81.02-133.54,107.37c-48.94,30.12-92.68,45.89-129.96,46.79H2197.93z
	 M2127.49,1725.69c-4.49,13.44-39.8,124.4-0.18,178.89c15.23,20.98,40.15,31.37,74.03,30.66c90.52-1.98,200.23-95.91,257.41-151.65
	c79.95-77.62,153.8-174.06,179.62-234.11c42.84-99.49,81.56-325.17,90.16-376.62c-12.01,5.92-36.39,11.65-83.35,3.05
	c-46.97-8.61-61.85-17.39-77.62-32.99c-17.03,63.1-85.33,292.73-92.68,316.39c-1.61,5.02-5.91,18.46-178.36,145.02
	C2217.29,1662.41,2138.06,1718.34,2127.49,1725.69z"/>
<path style="fill:#FFFFFF;" d="M2589.07,1122.49c-1.97,8.24-4.3,18.28-7.17,29.4c-11.29-5.92-17.57-12.19-16.67-17.75
	C2566.12,1128.58,2575.09,1124.46,2589.07,1122.49z"/>
<path style="fill:#494752;" d="M2581.9,1156.37c-0.75-0.01-1.49-0.2-2.15-0.54c-13.8-7.35-20.26-14.88-18.82-22.41
	c1.43-7.53,10.57-13.08,27.42-15.23c0.73-0.12,1.47-0.05,2.16,0.2s1.31,0.67,1.79,1.23c0.5,0.51,0.87,1.14,1.06,1.83
	c0.19,0.69,0.19,1.42,0.01,2.11c-1.79,8.07-4.3,17.93-7.17,29.4c-0.14,0.67-0.45,1.3-0.88,1.83c-0.44,0.53-1,0.95-1.63,1.22
	L2581.9,1156.37z M2583.15,1128.05c-9.85,2.15-13.26,5.19-13.44,6.81c-0.18,1.61,1.61,5.2,9.32,10.21
	C2580.64,1138.8,2581.9,1133.24,2583.15,1128.05z"/>
<path style="fill:#FFFFFF;" d="M2734.62,1163c-0.89,5.74-10.03,9.86-24.2,11.65l5.92-30.29
	C2728.71,1150.63,2735.7,1157.08,2734.62,1163z"/>
<path style="fill:#494752;" d="M2710.43,1179.13c-0.61-0.01-1.21-0.14-1.77-0.38c-0.55-0.25-1.05-0.61-1.46-1.05
	c-0.51-0.51-0.87-1.14-1.06-1.83c-0.19-0.69-0.2-1.42-0.02-2.12l5.74-30.29c0.17-0.68,0.48-1.32,0.91-1.88
	c0.43-0.56,0.98-1.01,1.6-1.35c0.62-0.28,1.31-0.42,1.99-0.39c0.69,0.04,1.36,0.23,1.95,0.57c15.06,7.53,22.05,15.42,20.8,23.31
	c-1.44,7.88-10.76,13.08-28.15,15.23L2710.43,1179.13z M2719.57,1151.17l-3.41,17.92c10.4-1.97,13.8-5.19,13.98-6.81
	C2730.32,1160.67,2728.35,1156.55,2719.57,1151.17z"/>
<path style="fill:#FFFFFF;" d="M2819.06,620.432l-342.59-14.957l-17.89,409.565l342.59,14.96L2819.06,620.432z"/>
<path style="fill:#494752;" d="M2800.05,1036.8h-0.18l-342.56-15.23c-0.58,0.01-1.16-0.11-1.69-0.36c-0.53-0.25-0.99-0.62-1.35-1.08
	c-0.42-0.42-0.75-0.92-0.97-1.48c-0.21-0.55-0.31-1.15-0.29-1.74l18.29-409.604c0.02-0.589,0.16-1.167,0.41-1.702
	c0.24-0.535,0.59-1.016,1.03-1.416c0.43-0.399,0.94-0.709,1.49-0.913c0.55-0.203,1.14-0.295,1.73-0.271l342.56,15.236
	c0.58,0.023,1.15,0.162,1.67,0.411c0.53,0.249,1,0.602,1.38,1.038c0.39,0.436,0.68,0.945,0.87,1.497
	c0.18,0.552,0.25,1.136,0.2,1.715l-18.11,409.599c-0.08,1.14-0.59,2.21-1.42,3.01C2802.29,1036.3,2801.2,1036.76,2800.05,1036.8z
	 M2462.16,1012.78l333.59,14.88l17.75-400.636l-333.6-14.878L2462.16,1012.78z"/>
<path style="fill:#FFFFFF;" d="M2602.56,637.632l-84.61-3.384l-3.38,84.645l84.6,3.384L2602.56,637.632z"/>
<path style="fill:#494752;" d="M2591.94,739.237h-0.36l-84.43-3.765c-0.59-0.023-1.17-0.162-1.7-0.409
	c-0.54-0.246-1.02-0.596-1.42-1.029c-0.4-0.433-0.71-0.94-0.91-1.493c-0.2-0.553-0.3-1.141-0.27-1.73l3.76-84.608
	c-0.01-0.585,0.11-1.164,0.36-1.693s0.62-0.993,1.08-1.355c0.42-0.421,0.92-0.75,1.48-0.966c0.55-0.216,1.15-0.314,1.74-0.289
	l84.61,3.765c0.58,0.022,1.15,0.162,1.68,0.411c0.52,0.249,0.99,0.602,1.38,1.037c0.38,0.436,0.68,0.945,0.86,1.497
	s0.25,1.136,0.2,1.715l-3.76,84.609c0,1.141-0.45,2.236-1.26,3.042C2594.17,738.783,2593.08,739.237,2591.94,739.237z
	 M2511.99,726.689l75.65,3.405l3.22-75.646l-75.46-3.405L2511.99,726.689z"/>
<path style="fill:#F56C49;" d="M2522.21,681.877l13.08,0.179l13.63,28.86l20.97-47.861l12.37,0.537l-24.74,55.57l-17.39-0.896
	L2522.21,681.877z"/>
<path style="fill:#494752;" d="M2778.36,691.02h-0.18l-150.03-6.632c-0.59-0.023-1.17-0.162-1.71-0.409
	c-0.53-0.247-1.01-0.596-1.41-1.029c-0.4-0.433-0.71-0.941-0.91-1.494c-0.21-0.553-0.3-1.14-0.28-1.729
	c0-0.596,0.12-1.186,0.36-1.733s0.59-1.038,1.03-1.443c0.44-0.405,0.95-0.713,1.52-0.907c0.56-0.194,1.16-0.269,1.76-0.219
	l150.03,6.633c0.6-0.002,1.19,0.12,1.74,0.358c0.54,0.238,1.03,0.587,1.44,1.026c0.4,0.438,0.71,0.956,0.91,1.52
	c0.19,0.564,0.26,1.162,0.21,1.756c-0.08,1.143-0.59,2.213-1.41,3.007C2780.6,690.518,2779.51,690.98,2778.36,691.02z"/>
<path style="fill:#494752;" d="M2777.11,719.161h-0.18l-150.04-6.632c-0.59-0.024-1.17-0.162-1.7-0.409
	c-0.54-0.247-1.02-0.597-1.42-1.03c-0.4-0.433-0.71-0.94-0.91-1.493c-0.2-0.553-0.29-1.14-0.27-1.729c0-0.597,0.12-1.187,0.36-1.734
	c0.24-0.546,0.59-1.038,1.02-1.442c0.44-0.405,0.96-0.714,1.52-0.908c0.57-0.193,1.17-0.268,1.76-0.218l150.04,6.632
	c0.59,0.023,1.16,0.162,1.7,0.409c0.53,0.247,1.02,0.597,1.41,1.03c0.4,0.432,0.71,0.94,0.92,1.493c0.2,0.553,0.29,1.14,0.27,1.729
	c-0.05,1.157-0.54,2.251-1.37,3.053C2779.38,718.715,2778.27,719.162,2777.11,719.161z"/>
<path style="fill:#FFFFFF;" d="M2590.79,773.4l-84.53-3.691l-3.7,84.564l84.53,3.691L2590.79,773.4z"/>
<path style="fill:#494752;" d="M2586.2,864.717h-0.18l-84.43-3.765c-1.2-0.101-2.34-0.606-3.22-1.434
	c-0.77-0.892-1.16-2.051-1.08-3.226l3.76-84.609c0.03-0.589,0.17-1.167,0.41-1.702c0.25-0.535,0.6-1.016,1.03-1.416
	c0.44-0.399,0.94-0.709,1.5-0.913c0.55-0.203,1.14-0.295,1.73-0.271l84.42,3.764c0.59,0.023,1.17,0.162,1.71,0.409
	c0.53,0.247,1.01,0.597,1.41,1.029c0.4,0.433,0.71,0.941,0.92,1.494c0.2,0.553,0.29,1.14,0.27,1.729l-3.77,84.609
	c-0.01,0.58-0.14,1.151-0.39,1.676c-0.25,0.526-0.6,0.993-1.04,1.371c-0.4,0.399-0.88,0.715-1.4,0.931
	C2587.33,864.608,2586.77,864.718,2586.2,864.717z M2506.43,852.169l75.65,3.406l3.23-75.646l-75.65-3.406L2506.43,852.169z"/>
<path style="fill:#F56C49;" d="M2516.65,807.355l13.09,0.179l13.62,28.86l20.97-47.861l12.37,0.538l-24.74,55.569l-17.38-0.896
	L2516.65,807.355z"/>
<path style="fill:#494752;" d="M2772.81,816.499h-0.18l-150.04-6.632c-1.21-0.092-2.33-0.648-3.13-1.551
	c-0.8-0.903-1.22-2.082-1.17-3.289c0.02-0.581,0.16-1.152,0.41-1.678c0.25-0.525,0.6-0.995,1.04-1.38
	c0.43-0.386,0.94-0.679,1.49-0.862s1.14-0.252,1.72-0.203l150.04,6.632c0.59-0.002,1.18,0.12,1.73,0.359
	c0.55,0.238,1.04,0.587,1.44,1.025c0.41,0.439,0.71,0.956,0.91,1.52c0.19,0.565,0.27,1.163,0.22,1.757
	c-0.09,1.143-0.6,2.213-1.42,3.007C2775.04,815.997,2773.95,816.458,2772.81,816.499z"/>
<path style="fill:#494752;" d="M2771.55,844.642h-0.18l-150.03-6.633c-0.59-0.023-1.17-0.162-1.71-0.409
	c-0.53-0.247-1.01-0.596-1.41-1.029c-0.4-0.433-0.71-0.941-0.92-1.493c-0.2-0.553-0.29-1.141-0.27-1.73
	c0-0.596,0.12-1.186,0.36-1.733s0.59-1.038,1.03-1.443c0.44-0.404,0.95-0.713,1.52-0.907c0.56-0.194,1.16-0.268,1.75-0.219
	l150.04,6.633c0.59,0.023,1.17,0.162,1.7,0.408c0.54,0.247,1.02,0.597,1.42,1.03c0.4,0.433,0.71,0.94,0.91,1.493
	c0.2,0.553,0.3,1.141,0.27,1.729c-0.04,1.158-0.54,2.252-1.37,3.054C2773.82,844.195,2772.71,844.642,2771.55,844.642z"/>
<path style="fill:#FFFFFF;" d="M2585.33,898.513l-84.52-3.691l-3.7,84.564l84.53,3.691L2585.33,898.513z"/>
<path style="fill:#494752;" d="M2580.64,989.839h-0.17l-84.43-3.764c-1.21-0.092-2.33-0.648-3.13-1.551
	c-0.81-0.903-1.23-2.082-1.18-3.289l3.77-84.43c0.01-0.606,0.14-1.205,0.38-1.76c0.25-0.555,0.61-1.053,1.05-1.466
	c0.92-0.723,2.06-1.104,3.23-1.076l84.61,3.765c1.16,0.063,2.25,0.578,3.04,1.434c0.4,0.43,0.71,0.941,0.89,1.497
	c0.19,0.556,0.25,1.146,0.19,1.729l-3.76,84.609c-0.05,1.157-0.54,2.252-1.38,3.054C2582.92,989.393,2581.8,989.84,2580.64,989.839z
	 M2500.88,977.291l75.64,3.227l3.23-75.467l-75.47-3.406L2500.88,977.291z"/>
<path style="fill:#F56C49;" d="M2511.09,932.299l13.09,0.358l13.62,28.861l20.97-47.862l12.37,0.538l-24.73,55.39l-17.39-0.717
	L2511.09,932.299z"/>
<path style="fill:#494752;" d="M2767.25,941.618h-0.18l-150.04-6.812c-0.59,0.002-1.18-0.12-1.73-0.358s-1.04-0.587-1.44-1.026
	c-0.41-0.438-0.72-0.956-0.91-1.52c-0.19-0.564-0.27-1.162-0.22-1.756c0.02-0.589,0.16-1.167,0.41-1.702
	c0.25-0.535,0.6-1.016,1.03-1.416c0.43-0.399,0.94-0.71,1.49-0.913c0.56-0.203,1.14-0.295,1.73-0.271l150.04,6.811
	c0.6-0.002,1.19,0.12,1.73,0.358c0.55,0.239,1.04,0.588,1.45,1.026c0.4,0.439,0.71,0.956,0.9,1.52c0.2,0.564,0.27,1.163,0.22,1.757
	c-0.09,1.143-0.59,2.213-1.42,3.007C2769.49,941.116,2768.4,941.577,2767.25,941.618z"/>
<path style="fill:#494752;" d="M2765.99,969.763h-0.18l-150.03-6.633c-0.59-0.023-1.17-0.162-1.7-0.409
	c-0.54-0.246-1.02-0.596-1.42-1.029c-0.4-0.433-0.71-0.94-0.91-1.493c-0.21-0.553-0.3-1.141-0.27-1.73
	c-0.01-0.596,0.12-1.186,0.35-1.733c0.24-0.547,0.59-1.038,1.03-1.443c0.44-0.404,0.96-0.713,1.52-0.907
	c0.56-0.194,1.16-0.268,1.76-0.219l150.03,6.633c0.59,0.023,1.17,0.162,1.71,0.409c0.53,0.246,1.01,0.596,1.41,1.029
	c0.4,0.433,0.71,0.94,0.91,1.493c0.21,0.553,0.3,1.141,0.28,1.729c-0.09,1.143-0.6,2.213-1.42,3.007
	C2768.23,969.261,2767.14,969.722,2765.99,969.763z"/>
<path style="fill:#FFFFFF;" d="M2740.18,921.541c-12.55-1.972-18.46,10.934-20.79,20.256l-14.88,86.583l-55.03-18.82l9.32-85.151
	c0.61-2.988,0.06-6.095-1.54-8.691s-4.12-4.488-7.07-5.291l-5.73-1.614c-4.4-1.149-9.07-0.512-13,1.771
	c-3.93,2.284-6.8,6.029-7.97,10.419c0,0-20.98,103.607-24.02,123.147c-2.16,13.8-5.02,33.52-6.82,58.62
	c-0.78,6.64-1.98,13.23-3.58,19.72c-1.97,8.24-4.3,18.28-7.17,29.39c14.7,7.71,37.64,15.06,64.17,19.54
	c26.53,4.48,48.04,5.2,64.36,3.23l5.91-30.29l38.36-199.337C2755.96,938.749,2752.73,923.512,2740.18,921.541z"/>
<path style="fill:#494752;" d="M2691.78,1180.03c-15.56-0.13-31.08-1.51-46.42-4.13c-26-4.48-49.84-11.83-65.61-20.07
	c-0.89-0.46-1.58-1.21-1.98-2.13c-0.39-0.91-0.45-1.94-0.17-2.89c2.86-11.47,5.19-21.15,6.99-29.22c1.6-6.25,2.79-12.6,3.58-19
	c1.8-24.92,4.48-44.64,6.81-59.16c3.23-19.54,23.31-119.022,24.2-123.145v-0.359c0.73-2.754,2-5.338,3.73-7.604
	c1.72-2.266,3.88-4.169,6.34-5.601c2.47-1.431,5.19-2.363,8.01-2.743c2.83-0.379,5.7-0.198,8.45,0.532l5.56,1.614
	c4.03,1.061,7.52,3.611,9.74,7.137c2.23,3.526,3.04,7.765,2.27,11.864l-8.96,81.385l46.6,15.95l13.99-81.561v-0.358
	c4.66-16.85,13.98-25.455,25.99-23.483c2.72,0.396,5.33,1.369,7.65,2.852c2.32,1.484,4.29,3.445,5.79,5.753
	c4.02,5.938,5.68,13.159,4.66,20.256l-44.09,229.451c-0.16,0.95-0.64,1.82-1.35,2.47c-0.72,0.65-1.63,1.04-2.6,1.11
	C2704.6,1179.7,2698.19,1180.06,2691.78,1180.03z M2587.1,1149.55c14.88,7.17,36.39,13.45,59.69,17.57s43.74,4.84,59.87,3.41
	l43.56-226.225c0.58-4.78-0.57-9.61-3.23-13.623c-0.87-1.263-1.99-2.341-3.28-3.172s-2.73-1.398-4.25-1.668
	c-9.32-1.434-13.8,9.859-15.77,16.85l-14.7,86.398c-0.33,1.24-1.09,2.32-2.15,3.05c-0.55,0.36-1.18,0.57-1.84,0.64
	c-0.65,0.06-1.31-0.04-1.92-0.28l-55.04-18.64c-0.94-0.35-1.74-0.99-2.29-1.83c-0.55-0.84-0.81-1.83-0.75-2.83l9.32-85.151
	c0-0.179,0.18-0.358,0.18-0.537c0.38-1.898,0.01-3.869-1.02-5.505c-1.04-1.636-2.66-2.81-4.54-3.279l-5.56-1.434
	c-3.23-0.884-6.68-0.457-9.6,1.187c-2.92,1.645-5.07,4.374-5.99,7.597c-0.9,4.481-20.97,103.792-23.84,122.792
	c-2.33,14.34-5.2,33.7-6.81,58.26c-0.75,6.89-2.01,13.72-3.77,20.43C2591.76,1130.73,2589.61,1139.51,2587.1,1149.55z"/>
<path style="fill:#FFFFFF;" d="M2680.67,1036.44l9.5-120.635c0.65-2.991,0.12-6.119-1.48-8.726c-1.61-2.608-4.16-4.491-7.12-5.256
	l-5.74-1.613c-4.4-1.15-9.07-0.513-13,1.771c-3.93,2.284-6.8,6.029-7.97,10.418l-18.11,119.741L2680.67,1036.44z"/>
<path style="fill:#494752;" d="M2680.67,1040.93h-0.36c-0.59-0.05-1.16-0.21-1.69-0.48c-0.53-0.27-1-0.64-1.38-1.09
	c-0.38-0.45-0.67-0.97-0.85-1.53c-0.18-0.56-0.25-1.15-0.2-1.74l9.68-120.642v-0.538c0.38-1.898,0.01-3.869-1.02-5.505
	c-1.04-1.635-2.66-2.81-4.54-3.279l-5.56-1.434c-3.21-0.879-6.63-0.447-9.52,1.2c-2.89,1.647-5.01,4.375-5.89,7.584l-18.11,119.204
	c-0.18,1.16-0.8,2.2-1.74,2.91c-0.94,0.7-2.11,1.01-3.28,0.86c-0.58-0.07-1.15-0.25-1.66-0.54c-0.51-0.3-0.95-0.69-1.31-1.16
	c-0.35-0.47-0.6-1.01-0.74-1.58c-0.13-0.57-0.15-1.16-0.05-1.74l18.1-119.568v-0.537c0.71-2.768,1.96-5.366,3.68-7.644
	c1.73-2.279,3.89-4.191,6.36-5.626s5.2-2.364,8.03-2.733c2.83-0.368,5.71-0.169,8.46,0.587l5.56,1.434
	c4.05,1.099,7.53,3.685,9.76,7.24c2.22,3.555,3.03,7.818,2.25,11.94l-9.5,120.277c-0.09,1.13-0.6,2.18-1.43,2.94
	C2682.89,1040.51,2681.8,1040.93,2680.67,1040.93z"/>
<path style="fill:#FFFFFF;" d="M2702.36,1050.25c0-0.18,9.68-62.743,9.68-63.102s6.45-37.823,7.53-55.749
	c1.97-15.057,2.15-20.973-11.12-24.02c-13.26-3.047-17.38,11.831-19.89,20.973l-20.62,115.438L2702.36,1050.25z"/>
<path style="fill:#494752;" d="M2702.36,1054.73h-0.9c-1.12-0.22-2.12-0.86-2.79-1.8c-0.67-0.93-0.95-2.08-0.79-3.22
	c0.18-0.36,0.71-4.3,1.61-10.04c8.07-53.058,8.25-53.237,8.25-53.596c0-0.358,6.27-36.926,7.35-54.852
	c2.15-15.595,1.61-17.029-7.53-19.001c-5.74-1.255-10.22,1.255-14.52,17.388l-20.62,115.441c-0.26,1.14-0.93,2.14-1.9,2.81
	c-0.96,0.66-2.14,0.94-3.3,0.77c-0.59-0.08-1.16-0.29-1.67-0.6c-0.51-0.31-0.95-0.72-1.3-1.2c-0.35-0.49-0.6-1.04-0.74-1.62
	c-0.13-0.58-0.15-1.18-0.05-1.77l20.79-115.624v-0.358c2.15-8.246,7.35-27.964,25.28-24.021c17.92,3.944,16.31,14.879,14.52,28.681
	c-1.08,17.567-6.63,51.985-7.53,56.287c-0.9,4.302-5.74,36.205-8.25,52.705c-1.43,10.21-1.43,10.21-1.61,10.39
	c-0.24,0.95-0.8,1.78-1.58,2.37C2704.29,1054.46,2703.34,1054.76,2702.36,1054.73z"/>
<path style="fill:#F56C49;" d="M1051.41,1863.89c99.6,0,180.33-80.74,180.33-180.33c0-99.6-80.73-180.33-180.33-180.33
	c-99.593,0-180.33,80.73-180.33,180.33C871.08,1783.15,951.817,1863.89,1051.41,1863.89z"/>
<path style="fill:#F56C49;" d="M1051.41,1868.37c-36.55,0-72.283-10.84-102.675-31.15c-30.392-20.3-54.08-49.17-68.068-82.94
	c-13.988-33.77-17.648-70.93-10.517-106.78c7.131-35.85,24.733-68.78,50.579-94.63c25.847-25.84,58.777-43.44,94.631-50.57
	c35.85-7.14,73.01-3.48,106.78,10.51c33.77,13.99,62.63,37.68,82.94,68.07c20.31,30.39,31.14,66.12,31.14,102.68
	c-0.09,48.98-19.59,95.94-54.23,130.57C1147.35,1848.77,1100.4,1868.28,1051.41,1868.37z M1051.41,1507.71
	c-34.78,0-68.777,10.31-97.695,29.63c-28.919,19.33-51.458,46.79-64.768,78.92c-13.309,32.13-16.792,67.49-10.007,101.6
	c6.786,34.12,23.534,65.45,48.127,90.04c24.593,24.6,55.926,41.34,90.033,48.13c34.12,6.78,69.47,3.3,101.61-10.01
	c32.13-13.31,59.59-35.85,78.92-64.77c19.32-28.91,29.63-62.91,29.63-97.69c-0.05-46.63-18.59-91.33-51.56-124.3
	C1142.74,1526.3,1098.04,1507.75,1051.41,1507.71z"/>
<path style="fill:#FFFFFF;" d="M923.602,1663.66l56.465-1.25l64.173,121.89l81.38-210.45h53.6l-95.9,244.15h-75.11L923.602,1663.66z
	"/>
<path style="fill:#FFFFFF;" d="M2243.28,1945.81v445.81h-475.92v-445.81c0-57,42.48-103.79,94.47-103.79h286.81
	C2200.8,1842.02,2243.28,1888.81,2243.28,1945.81z"/>
<path style="fill:#494752;" d="M2243.29,2396.1h-475.93c-1.19,0-2.33-0.47-3.17-1.31c-0.84-0.84-1.31-1.98-1.31-3.17v-445.81
	c0-59.69,44.45-108.27,98.95-108.27h286.81c54.67,0,99.13,48.58,99.13,108.27v445.81c0,1.19-0.48,2.33-1.32,3.17
	C2245.61,2395.63,2244.47,2396.1,2243.29,2396.1z M1771.84,2387.14h466.96v-441.33c0-54.85-40.33-99.31-90.16-99.31h-286.81
	c-49.66,0-89.99,44.46-89.99,99.31V2387.14z"/>
<path style="fill:#494752;" d="M2289.17,1945.81v445.81h-475.92v-445.81c0-57,42.48-103.79,94.65-103.79h286.81
	C2246.69,1842.02,2289.17,1888.81,2289.17,1945.81z"/>
<path style="fill:#494752;" d="M2289.17,2396.1h-475.92c-1.19,0-2.33-0.47-3.17-1.31c-0.84-0.84-1.31-1.98-1.31-3.17v-445.81
	c0-59.69,44.45-108.27,99.13-108.27h286.81c54.49,0,98.95,48.58,98.95,108.27v445.81c0,1.19-0.48,2.33-1.32,3.17
	C2291.5,2395.63,2290.36,2396.1,2289.17,2396.1z M1817.73,2387.14h466.96v-441.33c0-54.85-40.33-99.31-89.98-99.31H1907.9
	c-49.66,0-90.17,44.46-90.17,99.31V2387.14z"/>
<path style="fill:#87BF2E;" d="M639.122,889.456l1.434,32.087c-0.111-4.122,1.344-8.133,4.071-11.226
	c2.727-3.093,6.525-5.038,10.628-5.445c1.998-0.171,4.01,0.064,5.914,0.69c1.905,0.626,3.664,1.63,5.171,2.953
	c1.507,1.322,2.73,2.936,3.598,4.744c0.868,1.807,1.361,3.772,1.45,5.775c0.199,4.144-1.225,8.203-3.969,11.316
	c-2.744,3.112-6.593,5.033-10.73,5.354c-1.998,0.171-4.009-0.063-5.914-0.689c-1.905-0.626-3.663-1.63-5.17-2.953
	c-1.507-1.323-2.731-2.936-3.599-4.744c-0.867-1.808-1.361-3.772-1.45-5.775l2.689,56.107c-0.199-4.144,1.225-8.203,3.969-11.316
	c2.744-3.112,6.593-5.033,10.73-5.355c1.993-0.146,3.994,0.107,5.888,0.742c1.895,0.635,3.644,1.641,5.145,2.959
	c1.502,1.318,2.726,2.922,3.601,4.718c0.876,1.796,1.385,3.748,1.499,5.743c0.154,4.133-1.285,8.168-4.021,11.27
	c-2.735,3.102-6.558,5.036-10.678,5.4c-2.003,0.198-4.025-0.018-5.941-0.634s-3.685-1.619-5.197-2.947
	c-1.513-1.327-2.736-2.951-3.596-4.771c-0.859-1.82-1.335-3.797-1.399-5.809l2.51,56.11c-0.152-4.12,1.293-8.13,4.033-11.2
	c2.739-3.08,6.561-4.97,10.666-5.29c1.988-0.2,3.995,0.01,5.9,0.61c1.904,0.61,3.665,1.6,5.175,2.91c1.51,1.3,2.737,2.91,3.606,4.71
	c0.87,1.79,1.364,3.75,1.452,5.75c0.199,4.14-1.225,8.2-3.969,11.31c-2.745,3.12-6.593,5.04-10.73,5.36
	c-2.003,0.2-4.025-0.02-5.941-0.64c-1.916-0.61-3.685-1.61-5.198-2.94c-1.512-1.33-2.736-2.95-3.595-4.77
	c-0.859-1.82-1.336-3.8-1.399-5.81l2.509,56.1c-0.104-4.13,1.381-8.14,4.149-11.21c2.769-3.07,6.609-4.96,10.729-5.28
	c1.989-0.17,3.992,0.07,5.887,0.69c1.894,0.63,3.641,1.64,5.134,2.96c1.493,1.33,2.7,2.94,3.548,4.75
	c0.848,1.81,1.319,3.77,1.385,5.76c0.197,4.13-1.232,8.17-3.98,11.25c-2.749,3.09-6.597,4.97-10.719,5.25
	c-1.997,0.17-4.009-0.07-5.914-0.69c-1.905-0.63-3.663-1.63-5.17-2.96c-1.507-1.32-2.731-2.93-3.599-4.74
	c-0.867-1.81-1.36-3.77-1.45-5.78l2.689,56.29c-0.199-4.14,1.225-8.2,3.969-11.32c2.744-3.11,6.593-5.03,10.73-5.35
	c2.003-0.2,4.025,0.02,5.941,0.63c1.916,0.62,3.685,1.62,5.197,2.95c1.513,1.33,2.736,2.95,3.596,4.77
	c0.859,1.82,1.335,3.8,1.399,5.81c0.151,4.12-1.294,8.13-4.033,11.2c-2.74,3.08-6.561,4.97-10.666,5.29
	c-1.988,0.2-3.996-0.01-5.9-0.62c-1.904-0.6-3.665-1.59-5.175-2.9c-1.51-1.31-2.737-2.91-3.607-4.71
	c-0.87-1.8-1.363-3.75-1.451-5.75l2.51,56.11c-0.154-4.14,1.285-8.17,4.02-11.27c2.736-3.1,6.559-5.04,10.679-5.4
	c2.002-0.2,4.024,0.02,5.94,0.63c1.916,0.62,3.685,1.62,5.198,2.95c1.512,1.33,2.736,2.95,3.595,4.77c0.859,1.82,1.336,3.8,1.4,5.81
	c0.151,4.11-1.294,8.13-4.034,11.2c-2.739,3.07-6.561,4.97-10.665,5.29c-1.989,0.2-3.996-0.01-5.901-0.62
	c-1.904-0.6-3.665-1.59-5.174-2.9c-1.51-1.31-2.738-2.91-3.607-4.71c-0.87-1.8-1.364-3.76-1.451-5.75l2.688,56.11
	c-0.199-4.15,1.225-8.21,3.969-11.32c2.745-3.11,6.593-5.03,10.73-5.36c1.998-0.17,4.01,0.07,5.915,0.69
	c1.904,0.63,3.663,1.63,5.17,2.96c1.507,1.32,2.731,2.93,3.598,4.74c0.868,1.81,1.361,3.77,1.45,5.78
	c0.111,4.12-1.343,8.13-4.071,11.22c-2.727,3.09-6.524,5.04-10.628,5.45c-1.997,0.17-4.009-0.07-5.914-0.69
	c-1.905-0.63-3.663-1.63-5.17-2.96c-1.507-1.32-2.731-2.93-3.598-4.74c-0.868-1.81-1.361-3.77-1.451-5.77l2.51,56.1
	c-0.154-4.13,1.285-8.17,4.021-11.27c2.735-3.1,6.558-5.03,10.678-5.4c2.003-0.2,4.025,0.02,5.941,0.64
	c1.916,0.61,3.685,1.62,5.197,2.94c1.513,1.33,2.736,2.95,3.596,4.77c0.859,1.82,1.335,3.8,1.399,5.81
	c0.111,4.12-1.344,8.14-4.071,11.23c-2.727,3.09-6.524,5.04-10.628,5.44c-2.003,0.2-4.025-0.02-5.941-0.63
	c-1.916-0.62-3.685-1.62-5.197-2.95c-1.513-1.33-2.736-2.95-3.596-4.77c-0.859-1.82-1.335-3.8-1.399-5.81l1.434,32.09l356.365-28.86
	l-20.977-456.925L639.122,889.456z"/>
<path style="fill:#87BF2E;" d="M655.793,1351.4l-1.613-36.75l-2.51-56.11l-2.688-56.1l-2.51-56.11l-2.689-56.11l-2.509-56.29
	l-5.199-112.209l-1.613-36.389l365.324-29.398l21.334,465.886L655.793,1351.4z M663.86,1330.6l0.538,11.12l347.402-28.15
	l-20.619-447.957l-347.398,27.964l0.538,10.935c3.101-2.281,6.749-3.703,10.576-4.123c2.622-0.222,5.262,0.092,7.759,0.924
	c2.496,0.832,4.797,2.165,6.761,3.916c1.965,1.696,3.554,3.784,4.665,6.13c1.111,2.346,1.72,4.898,1.788,7.493
	c0.204,5.293-1.637,10.462-5.142,14.433c-3.504,3.972-8.403,6.442-13.68,6.899c-3.933,0.346-7.877-0.531-11.293-2.51l1.076,22.945
	c3.14-2.304,6.869-3.671,10.755-3.944c2.582-0.253,5.189,0.03,7.657,0.832c2.468,0.802,4.743,2.106,6.683,3.829
	c3.921,3.489,6.305,8.385,6.633,13.624c0.16,5.281-1.696,10.426-5.192,14.388c-3.496,3.962-8.37,6.444-13.63,6.943
	c-3.935,0.37-7.886-0.508-11.293-2.509l1.075,22.948c3.061-2.33,6.74-3.7,10.577-3.95c2.596-0.27,5.221,0,7.71,0.78
	c2.489,0.79,4.79,2.08,6.758,3.8c1.967,1.71,3.561,3.82,4.68,6.17c1.119,2.36,1.74,4.93,1.824,7.54
	c0.204,5.29-1.637,10.46-5.141,14.43c-3.505,3.97-8.403,6.44-13.68,6.9c-3.933,0.34-7.877-0.53-11.294-2.51l1.076,23.12
	c3.06-2.35,6.73-3.78,10.576-4.12c2.597-0.27,5.221-0.01,7.711,0.78c2.489,0.79,4.789,2.08,6.757,3.79
	c1.968,1.72,3.561,3.82,4.68,6.18c1.12,2.36,1.741,4.92,1.825,7.53c0.204,5.3-1.637,10.46-5.142,14.44
	c-3.504,3.97-8.403,6.44-13.68,6.9c-3.877,0.36-7.771-0.52-11.114-2.51l0.897,23.12c3.125-2.36,6.853-3.79,10.755-4.12
	c2.609-0.24,5.239,0.05,7.733,0.85c2.495,0.8,4.803,2.1,6.787,3.81c3.881,3.57,6.199,8.53,6.453,13.8
	c0.157,5.26-1.705,10.39-5.205,14.32c-3.5,3.93-8.372,6.38-13.617,6.83c-3.911,0.35-7.838-0.46-11.293-2.33l1.075,22.95
	c3.061-2.36,6.73-3.79,10.576-4.13c2.623-0.22,5.263,0.1,7.759,0.93c2.496,0.83,4.797,2.16,6.761,3.91
	c1.965,1.7,3.554,3.79,4.665,6.13c1.112,2.35,1.721,4.9,1.788,7.5c0.148,3.6-0.662,7.18-2.346,10.37
	c-1.684,3.19-4.182,5.88-7.241,7.79c-3.059,1.91-6.57,2.98-10.175,3.1c-3.605,0.11-7.177-0.73-10.353-2.44l1.076,22.94
	c3.111-2.38,6.847-3.81,10.755-4.12c2.595-0.22,5.206,0.1,7.673,0.93c2.467,0.83,4.737,2.16,6.668,3.91
	c1.957,1.72,3.551,3.8,4.69,6.14c1.139,2.34,1.8,4.89,1.942,7.48c0.118,5.27-1.753,10.4-5.241,14.35
	c-3.488,3.95-8.337,6.45-13.581,6.99c-3.928,0.28-7.852-0.6-11.293-2.51l1.076,22.94c3.045-2.38,6.723-3.81,10.576-4.12
	c2.622-0.22,5.262,0.09,7.758,0.92c2.497,0.83,4.797,2.17,6.762,3.92c1.965,1.69,3.553,3.78,4.665,6.13
	c1.111,2.34,1.72,4.9,1.788,7.49c0.205,3.63-0.567,7.24-2.236,10.46s-4.174,5.94-7.252,7.86c-3.078,1.93-6.617,2.99-10.245,3.08
	C670.613,1333.26,667.027,1332.38,663.86,1330.6z M663.143,1314.29c0.041,1.41,0.373,2.79,0.974,4.06
	c0.601,1.28,1.459,2.41,2.519,3.34c1.061,0.92,2.301,1.62,3.643,2.04c1.342,0.43,2.757,0.57,4.157,0.42
	c2.963-0.27,5.709-1.67,7.676-3.9c1.967-2.24,3.004-5.14,2.9-8.11c-0.041-1.41-0.373-2.79-0.974-4.06
	c-0.601-1.28-1.459-2.41-2.519-3.34c-1.061-0.92-2.301-1.62-3.643-2.04c-1.342-0.43-2.757-0.57-4.157-0.42
	c-2.963,0.27-5.71,1.67-7.676,3.9C664.076,1308.42,663.039,1311.32,663.143,1314.29z M660.633,1258.18
	c-0.008,1.38,0.295,2.74,0.884,3.98c0.59,1.24,1.452,2.33,2.522,3.19c1.058,0.97,2.305,1.71,3.663,2.17
	c1.357,0.47,2.795,0.64,4.224,0.52c2.947-0.31,5.669-1.72,7.627-3.94c1.959-2.23,3.011-5.1,2.95-8.07
	c-0.181-2.82-1.47-5.46-3.586-7.35c-2.143-1.81-4.909-2.71-7.708-2.51c-2.963,0.28-5.709,1.67-7.676,3.91
	C661.567,1252.31,660.529,1255.21,660.633,1258.18z M657.944,1201.9c0.07,1.4,0.424,2.78,1.04,4.04
	c0.616,1.26,1.482,2.39,2.546,3.31c1.024,0.96,2.24,1.7,3.568,2.16c1.328,0.46,2.738,0.64,4.14,0.53
	c2.963-0.28,5.709-1.67,7.676-3.91c1.966-2.23,3.004-5.13,2.9-8.1c0.009-1.4-0.292-2.79-0.881-4.06s-1.451-2.4-2.525-3.29
	c-2.199-1.84-5.031-2.74-7.887-2.51c-2.932,0.27-5.652,1.64-7.614,3.83C658.945,1196.1,657.887,1198.95,657.944,1201.9z
	 M655.435,1145.79c0.037,1.39,0.358,2.76,0.943,4.03c0.586,1.26,1.424,2.39,2.463,3.32c1.054,0.97,2.305,1.69,3.667,2.12
	c1.362,0.44,2.802,0.57,4.22,0.39c2.948-0.23,5.693-1.59,7.664-3.79c1.97-2.21,3.013-5.09,2.912-8.04
	c-0.153-2.8-1.371-5.43-3.406-7.35c-1.054-0.97-2.305-1.69-3.667-2.12c-1.362-0.44-2.802-0.57-4.22-0.39
	c-2.965,0.18-5.737,1.53-7.716,3.74C656.315,1139.92,655.288,1142.82,655.435,1145.79z M652.746,1089.68
	c0.07,1.41,0.423,2.78,1.04,4.05c0.616,1.26,1.482,2.38,2.545,3.3c1.02,0.96,2.24,1.69,3.573,2.12c1.333,0.43,2.745,0.57,4.135,0.39
	c2.98-0.18,5.77-1.52,7.778-3.73c2.008-2.21,3.077-5.11,2.978-8.1c-0.07-1.4-0.424-2.78-1.04-4.04
	c-0.616-1.26-1.482-2.39-2.546-3.31c-1.02-0.96-2.24-1.68-3.573-2.12c-1.332-0.43-2.744-0.56-4.135-0.39
	c-2.979,0.19-5.77,1.53-7.778,3.74C653.715,1083.79,652.647,1086.7,652.746,1089.68z M650.236,1033.58
	c0.153,2.79,1.372,5.42,3.406,7.35c1.055,0.96,2.306,1.69,3.668,2.12c1.362,0.43,2.802,0.56,4.22,0.39
	c2.947-0.23,5.693-1.59,7.663-3.8c1.971-2.2,3.014-5.08,2.913-8.04c-0.037-1.39-0.358-2.76-0.944-4.02
	c-0.586-1.27-1.424-2.4-2.462-3.32c-1.064-0.96-2.312-1.7-3.668-2.16c-1.356-0.46-2.791-0.64-4.219-0.53
	c-2.964,0.27-5.71,1.67-7.677,3.9C651.17,1027.7,650.132,1030.6,650.236,1033.58z M647.727,977.469
	c-0.009,1.4,0.291,2.785,0.88,4.056s1.451,2.395,2.526,3.294c2.198,1.837,5.031,2.738,7.887,2.509
	c2.947-0.313,5.668-1.721,7.627-3.945c1.958-2.224,3.011-5.102,2.949-8.065c-0.073-1.377-0.429-2.725-1.046-3.958
	c-0.617-1.234-1.481-2.327-2.539-3.212c-1.031-0.954-2.248-1.685-3.574-2.148c-1.326-0.462-2.733-0.647-4.134-0.541
	c-2.963,0.273-5.71,1.669-7.676,3.902C648.66,971.594,647.623,974.495,647.727,977.469z M645.038,921.362
	c0.181,2.826,1.469,5.467,3.585,7.349c1.057,0.905,2.281,1.593,3.604,2.023c1.323,0.431,2.717,0.596,4.104,0.487
	c2.963-0.273,5.71-1.669,7.676-3.902c1.967-2.233,3.004-5.134,2.9-8.108c-0.015-1.396-0.326-2.774-0.913-4.041
	c-0.587-1.267-1.437-2.395-2.493-3.309c-2.198-1.837-5.031-2.738-7.887-2.509c-2.947,0.314-5.668,1.722-7.627,3.945
	C646.029,915.521,644.976,918.399,645.038,921.362z"/>
<path style="fill:#494752;" d="M695.05,928.89c-1.129,0.004-2.218-0.419-3.049-1.183c-0.831-0.765-1.342-1.815-1.433-2.94
	c-0.053-1.179,0.343-2.334,1.108-3.232c0.765-0.898,1.843-1.473,3.015-1.608l267.629-21.69c1.179-0.053,2.334,0.343,3.232,1.108
	c0.899,0.765,1.473,1.843,1.608,3.015c0.049,0.589-0.019,1.182-0.2,1.744c-0.181,0.563-0.471,1.084-0.854,1.534
	s-0.852,0.819-1.378,1.087c-0.527,0.268-1.101,0.43-1.691,0.475l-267.629,21.69H695.05z"/>
<path style="fill:#494752;" d="M697.022,965.461c-1.189,0.047-2.348-0.379-3.222-1.186c-0.874-0.807-1.391-1.928-1.439-3.116
	c-0.048-1.189,0.379-2.348,1.186-3.222c0.807-0.874,1.928-1.392,3.116-1.439l267.629-21.511c0.594-0.075,1.197-0.025,1.77,0.146
	s1.105,0.459,1.56,0.847c0.456,0.388,0.825,0.867,1.085,1.406c0.26,0.539,0.405,1.126,0.425,1.724c0.05,1.16-0.351,2.293-1.12,3.163
	c-0.769,0.869-1.846,1.406-3.003,1.498l-267.629,21.69H697.022z"/>
<path style="fill:#494752;" d="M698.993,1002.03c-1.188,0.04-2.347-0.38-3.221-1.19c-0.874-0.81-1.392-1.927-1.439-3.115
	c-0.048-1.189,0.379-2.348,1.186-3.222c0.806-0.874,1.927-1.391,3.116-1.439l267.629-21.511c1.189-0.095,2.366,0.286,3.274,1.059
	c0.908,0.774,1.471,1.876,1.566,3.064c0.095,1.189-0.286,2.366-1.059,3.274c-0.773,0.908-1.875,1.471-3.064,1.566l-267.629,21.514
	H698.993z"/>
<path style="fill:#494752;" d="M700.965,1038.6c-1.025-0.17-1.962-0.68-2.652-1.45s-1.09-1.76-1.133-2.8
	c-0.042-1.04,0.277-2.05,0.901-2.88c0.625-0.83,1.517-1.41,2.525-1.66l267.629-21.69c1.189-0.09,2.366,0.29,3.274,1.06
	c0.908,0.77,1.471,1.88,1.566,3.06c0.095,1.19-0.286,2.37-1.059,3.28c-0.773,0.91-1.875,1.47-3.064,1.56l-267.629,21.52H700.965z"/>
<path style="fill:#494752;" d="M702.937,1075.34c-1.189,0.05-2.348-0.37-3.222-1.18c-0.874-0.81-1.391-1.93-1.439-3.12
	c-0.047-1.19,0.379-2.34,1.186-3.22c0.807-0.87,1.928-1.39,3.116-1.44l157.925-12.73c1.188-0.09,2.366,0.29,3.274,1.06
	c0.907,0.78,1.471,1.88,1.566,3.07c0.095,1.19-0.286,2.36-1.059,3.27c-0.774,0.91-1.876,1.47-3.064,1.57l-157.925,12.72H702.937z"/>
<path style="fill:#494752;" d="M713.333,1204.94c-1.188,0.05-2.347-0.37-3.221-1.18c-0.874-0.81-1.392-1.93-1.439-3.12
	c-0.048-1.19,0.379-2.34,1.185-3.22c0.807-0.87,1.928-1.39,3.117-1.44l267.629-21.69c1.179-0.05,2.334,0.34,3.232,1.11
	s1.473,1.84,1.608,3.01c0.053,1.18-0.343,2.34-1.108,3.24s-1.843,1.47-3.015,1.6l-267.629,21.52L713.333,1204.94z"/>
<path style="fill:#494752;" d="M715.127,1241.52c-1.098-0.05-2.143-0.49-2.936-1.25c-0.793-0.76-1.28-1.78-1.367-2.88
	c-0.074-0.58-0.03-1.17,0.13-1.73c0.16-0.56,0.433-1.08,0.802-1.54c0.369-0.45,0.826-0.82,1.344-1.09s1.086-0.43,1.668-0.48
	l267.809-21.51c0.565-0.05,1.134,0.02,1.675,0.19c0.541,0.17,1.042,0.45,1.476,0.81c0.433,0.37,0.789,0.82,1.048,1.32
	c0.259,0.51,0.416,1.06,0.461,1.63c0.075,0.57,0.031,1.16-0.129,1.72c-0.161,0.57-0.434,1.09-0.803,1.54
	c-0.369,0.46-0.826,0.83-1.344,1.1c-0.517,0.27-1.085,0.43-1.668,0.48l-267.808,21.69H715.127z"/>
<path style="fill:#494752;" d="M717.097,1278.08c-1.128,0.01-2.217-0.42-3.048-1.18c-0.831-0.77-1.343-1.82-1.433-2.94
	c-0.053-1.18,0.343-2.34,1.108-3.23c0.765-0.9,1.843-1.48,3.015-1.61l267.629-21.51c1.189-0.1,2.366,0.28,3.274,1.06
	c0.908,0.77,1.471,1.87,1.566,3.06c0.095,1.19-0.286,2.37-1.059,3.27c-0.773,0.91-1.875,1.48-3.064,1.57l-267.629,21.51H717.097z"/>
<path style="fill:#494752;" d="M852.975,1303.89c-0.589,0.03-1.176-0.06-1.729-0.27c-0.553-0.2-1.06-0.51-1.493-0.91
	c-0.874-0.81-1.391-1.93-1.439-3.12c-0.047-1.19,0.379-2.34,1.186-3.22c0.807-0.87,1.928-1.39,3.116-1.44l133.725-10.75
	c1.189-0.1,2.366,0.28,3.274,1.06c0.908,0.77,1.471,1.87,1.566,3.06c0.095,1.19-0.286,2.37-1.059,3.27
	c-0.773,0.91-1.875,1.47-3.064,1.57l-133.725,10.75H852.975z"/>
<path style="fill:#F56C49;" d="M1669.84,761.645l-65.42,250.955l400.63,89.81l65.25-250.958L1669.84,761.645z M1694.58,829.582
	c-2.83-0.627-5.51-1.821-7.87-3.509c-2.35-1.689-4.35-3.837-5.85-6.315c-1.51-2.478-2.5-5.236-2.91-8.107
	c-0.42-2.87-0.25-5.795,0.5-8.598c1.52-5.798,5.23-10.783,10.33-13.922c5.11-3.138,11.23-4.187,17.09-2.928
	c2.85,0.601,5.53,1.78,7.9,3.465c2.36,1.685,4.36,3.839,5.85,6.328c1.5,2.489,2.47,5.26,2.85,8.139
	c0.38,2.879,0.16,5.806-0.64,8.597c-1.49,5.784-5.16,10.767-10.24,13.908C1706.52,829.781,1700.42,830.835,1694.58,829.582z
	 M1758.58,843.923c-2.85-0.601-5.53-1.781-7.9-3.466c-2.36-1.685-4.36-3.839-5.85-6.328c-1.5-2.488-2.47-5.259-2.85-8.138
	c-0.38-2.88-0.16-5.806,0.64-8.598c1.49-5.783,5.16-10.767,10.23-13.908c5.08-3.14,11.18-4.195,17.02-2.942
	c2.83,0.628,5.51,1.822,7.86,3.51c2.36,1.688,4.36,3.836,5.86,6.315c1.51,2.478,2.5,5.235,2.91,8.106
	c0.42,2.871,0.25,5.796-0.5,8.599c-1.53,5.797-5.23,10.783-10.34,13.921C1770.56,844.132,1764.44,845.181,1758.58,843.923z
	 M1822.75,858.263c-2.83-0.627-5.51-1.821-7.87-3.509c-2.36-1.689-4.35-3.837-5.86-6.315c-1.5-2.478-2.49-5.236-2.91-8.107
	c-0.41-2.87-0.24-5.795,0.51-8.598c1.52-5.798,5.22-10.783,10.33-13.922c5.11-3.138,11.23-4.187,17.09-2.929
	c2.83,0.625,5.5,1.82,7.85,3.511c2.36,1.691,4.34,3.843,5.83,6.326c1.49,2.482,2.46,5.242,2.86,8.112
	c0.39,2.87,0.19,5.79-0.58,8.581c-1.49,5.784-5.16,10.767-10.24,13.908S1828.59,859.516,1822.75,858.263z M1886.74,872.604
	c-2.84-0.601-5.53-1.781-7.89-3.466c-2.37-1.685-4.36-3.839-5.86-6.328c-1.49-2.488-2.46-5.259-2.84-8.138
	c-0.38-2.88-0.16-5.806,0.64-8.598c1.49-5.783,5.15-10.767,10.23-13.908c5.08-3.14,11.18-4.195,17.02-2.942
	c2.84,0.649,5.51,1.862,7.87,3.568c2.36,1.707,4.36,3.87,5.86,6.363c1.51,2.492,2.49,5.262,2.91,8.145
	c0.41,2.883,0.24,5.819-0.51,8.633c-1.6,5.74-5.33,10.657-10.42,13.752C1898.66,872.781,1892.58,873.824,1886.74,872.604z
	 M1950.92,887.124c-2.84-0.649-5.52-1.862-7.88-3.569c-2.36-1.706-4.35-3.87-5.86-6.362c-1.5-2.493-2.49-5.263-2.9-8.145
	c-0.42-2.883-0.24-5.819,0.5-8.633c1.61-5.741,5.33-10.657,10.42-13.753c5.1-3.095,11.18-4.139,17.01-2.918
	c2.83,0.625,5.5,1.819,7.85,3.51c2.35,1.691,4.34,3.843,5.83,6.326c1.49,2.482,2.46,5.242,2.85,8.113c0.4,2.87,0.2,5.789-0.58,8.581
	c-1.48,5.783-5.15,10.767-10.23,13.907C1962.85,887.322,1956.76,888.377,1950.92,887.124z M2014.91,901.464
	c-2.83-0.625-5.5-1.819-7.85-3.51c-2.35-1.691-4.33-3.844-5.83-6.326c-1.49-2.482-2.46-5.243-2.85-8.113s-0.2-5.789,0.58-8.581
	c1.48-5.783,5.15-10.767,10.23-13.908c5.08-3.14,11.18-4.195,17.01-2.942c2.84,0.628,5.51,1.822,7.87,3.51
	c2.36,1.689,4.35,3.836,5.86,6.315c1.51,2.478,2.5,5.235,2.91,8.106c0.41,2.871,0.24,5.796-0.5,8.599
	c-1.53,5.797-5.23,10.783-10.34,13.921S2020.77,902.722,2014.91,901.464z"/>
<path style="fill:#F56C49;" d="M2008.28,1107.79l-409.42-91.78l67.76-259.742l409.24,91.779L2008.28,1107.79z M1609.97,1009.2
	l391.86,88.01l63.1-242.352l-391.86-88.014L1609.97,1009.2z M2019.75,906.484c-1.93,0.016-3.86-0.225-5.73-0.717
	c-3.39-0.734-6.6-2.144-9.44-4.146c-2.83-2.002-5.23-4.555-7.06-7.506c-1.85-3.025-3.08-6.394-3.61-9.906
	c-0.52-3.512-0.33-7.093,0.57-10.529c1.9-6.884,6.34-12.788,12.43-16.516c6.1-3.728,13.38-5.001,20.37-3.56
	c3.41,0.773,6.64,2.227,9.47,4.276c2.84,2.049,5.23,4.649,7.04,7.645c1.81,2.997,2.99,6.327,3.48,9.792
	c0.49,3.465,0.28,6.993-0.63,10.373c-1.57,5.939-5.06,11.193-9.92,14.951C2031.86,904.4,2025.9,906.453,2019.75,906.484z
	 M2015.99,896.984c4.67,0.987,9.55,0.143,13.62-2.359c4.06-2.501,7.02-6.47,8.25-11.086c0.6-2.248,0.76-4.594,0.45-6.902
	c-0.31-2.308-1.07-4.532-2.25-6.542c-1.18-1.937-2.75-3.617-4.59-4.941c-1.85-1.324-3.94-2.265-6.16-2.767
	c-4.72-0.986-9.64-0.123-13.74,2.412c-4.11,2.535-7.08,6.548-8.31,11.212c-0.61,2.247-0.76,4.594-0.45,6.902
	c0.31,2.308,1.07,4.531,2.24,6.542c1.23,1.923,2.83,3.58,4.71,4.874C2011.64,895.622,2013.75,896.525,2015.99,896.984z
	 M1955.76,892.144c-1.99-0.062-3.97-0.302-5.92-0.717c-3.4-0.756-6.62-2.194-9.45-4.227c-2.84-2.033-5.23-4.62-7.04-7.604
	c-1.79-3.019-2.97-6.364-3.46-9.841c-0.5-3.477-0.29-7.017,0.59-10.415c1.83-6.894,6.23-12.823,12.3-16.56
	c6.08-3.737,13.35-4.996,20.33-3.517c3.41,0.736,6.64,2.165,9.47,4.201c2.84,2.035,5.23,4.632,7.02,7.63
	c1.87,2.986,3.1,6.332,3.59,9.822c0.5,3.49,0.25,7.045-0.72,10.434c-1.57,5.909-5.03,11.142-9.85,14.897
	C1967.79,890.002,1961.87,892.074,1955.76,892.144z M1957.19,847.688c-4.14-0.012-8.17,1.356-11.45,3.888s-5.62,6.083-6.65,10.094
	c-0.59,2.214-0.72,4.524-0.4,6.79c0.33,2.267,1.11,4.445,2.3,6.403c1.19,1.958,2.76,3.656,4.62,4.993
	c1.86,1.337,3.97,2.285,6.2,2.787c4.73,0.986,9.64,0.123,13.75-2.412c4.1-2.535,7.07-6.548,8.3-11.211
	c0.59-2.215,0.72-4.524,0.4-6.791c-0.33-2.267-1.11-4.444-2.3-6.402c-1.19-1.958-2.76-3.657-4.62-4.993
	c-1.86-1.337-3.97-2.285-6.2-2.787C1959.85,847.741,1958.52,847.62,1957.19,847.688z M1891.58,877.624l-5.73-0.538
	c-3.41-0.735-6.64-2.165-9.48-4.201c-2.83-2.035-5.22-4.632-7.01-7.63c-1.86-2.994-3.08-6.333-3.61-9.815
	c-0.52-3.482-0.33-7.034,0.56-10.441c1.86-6.907,6.3-12.838,12.4-16.573c6.1-3.734,13.4-4.988,20.4-3.503
	c3.42,0.773,6.64,2.228,9.47,4.276c2.84,2.049,5.24,4.649,7.04,7.645c1.81,2.997,3,6.327,3.49,9.792
	c0.49,3.465,0.27,6.994-0.64,10.373c-1.58,5.921-5.07,11.152-9.94,14.88C1903.67,875.618,1897.71,877.634,1891.58,877.624z
	 M1887.82,868.303c4.7,0.98,9.59,0.111,13.67-2.426c4.07-2.538,7.01-6.549,8.2-11.198c0.61-2.202,0.77-4.506,0.47-6.772
	c-0.3-2.267-1.07-4.447-2.24-6.409c-1.17-1.962-2.74-3.665-4.59-5.004c-1.85-1.34-3.96-2.288-6.19-2.788
	c-4.72-0.986-9.64-0.123-13.74,2.412c-4.1,2.535-7.08,6.548-8.31,11.212c-0.64,2.214-0.81,4.538-0.51,6.824
	c0.31,2.285,1.08,4.483,2.28,6.454c1.19,1.971,2.78,3.672,4.67,4.997C1883.42,866.929,1885.56,867.848,1887.82,868.303z
	 M1827.59,863.283c-1.98-0.001-3.96-0.181-5.92-0.537c-3.4-0.756-6.62-2.194-9.45-4.227c-2.84-2.033-5.23-4.62-7.04-7.604
	c-1.79-3.019-2.97-6.364-3.46-9.841c-0.49-3.477-0.29-7.017,0.59-10.415c1.83-6.894,6.23-12.823,12.3-16.56
	c6.08-3.737,13.35-4.996,20.33-3.517c3.39,0.734,6.6,2.144,9.43,4.146c2.84,2.002,5.24,4.555,7.06,7.506
	c1.88,3.017,3.1,6.394,3.6,9.914c0.49,3.519,0.24,7.103-0.73,10.521c-1.6,5.876-5.08,11.068-9.9,14.789
	C1839.58,861.179,1833.68,863.224,1827.59,863.283z M1823.65,853.962c4.72,0.986,9.64,0.123,13.74-2.412
	c4.1-2.535,7.07-6.548,8.31-11.211c0.62-2.255,0.76-4.615,0.42-6.93s-1.15-4.533-2.4-6.515c-1.17-1.931-2.73-3.598-4.58-4.894
	c-1.86-1.296-3.96-2.193-6.17-2.634c-4.7-0.994-9.6-0.155-13.7,2.344c-4.09,2.499-7.08,6.47-8.35,11.1
	c-0.58,2.259-0.71,4.612-0.37,6.92c0.34,2.309,1.14,4.526,2.34,6.524c1.19,1.937,2.75,3.618,4.6,4.941
	C1819.34,852.519,1821.43,853.46,1823.65,853.962z M1763.42,848.943c-1.94,0.016-3.87-0.225-5.74-0.717
	c-3.42-0.729-6.65-2.15-9.5-4.174c-2.85-2.025-5.26-4.611-7.07-7.599c-1.81-2.989-3-6.317-3.48-9.779
	c-0.48-3.463-0.24-6.987,0.69-10.356c1.78-6.917,6.18-12.874,12.26-16.618c6.09-3.744,13.39-4.983,20.37-3.458
	c3.38,0.753,6.58,2.171,9.41,4.171s5.24,4.543,7.08,7.48c1.79,3.019,2.97,6.364,3.46,9.841s0.29,7.017-0.6,10.415
	c-1.57,5.939-5.06,11.193-9.92,14.951C1775.52,846.859,1769.56,848.912,1763.42,848.943z M1759.65,839.622
	c4.72,0.941,9.62,0.059,13.71-2.47c4.09-2.528,7.07-6.514,8.34-11.154c1.09-4.568,0.39-9.382-1.97-13.444
	c-1.19-1.938-2.75-3.618-4.6-4.941c-1.85-1.324-3.94-2.265-6.16-2.767c-4.72-0.986-9.64-0.123-13.74,2.412
	c-4.1,2.535-7.07,6.548-8.3,11.211c-0.65,2.227-0.82,4.561-0.52,6.858c0.3,2.297,1.07,4.507,2.27,6.492
	c1.19,1.985,2.78,3.702,4.67,5.045C1755.24,838.206,1757.39,839.145,1759.65,839.622z M1699.42,834.602
	c-1.99,0.028-3.98-0.213-5.91-0.717c-3.38-0.762-6.58-2.184-9.41-4.183c-2.83-1.999-5.24-4.537-7.08-7.468
	c-3.62-6.166-4.65-13.512-2.87-20.435c1.86-6.87,6.27-12.772,12.33-16.502c6.06-3.731,13.32-5.009,20.29-3.575
	c3.41,0.735,6.64,2.165,9.48,4.201c2.83,2.035,5.22,4.632,7.01,7.63c1.88,2.985,3.1,6.332,3.6,9.822
	c0.49,3.49,0.24,7.045-0.73,10.434c-1.54,5.924-4.99,11.173-9.82,14.933C1711.48,832.502,1705.54,834.562,1699.42,834.602z
	 M1700.86,790.147c-4.14,0.018-8.15,1.398-11.42,3.925c-3.28,2.527-5.63,6.061-6.69,10.057c-0.58,2.259-0.7,4.612-0.37,6.92
	c0.34,2.309,1.14,4.526,2.34,6.524c1.19,1.918,2.76,3.574,4.61,4.868c1.85,1.294,3.94,2.199,6.15,2.661
	c4.69,0.993,9.59,0.155,13.69-2.345c4.1-2.499,7.09-6.469,8.36-11.099c0.62-2.255,0.77-4.615,0.43-6.93
	c-0.34-2.315-1.16-4.533-2.4-6.515c-1.17-1.957-2.72-3.653-4.58-4.98c-1.85-1.326-3.95-2.255-6.18-2.728L1700.86,790.147z"/>
<path style="fill:#87BF2E;" d="M1852.86,1049.53l-25.27-151.47l-74.75,61.664l-34.24-73.854l-69.73,72.24l-6.45-6.274l78.87-81.74
	l34.78,75.287l77.79-63.994l24.56,147.351l88.02-105.405l15.95,66.504l56.29-56.287l6.45,6.454l-67.76,67.404l-15.59-64.716
	L1852.86,1049.53z"/>
<path style="fill:#494752;" d="M1908.74,769.701l-19.72-11.383l-32.05,55.514l19.72,11.383L1908.74,769.701z"/>
<path style="fill:#494752;" d="M1876.71,829.583c-0.75-0.011-1.49-0.195-2.16-0.538l-19.71-11.293c-1.05-0.659-1.82-1.68-2.15-2.868
	c-0.18-0.572-0.22-1.175-0.13-1.765c0.1-0.59,0.32-1.151,0.66-1.641l31.91-55.39c0.63-1.028,1.63-1.781,2.79-2.113
	c1.16-0.331,2.4-0.217,3.48,0.32l19.72,11.473c0.49,0.294,0.92,0.684,1.26,1.145c0.34,0.462,0.58,0.987,0.71,1.543
	c0.34,1.138,0.21,2.363-0.35,3.406l-32.09,55.57c-0.41,0.674-0.99,1.227-1.68,1.605
	C1878.27,829.415,1877.49,829.603,1876.71,829.583z M1863.08,812.195l12.01,6.812l27.61-47.682l-12.01-6.991L1863.08,812.195z"/>
<path style="fill:#F56C49;" d="M804.873,826.732l-20.894,9.041l25.458,58.83l20.894-9.041L804.873,826.732z"/>
<path style="fill:#F56C49;" d="M807.265,900.033l-29.039-67.042l29.218-12.548l29.04,67.042L807.265,900.033z M790.056,837.652
	l21.87,50.55l12.727-5.378l-21.869-50.729L790.056,837.652z"/>
</svg>
